<?xml version="1.0" encoding="utf-8" standalone="no"?>
<!DOCTYPE svg PUBLIC "-//W3C//DTD SVG 1.1//EN"
  "http://www.w3.org/Graphics/SVG/1.1/DTD/svg11.dtd">
<svg xmlns:xlink="http://www.w3.org/1999/xlink" width="796.98pt" height="466.544062pt" viewBox="0 0 796.98 466.544062" xmlns="http://www.w3.org/2000/svg" version="1.1">
 <metadata>
  <rdf:RDF xmlns:dc="http://purl.org/dc/elements/1.1/" xmlns:cc="http://creativecommons.org/ns#" xmlns:rdf="http://www.w3.org/1999/02/22-rdf-syntax-ns#">
   <cc:Work>
    <dc:type rdf:resource="http://purl.org/dc/dcmitype/StillImage"/>
    <dc:date>2026-10-04T23:10:38.145645</dc:date>
    <dc:format>image/svg+xml</dc:format>
    <dc:creator>
     <cc:Agent>
      <dc:title>Matplotlib v3.10.9, https://matplotlib.org/</dc:title>
     </cc:Agent>
    </dc:creator>
   </cc:Work>
  </rdf:RDF>
 </metadata>
 <defs>
  <style type="text/css">*{stroke-linejoin: round; stroke-linecap: butt}</style>
 </defs>
 <g id="figure_1">
  <g id="patch_1">
   <path d="M 0 466.544062 
L 796.98 466.544062 
L 796.98 0 
L 0 0 
L 0 466.544062 
z
" style="fill: none"/>
  </g>
  <g id="text_1">
   <!-- Step C: Logsum Welfare by Group -->
   <g style="fill: #1a3a5c" transform="translate(10.8 30.555937) scale(0.26 -0.26)">
    <defs>
     <path id="DejaVuSans-Bold-53" d="M 3834 4519 
L 3834 3531 
Q 3450 3703 3084 3790 
Q 2719 3878 2394 3878 
Q 1963 3878 1756 3759 
Q 1550 3641 1550 3391 
Q 1550 3203 1689 3098 
Q 1828 2994 2194 2919 
L 2706 2816 
Q 3484 2659 3812 2340 
Q 4141 2022 4141 1434 
Q 4141 663 3683 286 
Q 3225 -91 2284 -91 
Q 1841 -91 1394 -6 
Q 947 78 500 244 
L 500 1259 
Q 947 1022 1364 901 
Q 1781 781 2169 781 
Q 2563 781 2772 912 
Q 2981 1044 2981 1288 
Q 2981 1506 2839 1625 
Q 2697 1744 2272 1838 
L 1806 1941 
Q 1106 2091 782 2419 
Q 459 2747 459 3303 
Q 459 4000 909 4375 
Q 1359 4750 2203 4750 
Q 2588 4750 2994 4692 
Q 3400 4634 3834 4519 
z
" transform="scale(0.015625)"/>
     <path id="DejaVuSans-Bold-74" d="M 1759 4494 
L 1759 3500 
L 2913 3500 
L 2913 2700 
L 1759 2700 
L 1759 1216 
Q 1759 972 1856 886 
Q 1953 800 2241 800 
L 2816 800 
L 2816 0 
L 1856 0 
Q 1194 0 917 276 
Q 641 553 641 1216 
L 641 2700 
L 84 2700 
L 84 3500 
L 641 3500 
L 641 4494 
L 1759 4494 
z
" transform="scale(0.015625)"/>
     <path id="DejaVuSans-Bold-65" d="M 4031 1759 
L 4031 1441 
L 1416 1441 
Q 1456 1047 1700 850 
Q 1944 653 2381 653 
Q 2734 653 3104 758 
Q 3475 863 3866 1075 
L 3866 213 
Q 3469 63 3072 -14 
Q 2675 -91 2278 -91 
Q 1328 -91 801 392 
Q 275 875 275 1747 
Q 275 2603 792 3093 
Q 1309 3584 2216 3584 
Q 3041 3584 3536 3087 
Q 4031 2591 4031 1759 
z
M 2881 2131 
Q 2881 2450 2695 2645 
Q 2509 2841 2209 2841 
Q 1884 2841 1681 2658 
Q 1478 2475 1428 2131 
L 2881 2131 
z
" transform="scale(0.015625)"/>
     <path id="DejaVuSans-Bold-70" d="M 1656 506 
L 1656 -1331 
L 538 -1331 
L 538 3500 
L 1656 3500 
L 1656 2988 
Q 1888 3294 2169 3439 
Q 2450 3584 2816 3584 
Q 3463 3584 3878 3070 
Q 4294 2556 4294 1747 
Q 4294 938 3878 423 
Q 3463 -91 2816 -91 
Q 2450 -91 2169 54 
Q 1888 200 1656 506 
z
M 2400 2772 
Q 2041 2772 1848 2508 
Q 1656 2244 1656 1747 
Q 1656 1250 1848 986 
Q 2041 722 2400 722 
Q 2759 722 2948 984 
Q 3138 1247 3138 1747 
Q 3138 2247 2948 2509 
Q 2759 2772 2400 2772 
z
" transform="scale(0.015625)"/>
     <path id="DejaVuSans-Bold-20" transform="scale(0.015625)"/>
     <path id="DejaVuSans-Bold-43" d="M 4288 256 
Q 3956 84 3597 -3 
Q 3238 -91 2847 -91 
Q 1681 -91 1000 561 
Q 319 1213 319 2328 
Q 319 3447 1000 4098 
Q 1681 4750 2847 4750 
Q 3238 4750 3597 4662 
Q 3956 4575 4288 4403 
L 4288 3438 
Q 3953 3666 3628 3772 
Q 3303 3878 2944 3878 
Q 2300 3878 1931 3465 
Q 1563 3053 1563 2328 
Q 1563 1606 1931 1193 
Q 2300 781 2944 781 
Q 3303 781 3628 887 
Q 3953 994 4288 1222 
L 4288 256 
z
" transform="scale(0.015625)"/>
     <path id="DejaVuSans-Bold-3a" d="M 716 3500 
L 1844 3500 
L 1844 2291 
L 716 2291 
L 716 3500 
z
M 716 1209 
L 1844 1209 
L 1844 0 
L 716 0 
L 716 1209 
z
" transform="scale(0.015625)"/>
     <path id="DejaVuSans-Bold-4c" d="M 588 4666 
L 1791 4666 
L 1791 909 
L 3903 909 
L 3903 0 
L 588 0 
L 588 4666 
z
" transform="scale(0.015625)"/>
     <path id="DejaVuSans-Bold-6f" d="M 2203 2784 
Q 1831 2784 1636 2517 
Q 1441 2250 1441 1747 
Q 1441 1244 1636 976 
Q 1831 709 2203 709 
Q 2569 709 2762 976 
Q 2956 1244 2956 1747 
Q 2956 2250 2762 2517 
Q 2569 2784 2203 2784 
z
M 2203 3584 
Q 3106 3584 3614 3096 
Q 4122 2609 4122 1747 
Q 4122 884 3614 396 
Q 3106 -91 2203 -91 
Q 1297 -91 786 396 
Q 275 884 275 1747 
Q 275 2609 786 3096 
Q 1297 3584 2203 3584 
z
" transform="scale(0.015625)"/>
     <path id="DejaVuSans-Bold-67" d="M 2919 594 
Q 2688 288 2409 144 
Q 2131 0 1766 0 
Q 1125 0 706 504 
Q 288 1009 288 1791 
Q 288 2575 706 3076 
Q 1125 3578 1766 3578 
Q 2131 3578 2409 3434 
Q 2688 3291 2919 2981 
L 2919 3500 
L 4044 3500 
L 4044 353 
Q 4044 -491 3511 -936 
Q 2978 -1381 1966 -1381 
Q 1638 -1381 1331 -1331 
Q 1025 -1281 716 -1178 
L 716 -306 
Q 1009 -475 1290 -558 
Q 1572 -641 1856 -641 
Q 2406 -641 2662 -400 
Q 2919 -159 2919 353 
L 2919 594 
z
M 2181 2772 
Q 1834 2772 1640 2515 
Q 1447 2259 1447 1791 
Q 1447 1309 1634 1061 
Q 1822 813 2181 813 
Q 2531 813 2725 1069 
Q 2919 1325 2919 1791 
Q 2919 2259 2725 2515 
Q 2531 2772 2181 2772 
z
" transform="scale(0.015625)"/>
     <path id="DejaVuSans-Bold-73" d="M 3272 3391 
L 3272 2541 
Q 2913 2691 2578 2766 
Q 2244 2841 1947 2841 
Q 1628 2841 1473 2761 
Q 1319 2681 1319 2516 
Q 1319 2381 1436 2309 
Q 1553 2238 1856 2203 
L 2053 2175 
Q 2913 2066 3209 1816 
Q 3506 1566 3506 1031 
Q 3506 472 3093 190 
Q 2681 -91 1863 -91 
Q 1516 -91 1145 -36 
Q 775 19 384 128 
L 384 978 
Q 719 816 1070 734 
Q 1422 653 1784 653 
Q 2113 653 2278 743 
Q 2444 834 2444 1013 
Q 2444 1163 2330 1236 
Q 2216 1309 1875 1350 
L 1678 1375 
Q 931 1469 631 1722 
Q 331 1975 331 2491 
Q 331 3047 712 3315 
Q 1094 3584 1881 3584 
Q 2191 3584 2531 3537 
Q 2872 3491 3272 3391 
z
" transform="scale(0.015625)"/>
     <path id="DejaVuSans-Bold-75" d="M 500 1363 
L 500 3500 
L 1625 3500 
L 1625 3150 
Q 1625 2866 1622 2436 
Q 1619 2006 1619 1863 
Q 1619 1441 1641 1255 
Q 1663 1069 1716 984 
Q 1784 875 1895 815 
Q 2006 756 2150 756 
Q 2500 756 2700 1025 
Q 2900 1294 2900 1772 
L 2900 3500 
L 4019 3500 
L 4019 0 
L 2900 0 
L 2900 506 
Q 2647 200 2364 54 
Q 2081 -91 1741 -91 
Q 1134 -91 817 281 
Q 500 653 500 1363 
z
" transform="scale(0.015625)"/>
     <path id="DejaVuSans-Bold-6d" d="M 3781 2919 
Q 3994 3244 4286 3414 
Q 4578 3584 4928 3584 
Q 5531 3584 5847 3212 
Q 6163 2841 6163 2131 
L 6163 0 
L 5038 0 
L 5038 1825 
Q 5041 1866 5042 1909 
Q 5044 1953 5044 2034 
Q 5044 2406 4934 2573 
Q 4825 2741 4581 2741 
Q 4263 2741 4089 2478 
Q 3916 2216 3909 1719 
L 3909 0 
L 2784 0 
L 2784 1825 
Q 2784 2406 2684 2573 
Q 2584 2741 2328 2741 
Q 2006 2741 1831 2477 
Q 1656 2213 1656 1722 
L 1656 0 
L 531 0 
L 531 3500 
L 1656 3500 
L 1656 2988 
Q 1863 3284 2130 3434 
Q 2397 3584 2719 3584 
Q 3081 3584 3359 3409 
Q 3638 3234 3781 2919 
z
" transform="scale(0.015625)"/>
     <path id="DejaVuSans-Bold-57" d="M 191 4666 
L 1344 4666 
L 2150 1275 
L 2950 4666 
L 4109 4666 
L 4909 1275 
L 5716 4666 
L 6859 4666 
L 5759 0 
L 4372 0 
L 3525 3547 
L 2688 0 
L 1300 0 
L 191 4666 
z
" transform="scale(0.015625)"/>
     <path id="DejaVuSans-Bold-6c" d="M 538 4863 
L 1656 4863 
L 1656 0 
L 538 0 
L 538 4863 
z
" transform="scale(0.015625)"/>
     <path id="DejaVuSans-Bold-66" d="M 2841 4863 
L 2841 4128 
L 2222 4128 
Q 1984 4128 1890 4042 
Q 1797 3956 1797 3744 
L 1797 3500 
L 2753 3500 
L 2753 2700 
L 1797 2700 
L 1797 0 
L 678 0 
L 678 2700 
L 122 2700 
L 122 3500 
L 678 3500 
L 678 3744 
Q 678 4316 997 4589 
Q 1316 4863 1984 4863 
L 2841 4863 
z
" transform="scale(0.015625)"/>
     <path id="DejaVuSans-Bold-61" d="M 2106 1575 
Q 1756 1575 1579 1456 
Q 1403 1338 1403 1106 
Q 1403 894 1545 773 
Q 1688 653 1941 653 
Q 2256 653 2472 879 
Q 2688 1106 2688 1447 
L 2688 1575 
L 2106 1575 
z
M 3816 1997 
L 3816 0 
L 2688 0 
L 2688 519 
Q 2463 200 2181 54 
Q 1900 -91 1497 -91 
Q 953 -91 614 226 
Q 275 544 275 1050 
Q 275 1666 698 1953 
Q 1122 2241 2028 2241 
L 2688 2241 
L 2688 2328 
Q 2688 2594 2478 2717 
Q 2269 2841 1825 2841 
Q 1466 2841 1156 2769 
Q 847 2697 581 2553 
L 581 3406 
Q 941 3494 1303 3539 
Q 1666 3584 2028 3584 
Q 2975 3584 3395 3211 
Q 3816 2838 3816 1997 
z
" transform="scale(0.015625)"/>
     <path id="DejaVuSans-Bold-72" d="M 3138 2547 
Q 2991 2616 2845 2648 
Q 2700 2681 2553 2681 
Q 2122 2681 1889 2404 
Q 1656 2128 1656 1613 
L 1656 0 
L 538 0 
L 538 3500 
L 1656 3500 
L 1656 2925 
Q 1872 3269 2151 3426 
Q 2431 3584 2822 3584 
Q 2878 3584 2943 3579 
Q 3009 3575 3134 3559 
L 3138 2547 
z
" transform="scale(0.015625)"/>
     <path id="DejaVuSans-Bold-62" d="M 2400 722 
Q 2759 722 2948 984 
Q 3138 1247 3138 1747 
Q 3138 2247 2948 2509 
Q 2759 2772 2400 2772 
Q 2041 2772 1848 2508 
Q 1656 2244 1656 1747 
Q 1656 1250 1848 986 
Q 2041 722 2400 722 
z
M 1656 2988 
Q 1888 3294 2169 3439 
Q 2450 3584 2816 3584 
Q 3463 3584 3878 3070 
Q 4294 2556 4294 1747 
Q 4294 938 3878 423 
Q 3463 -91 2816 -91 
Q 2450 -91 2169 54 
Q 1888 200 1656 506 
L 1656 0 
L 538 0 
L 538 4863 
L 1656 4863 
L 1656 2988 
z
" transform="scale(0.015625)"/>
     <path id="DejaVuSans-Bold-79" d="M 78 3500 
L 1197 3500 
L 2138 1125 
L 2938 3500 
L 4056 3500 
L 2584 -331 
Q 2363 -916 2067 -1148 
Q 1772 -1381 1288 -1381 
L 641 -1381 
L 641 -647 
L 991 -647 
Q 1275 -647 1404 -556 
Q 1534 -466 1606 -231 
L 1638 -134 
L 78 3500 
z
" transform="scale(0.015625)"/>
     <path id="DejaVuSans-Bold-47" d="M 4781 347 
Q 4331 128 3847 18 
Q 3363 -91 2847 -91 
Q 1681 -91 1000 561 
Q 319 1213 319 2328 
Q 319 3456 1012 4103 
Q 1706 4750 2913 4750 
Q 3378 4750 3804 4662 
Q 4231 4575 4609 4403 
L 4609 3438 
Q 4219 3659 3833 3768 
Q 3447 3878 3059 3878 
Q 2341 3878 1952 3476 
Q 1563 3075 1563 2328 
Q 1563 1588 1938 1184 
Q 2313 781 3003 781 
Q 3191 781 3352 804 
Q 3513 828 3641 878 
L 3641 1784 
L 2906 1784 
L 2906 2591 
L 4781 2591 
L 4781 347 
z
" transform="scale(0.015625)"/>
    </defs>
    <use xlink:href="#DejaVuSans-Bold-53"/>
    <use xlink:href="#DejaVuSans-Bold-74" transform="translate(72.021484 0)"/>
    <use xlink:href="#DejaVuSans-Bold-65" transform="translate(119.824219 0)"/>
    <use xlink:href="#DejaVuSans-Bold-70" transform="translate(187.646484 0)"/>
    <use xlink:href="#DejaVuSans-Bold-20" transform="translate(259.228516 0)"/>
    <use xlink:href="#DejaVuSans-Bold-43" transform="translate(294.042969 0)"/>
    <use xlink:href="#DejaVuSans-Bold-3a" transform="translate(367.431641 0)"/>
    <use xlink:href="#DejaVuSans-Bold-20" transform="translate(407.421875 0)"/>
    <use xlink:href="#DejaVuSans-Bold-4c" transform="translate(442.236328 0)"/>
    <use xlink:href="#DejaVuSans-Bold-6f" transform="translate(505.957031 0)"/>
    <use xlink:href="#DejaVuSans-Bold-67" transform="translate(574.658203 0)"/>
    <use xlink:href="#DejaVuSans-Bold-73" transform="translate(646.240234 0)"/>
    <use xlink:href="#DejaVuSans-Bold-75" transform="translate(705.761719 0)"/>
    <use xlink:href="#DejaVuSans-Bold-6d" transform="translate(776.953125 0)"/>
    <use xlink:href="#DejaVuSans-Bold-20" transform="translate(881.152344 0)"/>
    <use xlink:href="#DejaVuSans-Bold-57" transform="translate(915.966797 0)"/>
    <use xlink:href="#DejaVuSans-Bold-65" transform="translate(1022.644531 0)"/>
    <use xlink:href="#DejaVuSans-Bold-6c" transform="translate(1090.466797 0)"/>
    <use xlink:href="#DejaVuSans-Bold-66" transform="translate(1124.744141 0)"/>
    <use xlink:href="#DejaVuSans-Bold-61" transform="translate(1168.25 0)"/>
    <use xlink:href="#DejaVuSans-Bold-72" transform="translate(1235.730469 0)"/>
    <use xlink:href="#DejaVuSans-Bold-65" transform="translate(1285.046875 0)"/>
    <use xlink:href="#DejaVuSans-Bold-20" transform="translate(1352.869141 0)"/>
    <use xlink:href="#DejaVuSans-Bold-62" transform="translate(1387.683594 0)"/>
    <use xlink:href="#DejaVuSans-Bold-79" transform="translate(1459.265625 0)"/>
    <use xlink:href="#DejaVuSans-Bold-20" transform="translate(1524.451172 0)"/>
    <use xlink:href="#DejaVuSans-Bold-47" transform="translate(1559.265625 0)"/>
    <use xlink:href="#DejaVuSans-Bold-72" transform="translate(1641.345703 0)"/>
    <use xlink:href="#DejaVuSans-Bold-6f" transform="translate(1690.662109 0)"/>
    <use xlink:href="#DejaVuSans-Bold-75" transform="translate(1759.363281 0)"/>
    <use xlink:href="#DejaVuSans-Bold-70" transform="translate(1830.554688 0)"/>
   </g>
  </g>
  <g id="text_2">
   <!-- MAIN model specification v2, §1.4 -->
   <g style="fill: #777777" transform="translate(10.8 55.317656) scale(0.15 -0.15)">
    <defs>
     <path id="DejaVuSans-4d" d="M 628 4666 
L 1569 4666 
L 2759 1491 
L 3956 4666 
L 4897 4666 
L 4897 0 
L 4281 0 
L 4281 4097 
L 3078 897 
L 2444 897 
L 1241 4097 
L 1241 0 
L 628 0 
L 628 4666 
z
" transform="scale(0.015625)"/>
     <path id="DejaVuSans-41" d="M 2188 4044 
L 1331 1722 
L 3047 1722 
L 2188 4044 
z
M 1831 4666 
L 2547 4666 
L 4325 0 
L 3669 0 
L 3244 1197 
L 1141 1197 
L 716 0 
L 50 0 
L 1831 4666 
z
" transform="scale(0.015625)"/>
     <path id="DejaVuSans-49" d="M 628 4666 
L 1259 4666 
L 1259 0 
L 628 0 
L 628 4666 
z
" transform="scale(0.015625)"/>
     <path id="DejaVuSans-4e" d="M 628 4666 
L 1478 4666 
L 3547 763 
L 3547 4666 
L 4159 4666 
L 4159 0 
L 3309 0 
L 1241 3903 
L 1241 0 
L 628 0 
L 628 4666 
z
" transform="scale(0.015625)"/>
     <path id="DejaVuSans-20" transform="scale(0.015625)"/>
     <path id="DejaVuSans-6d" d="M 3328 2828 
Q 3544 3216 3844 3400 
Q 4144 3584 4550 3584 
Q 5097 3584 5394 3201 
Q 5691 2819 5691 2113 
L 5691 0 
L 5113 0 
L 5113 2094 
Q 5113 2597 4934 2840 
Q 4756 3084 4391 3084 
Q 3944 3084 3684 2787 
Q 3425 2491 3425 1978 
L 3425 0 
L 2847 0 
L 2847 2094 
Q 2847 2600 2669 2842 
Q 2491 3084 2119 3084 
Q 1678 3084 1418 2786 
Q 1159 2488 1159 1978 
L 1159 0 
L 581 0 
L 581 3500 
L 1159 3500 
L 1159 2956 
Q 1356 3278 1631 3431 
Q 1906 3584 2284 3584 
Q 2666 3584 2933 3390 
Q 3200 3197 3328 2828 
z
" transform="scale(0.015625)"/>
     <path id="DejaVuSans-6f" d="M 1959 3097 
Q 1497 3097 1228 2736 
Q 959 2375 959 1747 
Q 959 1119 1226 758 
Q 1494 397 1959 397 
Q 2419 397 2687 759 
Q 2956 1122 2956 1747 
Q 2956 2369 2687 2733 
Q 2419 3097 1959 3097 
z
M 1959 3584 
Q 2709 3584 3137 3096 
Q 3566 2609 3566 1747 
Q 3566 888 3137 398 
Q 2709 -91 1959 -91 
Q 1206 -91 779 398 
Q 353 888 353 1747 
Q 353 2609 779 3096 
Q 1206 3584 1959 3584 
z
" transform="scale(0.015625)"/>
     <path id="DejaVuSans-64" d="M 2906 2969 
L 2906 4863 
L 3481 4863 
L 3481 0 
L 2906 0 
L 2906 525 
Q 2725 213 2448 61 
Q 2172 -91 1784 -91 
Q 1150 -91 751 415 
Q 353 922 353 1747 
Q 353 2572 751 3078 
Q 1150 3584 1784 3584 
Q 2172 3584 2448 3432 
Q 2725 3281 2906 2969 
z
M 947 1747 
Q 947 1113 1208 752 
Q 1469 391 1925 391 
Q 2381 391 2643 752 
Q 2906 1113 2906 1747 
Q 2906 2381 2643 2742 
Q 2381 3103 1925 3103 
Q 1469 3103 1208 2742 
Q 947 2381 947 1747 
z
" transform="scale(0.015625)"/>
     <path id="DejaVuSans-65" d="M 3597 1894 
L 3597 1613 
L 953 1613 
Q 991 1019 1311 708 
Q 1631 397 2203 397 
Q 2534 397 2845 478 
Q 3156 559 3463 722 
L 3463 178 
Q 3153 47 2828 -22 
Q 2503 -91 2169 -91 
Q 1331 -91 842 396 
Q 353 884 353 1716 
Q 353 2575 817 3079 
Q 1281 3584 2069 3584 
Q 2775 3584 3186 3129 
Q 3597 2675 3597 1894 
z
M 3022 2063 
Q 3016 2534 2758 2815 
Q 2500 3097 2075 3097 
Q 1594 3097 1305 2825 
Q 1016 2553 972 2059 
L 3022 2063 
z
" transform="scale(0.015625)"/>
     <path id="DejaVuSans-6c" d="M 603 4863 
L 1178 4863 
L 1178 0 
L 603 0 
L 603 4863 
z
" transform="scale(0.015625)"/>
     <path id="DejaVuSans-73" d="M 2834 3397 
L 2834 2853 
Q 2591 2978 2328 3040 
Q 2066 3103 1784 3103 
Q 1356 3103 1142 2972 
Q 928 2841 928 2578 
Q 928 2378 1081 2264 
Q 1234 2150 1697 2047 
L 1894 2003 
Q 2506 1872 2764 1633 
Q 3022 1394 3022 966 
Q 3022 478 2636 193 
Q 2250 -91 1575 -91 
Q 1294 -91 989 -36 
Q 684 19 347 128 
L 347 722 
Q 666 556 975 473 
Q 1284 391 1588 391 
Q 1994 391 2212 530 
Q 2431 669 2431 922 
Q 2431 1156 2273 1281 
Q 2116 1406 1581 1522 
L 1381 1569 
Q 847 1681 609 1914 
Q 372 2147 372 2553 
Q 372 3047 722 3315 
Q 1072 3584 1716 3584 
Q 2034 3584 2315 3537 
Q 2597 3491 2834 3397 
z
" transform="scale(0.015625)"/>
     <path id="DejaVuSans-70" d="M 1159 525 
L 1159 -1331 
L 581 -1331 
L 581 3500 
L 1159 3500 
L 1159 2969 
Q 1341 3281 1617 3432 
Q 1894 3584 2278 3584 
Q 2916 3584 3314 3078 
Q 3713 2572 3713 1747 
Q 3713 922 3314 415 
Q 2916 -91 2278 -91 
Q 1894 -91 1617 61 
Q 1341 213 1159 525 
z
M 3116 1747 
Q 3116 2381 2855 2742 
Q 2594 3103 2138 3103 
Q 1681 3103 1420 2742 
Q 1159 2381 1159 1747 
Q 1159 1113 1420 752 
Q 1681 391 2138 391 
Q 2594 391 2855 752 
Q 3116 1113 3116 1747 
z
" transform="scale(0.015625)"/>
     <path id="DejaVuSans-63" d="M 3122 3366 
L 3122 2828 
Q 2878 2963 2633 3030 
Q 2388 3097 2138 3097 
Q 1578 3097 1268 2742 
Q 959 2388 959 1747 
Q 959 1106 1268 751 
Q 1578 397 2138 397 
Q 2388 397 2633 464 
Q 2878 531 3122 666 
L 3122 134 
Q 2881 22 2623 -34 
Q 2366 -91 2075 -91 
Q 1284 -91 818 406 
Q 353 903 353 1747 
Q 353 2603 823 3093 
Q 1294 3584 2113 3584 
Q 2378 3584 2631 3529 
Q 2884 3475 3122 3366 
z
" transform="scale(0.015625)"/>
     <path id="DejaVuSans-69" d="M 603 3500 
L 1178 3500 
L 1178 0 
L 603 0 
L 603 3500 
z
M 603 4863 
L 1178 4863 
L 1178 4134 
L 603 4134 
L 603 4863 
z
" transform="scale(0.015625)"/>
     <path id="DejaVuSans-66" d="M 2375 4863 
L 2375 4384 
L 1825 4384 
Q 1516 4384 1395 4259 
Q 1275 4134 1275 3809 
L 1275 3500 
L 2222 3500 
L 2222 3053 
L 1275 3053 
L 1275 0 
L 697 0 
L 697 3053 
L 147 3053 
L 147 3500 
L 697 3500 
L 697 3744 
Q 697 4328 969 4595 
Q 1241 4863 1831 4863 
L 2375 4863 
z
" transform="scale(0.015625)"/>
     <path id="DejaVuSans-61" d="M 2194 1759 
Q 1497 1759 1228 1600 
Q 959 1441 959 1056 
Q 959 750 1161 570 
Q 1363 391 1709 391 
Q 2188 391 2477 730 
Q 2766 1069 2766 1631 
L 2766 1759 
L 2194 1759 
z
M 3341 1997 
L 3341 0 
L 2766 0 
L 2766 531 
Q 2569 213 2275 61 
Q 1981 -91 1556 -91 
Q 1019 -91 701 211 
Q 384 513 384 1019 
Q 384 1609 779 1909 
Q 1175 2209 1959 2209 
L 2766 2209 
L 2766 2266 
Q 2766 2663 2505 2880 
Q 2244 3097 1772 3097 
Q 1472 3097 1187 3025 
Q 903 2953 641 2809 
L 641 3341 
Q 956 3463 1253 3523 
Q 1550 3584 1831 3584 
Q 2591 3584 2966 3190 
Q 3341 2797 3341 1997 
z
" transform="scale(0.015625)"/>
     <path id="DejaVuSans-74" d="M 1172 4494 
L 1172 3500 
L 2356 3500 
L 2356 3053 
L 1172 3053 
L 1172 1153 
Q 1172 725 1289 603 
Q 1406 481 1766 481 
L 2356 481 
L 2356 0 
L 1766 0 
Q 1100 0 847 248 
Q 594 497 594 1153 
L 594 3053 
L 172 3053 
L 172 3500 
L 594 3500 
L 594 4494 
L 1172 4494 
z
" transform="scale(0.015625)"/>
     <path id="DejaVuSans-6e" d="M 3513 2113 
L 3513 0 
L 2938 0 
L 2938 2094 
Q 2938 2591 2744 2837 
Q 2550 3084 2163 3084 
Q 1697 3084 1428 2787 
Q 1159 2491 1159 1978 
L 1159 0 
L 581 0 
L 581 3500 
L 1159 3500 
L 1159 2956 
Q 1366 3272 1645 3428 
Q 1925 3584 2291 3584 
Q 2894 3584 3203 3211 
Q 3513 2838 3513 2113 
z
" transform="scale(0.015625)"/>
     <path id="DejaVuSans-76" d="M 191 3500 
L 800 3500 
L 1894 563 
L 2988 3500 
L 3597 3500 
L 2284 0 
L 1503 0 
L 191 3500 
z
" transform="scale(0.015625)"/>
     <path id="DejaVuSans-32" d="M 1228 531 
L 3431 531 
L 3431 0 
L 469 0 
L 469 531 
Q 828 903 1448 1529 
Q 2069 2156 2228 2338 
Q 2531 2678 2651 2914 
Q 2772 3150 2772 3378 
Q 2772 3750 2511 3984 
Q 2250 4219 1831 4219 
Q 1534 4219 1204 4116 
Q 875 4013 500 3803 
L 500 4441 
Q 881 4594 1212 4672 
Q 1544 4750 1819 4750 
Q 2544 4750 2975 4387 
Q 3406 4025 3406 3419 
Q 3406 3131 3298 2873 
Q 3191 2616 2906 2266 
Q 2828 2175 2409 1742 
Q 1991 1309 1228 531 
z
" transform="scale(0.015625)"/>
     <path id="DejaVuSans-2c" d="M 750 794 
L 1409 794 
L 1409 256 
L 897 -744 
L 494 -744 
L 750 256 
L 750 794 
z
" transform="scale(0.015625)"/>
     <path id="DejaVuSans-a7" d="M 1184 2925 
Q 988 2781 891 2640 
Q 794 2500 794 2356 
Q 794 2119 1011 1911 
Q 1228 1703 2009 1281 
Q 2206 1422 2303 1564 
Q 2400 1706 2400 1850 
Q 2400 2084 2176 2296 
Q 1953 2509 1184 2925 
z
M 2591 4569 
L 2591 4056 
Q 2331 4178 2107 4239 
Q 1884 4300 1709 4300 
Q 1406 4300 1237 4175 
Q 1069 4050 1069 3828 
Q 1069 3547 1713 3188 
Q 1794 3141 1838 3116 
Q 2497 2744 2701 2503 
Q 2906 2263 2906 1947 
Q 2906 1666 2762 1447 
Q 2619 1228 2328 1063 
Q 2522 900 2611 729 
Q 2700 559 2700 359 
Q 2700 -84 2381 -346 
Q 2063 -609 1522 -609 
Q 1294 -609 1053 -564 
Q 813 -519 538 -428 
L 538 84 
Q 809 -38 1040 -98 
Q 1272 -159 1453 -159 
Q 1772 -159 1948 -28 
Q 2125 103 2125 341 
Q 2125 659 1434 1044 
L 1356 1088 
Q 688 1463 488 1702 
Q 288 1941 288 2259 
Q 288 2544 433 2767 
Q 578 2991 863 3144 
Q 678 3281 586 3456 
Q 494 3631 494 3847 
Q 494 4253 806 4501 
Q 1119 4750 1638 4750 
Q 1866 4750 2105 4704 
Q 2344 4659 2591 4569 
z
" transform="scale(0.015625)"/>
     <path id="DejaVuSans-31" d="M 794 531 
L 1825 531 
L 1825 4091 
L 703 3866 
L 703 4441 
L 1819 4666 
L 2450 4666 
L 2450 531 
L 3481 531 
L 3481 0 
L 794 0 
L 794 531 
z
" transform="scale(0.015625)"/>
     <path id="DejaVuSans-2e" d="M 684 794 
L 1344 794 
L 1344 0 
L 684 0 
L 684 794 
z
" transform="scale(0.015625)"/>
     <path id="DejaVuSans-34" d="M 2419 4116 
L 825 1625 
L 2419 1625 
L 2419 4116 
z
M 2253 4666 
L 3047 4666 
L 3047 1625 
L 3713 1625 
L 3713 1100 
L 3047 1100 
L 3047 0 
L 2419 0 
L 2419 1100 
L 313 1100 
L 313 1709 
L 2253 4666 
z
" transform="scale(0.015625)"/>
    </defs>
    <use xlink:href="#DejaVuSans-4d"/>
    <use xlink:href="#DejaVuSans-41" transform="translate(86.279297 0)"/>
    <use xlink:href="#DejaVuSans-49" transform="translate(154.6875 0)"/>
    <use xlink:href="#DejaVuSans-4e" transform="translate(184.179688 0)"/>
    <use xlink:href="#DejaVuSans-20" transform="translate(258.984375 0)"/>
    <use xlink:href="#DejaVuSans-6d" transform="translate(290.771484 0)"/>
    <use xlink:href="#DejaVuSans-6f" transform="translate(388.183594 0)"/>
    <use xlink:href="#DejaVuSans-64" transform="translate(449.365234 0)"/>
    <use xlink:href="#DejaVuSans-65" transform="translate(512.841797 0)"/>
    <use xlink:href="#DejaVuSans-6c" transform="translate(574.365234 0)"/>
    <use xlink:href="#DejaVuSans-20" transform="translate(602.148438 0)"/>
    <use xlink:href="#DejaVuSans-73" transform="translate(633.935547 0)"/>
    <use xlink:href="#DejaVuSans-70" transform="translate(686.035156 0)"/>
    <use xlink:href="#DejaVuSans-65" transform="translate(749.511719 0)"/>
    <use xlink:href="#DejaVuSans-63" transform="translate(811.035156 0)"/>
    <use xlink:href="#DejaVuSans-69" transform="translate(866.015625 0)"/>
    <use xlink:href="#DejaVuSans-66" transform="translate(893.798828 0)"/>
    <use xlink:href="#DejaVuSans-69" transform="translate(929.003906 0)"/>
    <use xlink:href="#DejaVuSans-63" transform="translate(956.787109 0)"/>
    <use xlink:href="#DejaVuSans-61" transform="translate(1011.767578 0)"/>
    <use xlink:href="#DejaVuSans-74" transform="translate(1073.046875 0)"/>
    <use xlink:href="#DejaVuSans-69" transform="translate(1112.255859 0)"/>
    <use xlink:href="#DejaVuSans-6f" transform="translate(1140.039062 0)"/>
    <use xlink:href="#DejaVuSans-6e" transform="translate(1201.220703 0)"/>
    <use xlink:href="#DejaVuSans-20" transform="translate(1264.599609 0)"/>
    <use xlink:href="#DejaVuSans-76" transform="translate(1296.386719 0)"/>
    <use xlink:href="#DejaVuSans-32" transform="translate(1355.566406 0)"/>
    <use xlink:href="#DejaVuSans-2c" transform="translate(1419.189453 0)"/>
    <use xlink:href="#DejaVuSans-20" transform="translate(1450.976562 0)"/>
    <use xlink:href="#DejaVuSans-a7" transform="translate(1482.763672 0)"/>
    <use xlink:href="#DejaVuSans-31" transform="translate(1532.763672 0)"/>
    <use xlink:href="#DejaVuSans-2e" transform="translate(1596.386719 0)"/>
    <use xlink:href="#DejaVuSans-34" transform="translate(1628.173828 0)"/>
   </g>
  </g>
  <g id="text_3">
   <!-- $L_i^{\mathrm{pre}} = \ln\!\sum_{k=1}^{J}\; \exp\!\left(V_{ik}^{\mathrm{pre}}\right), \qquad L_i^{\mathrm{post}} = \ln\!\sum_{k=1}^{J}\; \exp\!\left(V_{ik}^{\mathrm{post}}\right)$ -->
   <g style="fill: #222222" transform="translate(32.4 149.2) scale(0.34 -0.34)">
    <defs>
     <path id="Cmmi10-4c" d="M 300 0 
Q 238 0 238 84 
Q 241 100 250 139 
Q 259 178 276 201 
Q 294 225 319 225 
Q 709 225 863 269 
Q 947 297 984 441 
L 1863 3956 
Q 1875 4019 1875 4044 
Q 1875 4113 1797 4122 
Q 1678 4147 1338 4147 
Q 1275 4147 1275 4231 
Q 1297 4313 1309 4342 
Q 1322 4372 1381 4372 
L 3272 4372 
Q 3328 4372 3328 4288 
Q 3319 4222 3306 4184 
Q 3294 4147 3244 4147 
Q 2772 4147 2613 4116 
Q 2456 4088 2419 3928 
L 1544 416 
Q 1516 338 1516 275 
Q 1516 225 1734 225 
L 2328 225 
Q 2831 225 3143 425 
Q 3456 625 3606 876 
Q 3756 1128 3857 1398 
Q 3959 1669 4006 1678 
L 4063 1678 
Q 4128 1678 4128 1594 
L 3559 44 
Q 3550 0 3500 0 
L 300 0 
z
" transform="scale(0.015625)"/>
     <path id="Cmr10-70" d="M 166 -1241 
L 166 -1019 
Q 384 -1019 525 -981 
Q 666 -944 666 -813 
L 666 2272 
Q 666 2447 541 2490 
Q 416 2534 166 2534 
L 166 2759 
L 1113 2828 
L 1113 2431 
Q 1288 2625 1520 2726 
Q 1753 2828 2016 2828 
Q 2394 2828 2697 2623 
Q 3000 2419 3170 2086 
Q 3341 1753 3341 1381 
Q 3341 994 3152 659 
Q 2963 325 2636 126 
Q 2309 -72 1919 -72 
Q 1453 -72 1131 306 
L 1131 -813 
Q 1131 -944 1273 -981 
Q 1416 -1019 1631 -1019 
L 1631 -1241 
L 166 -1241 
z
M 1131 622 
Q 1244 394 1444 245 
Q 1644 97 1881 97 
Q 2103 97 2273 215 
Q 2444 334 2559 534 
Q 2675 734 2729 954 
Q 2784 1175 2784 1381 
Q 2784 1638 2692 1936 
Q 2600 2234 2411 2439 
Q 2222 2644 1953 2644 
Q 1694 2644 1476 2511 
Q 1259 2378 1131 2150 
L 1131 622 
z
" transform="scale(0.015625)"/>
     <path id="Cmr10-72" d="M 166 0 
L 166 225 
Q 384 225 525 259 
Q 666 294 666 428 
L 666 2175 
Q 666 2347 614 2423 
Q 563 2500 466 2517 
Q 369 2534 166 2534 
L 166 2759 
L 1081 2828 
L 1081 2203 
Q 1184 2481 1375 2654 
Q 1566 2828 1838 2828 
Q 2028 2828 2178 2715 
Q 2328 2603 2328 2419 
Q 2328 2303 2245 2217 
Q 2163 2131 2041 2131 
Q 1922 2131 1837 2215 
Q 1753 2300 1753 2419 
Q 1753 2591 1875 2663 
L 1838 2663 
Q 1578 2663 1414 2475 
Q 1250 2288 1181 2009 
Q 1113 1731 1113 1478 
L 1113 428 
Q 1113 225 1734 225 
L 1734 0 
L 166 0 
z
" transform="scale(0.015625)"/>
     <path id="Cmr10-65" d="M 1594 -72 
Q 1203 -72 876 133 
Q 550 338 364 680 
Q 178 1022 178 1403 
Q 178 1778 348 2115 
Q 519 2453 823 2661 
Q 1128 2869 1503 2869 
Q 1797 2869 2014 2770 
Q 2231 2672 2372 2497 
Q 2513 2322 2584 2084 
Q 2656 1847 2656 1563 
Q 2656 1478 2591 1478 
L 738 1478 
L 738 1409 
Q 738 878 952 497 
Q 1166 116 1650 116 
Q 1847 116 2014 203 
Q 2181 291 2304 447 
Q 2428 603 2472 781 
Q 2478 803 2495 820 
Q 2513 838 2534 838 
L 2591 838 
Q 2656 838 2656 756 
Q 2566 394 2266 161 
Q 1966 -72 1594 -72 
z
M 744 1638 
L 2203 1638 
Q 2203 1878 2136 2125 
Q 2069 2372 1912 2536 
Q 1756 2700 1503 2700 
Q 1141 2700 942 2361 
Q 744 2022 744 1638 
z
" transform="scale(0.015625)"/>
     <path id="Cmmi10-69" d="M 500 459 
Q 500 578 550 709 
L 1069 2088 
Q 1153 2322 1153 2472 
Q 1153 2663 1013 2663 
Q 759 2663 595 2402 
Q 431 2141 353 1819 
Q 341 1778 300 1778 
L 225 1778 
Q 172 1778 172 1838 
L 172 1856 
Q 275 2238 487 2533 
Q 700 2828 1025 2828 
Q 1253 2828 1411 2678 
Q 1569 2528 1569 2297 
Q 1569 2178 1516 2047 
L 997 672 
Q 909 459 909 288 
Q 909 97 1056 97 
Q 1306 97 1473 364 
Q 1641 631 1709 941 
Q 1722 978 1759 978 
L 1838 978 
Q 1863 978 1878 961 
Q 1894 944 1894 922 
Q 1894 916 1888 903 
Q 1800 541 1583 234 
Q 1366 -72 1044 -72 
Q 819 -72 659 83 
Q 500 238 500 459 
z
M 1222 3878 
Q 1222 4013 1334 4122 
Q 1447 4231 1581 4231 
Q 1691 4231 1761 4164 
Q 1831 4097 1831 3994 
Q 1831 3850 1717 3742 
Q 1603 3634 1466 3634 
Q 1363 3634 1292 3704 
Q 1222 3775 1222 3878 
z
" transform="scale(0.015625)"/>
     <path id="Cmr10-3d" d="M 481 850 
Q 428 850 393 890 
Q 359 931 359 978 
Q 359 1031 393 1068 
Q 428 1106 481 1106 
L 4500 1106 
Q 4547 1106 4581 1068 
Q 4616 1031 4616 978 
Q 4616 931 4581 890 
Q 4547 850 4500 850 
L 481 850 
z
M 481 2094 
Q 428 2094 393 2131 
Q 359 2169 359 2222 
Q 359 2269 393 2309 
Q 428 2350 481 2350 
L 4500 2350 
Q 4547 2350 4581 2309 
Q 4616 2269 4616 2222 
Q 4616 2169 4581 2131 
Q 4547 2094 4500 2094 
L 481 2094 
z
" transform="scale(0.015625)"/>
     <path id="Cmr10-6c" d="M 197 0 
L 197 225 
Q 416 225 556 259 
Q 697 294 697 428 
L 697 3788 
Q 697 3959 645 4036 
Q 594 4113 497 4130 
Q 400 4147 197 4147 
L 197 4372 
L 1147 4441 
L 1147 428 
Q 1147 294 1287 259 
Q 1428 225 1644 225 
L 1644 0 
L 197 0 
z
" transform="scale(0.015625)"/>
     <path id="Cmr10-6e" d="M 191 0 
L 191 225 
Q 409 225 550 259 
Q 691 294 691 428 
L 691 2175 
Q 691 2347 639 2423 
Q 588 2500 491 2517 
Q 394 2534 191 2534 
L 191 2759 
L 1119 2828 
L 1119 2203 
Q 1247 2478 1498 2653 
Q 1750 2828 2047 2828 
Q 2491 2828 2714 2615 
Q 2938 2403 2938 1966 
L 2938 428 
Q 2938 294 3078 259 
Q 3219 225 3438 225 
L 3438 0 
L 1972 0 
L 1972 225 
Q 2191 225 2331 259 
Q 2472 294 2472 428 
L 2472 1947 
Q 2472 2259 2381 2461 
Q 2291 2663 2009 2663 
Q 1638 2663 1398 2366 
Q 1159 2069 1159 1691 
L 1159 428 
Q 1159 294 1300 259 
Q 1441 225 1656 225 
L 1656 0 
L 191 0 
z
" transform="scale(0.015625)"/>
     <path id="Cmmi10-4a" d="M 697 384 
Q 759 206 928 115 
Q 1097 25 1294 25 
Q 1494 25 1680 164 
Q 1866 303 1995 512 
Q 2125 722 2175 928 
L 2931 3956 
Q 2938 3981 2939 3993 
Q 2941 4006 2944 4019 
Q 2944 4088 2894 4103 
Q 2725 4147 2209 4147 
Q 2144 4147 2144 4231 
Q 2156 4281 2164 4309 
Q 2172 4338 2192 4355 
Q 2213 4372 2253 4372 
L 3988 4372 
Q 4050 4372 4050 4288 
Q 4025 4147 3969 4147 
Q 3744 4147 3628 4112 
Q 3513 4078 3469 3928 
L 2713 903 
Q 2641 606 2420 367 
Q 2200 128 1897 -6 
Q 1594 -141 1288 -141 
Q 950 -141 695 46 
Q 441 234 441 556 
Q 441 769 556 922 
Q 672 1075 884 1075 
Q 1006 1075 1089 1000 
Q 1172 925 1172 806 
Q 1172 634 1044 506 
Q 916 378 744 378 
Q 709 378 697 384 
z
" transform="scale(0.015625)"/>
     <path id="Cmex10-58" d="M 422 -8959 
Q 359 -8959 359 -8891 
Q 359 -8863 378 -8844 
L 3756 -4909 
L 378 -281 
Q 359 -263 359 -250 
L 359 -56 
Q 359 -34 379 -17 
Q 400 0 422 0 
L 8103 0 
L 8878 -1797 
L 8691 -1797 
Q 8394 -1116 7697 -787 
Q 7000 -459 6242 -382 
Q 5484 -306 4481 -306 
L 1522 -306 
L 4544 -4434 
Q 4556 -4459 4556 -4481 
Q 4556 -4500 4544 -4525 
L 1222 -8391 
L 4544 -8391 
Q 5528 -8391 6289 -8314 
Q 7050 -8238 7739 -7908 
Q 8428 -7578 8691 -6900 
L 8878 -6900 
L 8103 -8959 
L 422 -8959 
z
" transform="scale(0.015625)"/>
     <path id="Cmmi10-6b" d="M 341 116 
Q 341 153 347 172 
L 1275 3872 
Q 1300 3981 1306 4044 
Q 1306 4147 891 4147 
Q 825 4147 825 4231 
Q 828 4247 839 4287 
Q 850 4328 867 4350 
Q 884 4372 916 4372 
L 1778 4441 
L 1797 4441 
Q 1797 4434 1819 4423 
Q 1841 4413 1844 4409 
Q 1856 4378 1856 4359 
L 1184 1684 
Q 1416 1781 1767 2145 
Q 2119 2509 2317 2668 
Q 2516 2828 2816 2828 
Q 2994 2828 3119 2706 
Q 3244 2584 3244 2406 
Q 3244 2294 3197 2198 
Q 3150 2103 3065 2043 
Q 2981 1984 2869 1984 
Q 2766 1984 2695 2048 
Q 2625 2113 2625 2216 
Q 2625 2369 2733 2473 
Q 2841 2578 2994 2578 
Q 2931 2663 2803 2663 
Q 2613 2663 2436 2553 
Q 2259 2444 2054 2239 
Q 1850 2034 1681 1864 
Q 1513 1694 1369 1606 
Q 1747 1563 2025 1408 
Q 2303 1253 2303 934 
Q 2303 869 2278 769 
Q 2222 528 2222 384 
Q 2222 97 2419 97 
Q 2650 97 2770 350 
Q 2891 603 2969 941 
Q 2981 978 3022 978 
L 3097 978 
Q 3122 978 3139 962 
Q 3156 947 3156 922 
Q 3156 916 3150 903 
Q 2909 -72 2406 -72 
Q 2225 -72 2086 12 
Q 1947 97 1872 242 
Q 1797 388 1797 569 
Q 1797 672 1825 781 
Q 1844 856 1844 922 
Q 1844 1169 1625 1297 
Q 1406 1425 1125 1453 
L 800 147 
Q 775 50 703 -11 
Q 631 -72 538 -72 
Q 456 -72 398 -17 
Q 341 38 341 116 
z
" transform="scale(0.015625)"/>
     <path id="Cmr10-31" d="M 594 0 
L 594 225 
Q 1394 225 1394 428 
L 1394 3788 
Q 1063 3628 556 3628 
L 556 3853 
Q 1341 3853 1741 4263 
L 1831 4263 
Q 1853 4263 1873 4245 
Q 1894 4228 1894 4206 
L 1894 428 
Q 1894 225 2694 225 
L 2694 0 
L 594 0 
z
" transform="scale(0.015625)"/>
     <path id="Cmr10-78" d="M 78 0 
L 78 225 
Q 322 225 537 320 
Q 753 416 903 603 
L 1484 1344 
L 728 2328 
Q 616 2469 483 2501 
Q 350 2534 109 2534 
L 109 2759 
L 1441 2759 
L 1441 2534 
Q 1356 2534 1282 2496 
Q 1209 2459 1209 2388 
Q 1209 2363 1228 2328 
L 1741 1663 
L 2125 2156 
Q 2203 2250 2203 2344 
Q 2203 2422 2151 2478 
Q 2100 2534 2016 2534 
L 2016 2759 
L 3194 2759 
L 3194 2534 
Q 2947 2534 2730 2439 
Q 2513 2344 2363 2156 
L 1856 1509 
L 2675 428 
Q 2797 288 2928 256 
Q 3059 225 3303 225 
L 3303 0 
L 1972 0 
L 1972 225 
Q 2050 225 2122 262 
Q 2194 300 2194 372 
Q 2194 400 2175 428 
L 1600 1191 
L 1141 603 
Q 1069 522 1069 416 
Q 1069 338 1122 281 
Q 1175 225 1247 225 
L 1247 0 
L 78 0 
z
" transform="scale(0.015625)"/>
     <path id="Cmr10-28" d="M 1984 -1588 
Q 1628 -1306 1370 -942 
Q 1113 -578 948 -165 
Q 784 247 703 697 
Q 622 1147 622 1600 
Q 622 2059 703 2509 
Q 784 2959 951 3375 
Q 1119 3791 1378 4153 
Q 1638 4516 1984 4788 
Q 1984 4800 2016 4800 
L 2075 4800 
Q 2094 4800 2109 4783 
Q 2125 4766 2125 4744 
Q 2125 4716 2113 4703 
Q 1800 4397 1592 4047 
Q 1384 3697 1257 3301 
Q 1131 2906 1075 2482 
Q 1019 2059 1019 1600 
Q 1019 -434 2106 -1491 
Q 2125 -1509 2125 -1544 
Q 2125 -1559 2108 -1579 
Q 2091 -1600 2075 -1600 
L 2016 -1600 
Q 1984 -1600 1984 -1588 
z
" transform="scale(0.015625)"/>
     <path id="Cmmi10-56" d="M 1409 -72 
L 897 4006 
Q 850 4147 416 4147 
Q 353 4147 353 4231 
Q 366 4300 384 4336 
Q 403 4372 459 4372 
L 2022 4372 
Q 2056 4372 2072 4347 
Q 2088 4322 2088 4288 
Q 2063 4147 2003 4147 
Q 1503 4147 1472 3975 
L 1894 628 
L 3866 3775 
Q 3922 3881 3922 3944 
Q 3922 4056 3820 4101 
Q 3719 4147 3584 4147 
Q 3519 4147 3519 4231 
Q 3531 4281 3540 4309 
Q 3550 4338 3569 4355 
Q 3588 4372 3628 4372 
L 4863 4372 
Q 4922 4372 4922 4288 
Q 4897 4147 4838 4147 
Q 4356 4147 4084 3725 
Q 4072 3713 4063 3713 
L 1703 -72 
Q 1656 -141 1581 -141 
L 1491 -141 
Q 1419 -141 1409 -72 
z
" transform="scale(0.015625)"/>
     <path id="Cmr10-29" d="M 416 -1600 
Q 359 -1600 359 -1544 
Q 359 -1516 372 -1503 
Q 1466 -434 1466 1600 
Q 1466 3634 384 4691 
Q 359 4706 359 4744 
Q 359 4766 376 4783 
Q 394 4800 416 4800 
L 475 4800 
Q 494 4800 506 4788 
Q 966 4425 1272 3906 
Q 1578 3388 1720 2800 
Q 1863 2213 1863 1600 
Q 1863 1147 1786 708 
Q 1709 269 1542 -157 
Q 1375 -584 1119 -945 
Q 863 -1306 506 -1588 
Q 494 -1600 475 -1600 
L 416 -1600 
z
" transform="scale(0.015625)"/>
     <path id="Cmmi10-3b" d="M 634 -1153 
Q 634 -1125 659 -1100 
Q 891 -878 1019 -587 
Q 1147 -297 1147 25 
L 1147 103 
Q 1044 0 891 0 
Q 744 0 641 103 
Q 538 206 538 353 
Q 538 503 641 603 
Q 744 703 891 703 
Q 1119 703 1216 492 
Q 1313 281 1313 25 
Q 1313 -331 1170 -651 
Q 1028 -972 769 -1228 
Q 744 -1241 728 -1241 
Q 697 -1241 665 -1212 
Q 634 -1184 634 -1153 
z
" transform="scale(0.015625)"/>
     <path id="Cmr10-6f" d="M 1600 -72 
Q 1216 -72 887 123 
Q 559 319 368 647 
Q 178 975 178 1363 
Q 178 1656 283 1928 
Q 388 2200 583 2414 
Q 778 2628 1037 2748 
Q 1297 2869 1600 2869 
Q 1994 2869 2317 2661 
Q 2641 2453 2828 2104 
Q 3016 1756 3016 1363 
Q 3016 978 2825 648 
Q 2634 319 2307 123 
Q 1981 -72 1600 -72 
z
M 1600 116 
Q 2113 116 2284 487 
Q 2456 859 2456 1434 
Q 2456 1756 2422 1967 
Q 2388 2178 2272 2350 
Q 2200 2456 2089 2536 
Q 1978 2616 1854 2658 
Q 1731 2700 1600 2700 
Q 1400 2700 1220 2609 
Q 1041 2519 922 2350 
Q 803 2169 770 1951 
Q 738 1734 738 1434 
Q 738 1075 800 789 
Q 863 503 1052 309 
Q 1241 116 1600 116 
z
" transform="scale(0.015625)"/>
     <path id="Cmr10-73" d="M 213 -19 
L 213 1025 
Q 213 1075 269 1075 
L 347 1075 
Q 384 1075 397 1025 
Q 575 97 1259 97 
Q 1563 97 1767 234 
Q 1972 372 1972 659 
Q 1972 866 1812 1011 
Q 1653 1156 1434 1209 
L 1006 1294 
Q 791 1341 614 1437 
Q 438 1534 325 1695 
Q 213 1856 213 2069 
Q 213 2350 361 2529 
Q 509 2709 746 2789 
Q 984 2869 1259 2869 
Q 1588 2869 1831 2694 
L 2016 2853 
Q 2016 2869 2047 2869 
L 2094 2869 
Q 2113 2869 2128 2851 
Q 2144 2834 2144 2816 
L 2144 1978 
Q 2144 1919 2094 1919 
L 2016 1919 
Q 1959 1919 1959 1978 
Q 1959 2313 1773 2516 
Q 1588 2719 1253 2719 
Q 966 2719 755 2612 
Q 544 2506 544 2247 
Q 544 2069 695 1955 
Q 847 1841 1050 1791 
L 1484 1709 
Q 1703 1659 1892 1540 
Q 2081 1422 2192 1240 
Q 2303 1059 2303 831 
Q 2303 600 2223 429 
Q 2144 259 2001 146 
Q 1859 34 1665 -19 
Q 1472 -72 1259 -72 
Q 859 -72 575 197 
L 341 -56 
Q 341 -72 306 -72 
L 269 -72 
Q 213 -72 213 -19 
z
" transform="scale(0.015625)"/>
     <path id="Cmr10-74" d="M 653 769 
L 653 2534 
L 122 2534 
L 122 2700 
Q 541 2700 737 3090 
Q 934 3481 934 3938 
L 1119 3938 
L 1119 2759 
L 2022 2759 
L 2022 2534 
L 1119 2534 
L 1119 781 
Q 1119 516 1208 316 
Q 1297 116 1528 116 
Q 1747 116 1844 327 
Q 1941 538 1941 781 
L 1941 1159 
L 2125 1159 
L 2125 769 
Q 2125 569 2051 373 
Q 1978 178 1834 53 
Q 1691 -72 1484 -72 
Q 1100 -72 876 158 
Q 653 388 653 769 
z
" transform="scale(0.015625)"/>
     <path id="Cmex10-a1" d="M 2503 -7406 
Q 1713 -6744 1342 -5734 
Q 972 -4725 972 -3584 
Q 972 -2434 1342 -1423 
Q 1713 -413 2503 244 
Q 2503 256 2534 256 
L 2613 256 
Q 2631 256 2647 236 
Q 2663 216 2663 197 
Q 2663 172 2650 159 
Q 2303 -200 2067 -640 
Q 1831 -1081 1695 -1554 
Q 1559 -2028 1500 -2543 
Q 1441 -3059 1441 -3591 
Q 1441 -6072 2650 -7322 
Q 2663 -7334 2663 -7359 
Q 2663 -7378 2645 -7398 
Q 2628 -7419 2613 -7419 
L 2534 -7419 
Q 2503 -7419 2503 -7406 
z
" transform="scale(0.015625)"/>
     <path id="Cmex10-a2" d="M 319 -7419 
Q 263 -7419 263 -7359 
Q 263 -7334 275 -7322 
Q 734 -6844 1001 -6236 
Q 1269 -5628 1376 -4961 
Q 1484 -4294 1484 -3578 
Q 1484 -1091 275 159 
Q 263 172 263 197 
Q 263 256 319 256 
L 397 256 
Q 416 256 428 244 
Q 1216 -413 1584 -1423 
Q 1953 -2434 1953 -3584 
Q 1953 -4725 1586 -5734 
Q 1219 -6744 428 -7406 
Q 416 -7419 397 -7419 
L 319 -7419 
z
" transform="scale(0.015625)"/>
    </defs>
    <use xlink:href="#Cmmi10-4c" transform="translate(0 0.563542)"/>
    <use xlink:href="#Cmr10-70" transform="translate(79.387109 47.404167) scale(0.7)"/>
    <use xlink:href="#Cmr10-72" transform="translate(118.249414 47.404167) scale(0.7)"/>
    <use xlink:href="#Cmr10-65" transform="translate(145.627344 47.404167) scale(0.7)"/>
    <use xlink:href="#Cmmi10-69" transform="translate(68.017578 -24.945833) scale(0.7)"/>
    <use xlink:href="#Cmr10-3d" transform="translate(200.632617 0.563542)"/>
    <use xlink:href="#Cmr10-6c" transform="translate(295.876758 0.563542)"/>
    <use xlink:href="#Cmr10-6e" transform="translate(323.562305 0.563542)"/>
    <use xlink:href="#Cmmi10-4a" transform="translate(435.079883 124.18125) scale(0.7)"/>
    <use xlink:href="#Cmex10-58" transform="translate(388.079883 103.889062)"/>
    <use xlink:href="#Cmmi10-6b" transform="translate(379.079883 -103.41875) scale(0.7)"/>
    <use xlink:href="#Cmr10-3d" transform="translate(427.772266 -103.41875) scale(0.7)"/>
    <use xlink:href="#Cmr10-31" transform="translate(494.443164 -103.41875) scale(0.7)"/>
    <use xlink:href="#Cmr10-65" transform="translate(553.830295 0.563542)"/>
    <use xlink:href="#Cmr10-78" transform="translate(598.215061 0.563542)"/>
    <use xlink:href="#Cmr10-70" transform="translate(650.900607 0.563542)"/>
    <use xlink:href="#Cmr10-28" transform="translate(706.418186 0.969792) scale(1.068141)"/>
    <use xlink:href="#Cmmi10-56" transform="translate(747.881046 0.563542)"/>
    <use xlink:href="#Cmr10-70" transform="translate(817.551358 49.701042) scale(0.7)"/>
    <use xlink:href="#Cmr10-72" transform="translate(856.413663 49.701042) scale(0.7)"/>
    <use xlink:href="#Cmr10-65" transform="translate(883.791593 49.701042) scale(0.7)"/>
    <use xlink:href="#Cmmi10-69" transform="translate(806.181827 -24.945833) scale(0.7)"/>
    <use xlink:href="#Cmmi10-6b" transform="translate(830.278507 -24.945833) scale(0.7)"/>
    <use xlink:href="#Cmr10-29" transform="translate(921.238272 0.969792) scale(1.068141)"/>
    <use xlink:href="#Cmmi10-3b" transform="translate(962.701132 0.563542)"/>
    <use xlink:href="#Cmmi10-4c" transform="translate(1183.53121 0.563542)"/>
    <use xlink:href="#Cmr10-70" transform="translate(1262.91832 47.404167) scale(0.7)"/>
    <use xlink:href="#Cmr10-6f" transform="translate(1301.780625 47.404167) scale(0.7)"/>
    <use xlink:href="#Cmr10-73" transform="translate(1336.780625 47.404167) scale(0.7)"/>
    <use xlink:href="#Cmr10-74" transform="translate(1364.363632 47.404167) scale(0.7)"/>
    <use xlink:href="#Cmmi10-69" transform="translate(1251.548789 -24.945833) scale(0.7)"/>
    <use xlink:href="#Cmr10-3d" transform="translate(1415.472421 0.563542)"/>
    <use xlink:href="#Cmr10-6c" transform="translate(1510.716562 0.563542)"/>
    <use xlink:href="#Cmr10-6e" transform="translate(1538.402109 0.563542)"/>
    <use xlink:href="#Cmmi10-4a" transform="translate(1649.919687 124.18125) scale(0.7)"/>
    <use xlink:href="#Cmex10-58" transform="translate(1602.919687 103.889062)"/>
    <use xlink:href="#Cmmi10-6b" transform="translate(1593.919687 -103.41875) scale(0.7)"/>
    <use xlink:href="#Cmr10-3d" transform="translate(1642.61207 -103.41875) scale(0.7)"/>
    <use xlink:href="#Cmr10-31" transform="translate(1709.282968 -103.41875) scale(0.7)"/>
    <use xlink:href="#Cmr10-65" transform="translate(1768.670099 0.563542)"/>
    <use xlink:href="#Cmr10-78" transform="translate(1813.054865 0.563542)"/>
    <use xlink:href="#Cmr10-70" transform="translate(1865.740412 0.563542)"/>
    <use xlink:href="#Cmex10-a1" transform="translate(1921.25799 88.813542) scale(0.988195)"/>
    <use xlink:href="#Cmmi10-56" transform="translate(1966.514887 0.563542)"/>
    <use xlink:href="#Cmr10-70" transform="translate(2036.185199 49.701042) scale(0.7)"/>
    <use xlink:href="#Cmr10-6f" transform="translate(2075.047504 49.701042) scale(0.7)"/>
    <use xlink:href="#Cmr10-73" transform="translate(2110.047504 49.701042) scale(0.7)"/>
    <use xlink:href="#Cmr10-74" transform="translate(2137.630512 49.701042) scale(0.7)"/>
    <use xlink:href="#Cmmi10-69" transform="translate(2024.815668 -24.945833) scale(0.7)"/>
    <use xlink:href="#Cmmi10-6b" transform="translate(2048.912348 -24.945833) scale(0.7)"/>
    <use xlink:href="#Cmex10-a2" transform="translate(2171.180707 88.813542) scale(0.988195)"/>
   </g>
  </g>
  <g id="text_4">
   <!-- where -->
   <g style="fill: #777777" transform="translate(10.8 236.555344) scale(0.17 -0.17)">
    <defs>
     <path id="DejaVuSans-Oblique-77" d="M 544 3500 
L 1113 3500 
L 1259 684 
L 2566 3500 
L 3231 3500 
L 3425 684 
L 4666 3500 
L 5241 3500 
L 3641 0 
L 2969 0 
L 2797 2900 
L 1459 0 
L 781 0 
L 544 3500 
z
" transform="scale(0.015625)"/>
     <path id="DejaVuSans-Oblique-68" d="M 3566 2113 
L 3156 0 
L 2578 0 
L 2988 2091 
Q 3016 2238 3031 2350 
Q 3047 2463 3047 2528 
Q 3047 2791 2881 2937 
Q 2716 3084 2419 3084 
Q 1956 3084 1617 2771 
Q 1278 2459 1178 1941 
L 800 0 
L 225 0 
L 1172 4863 
L 1747 4863 
L 1375 2950 
Q 1594 3244 1934 3414 
Q 2275 3584 2650 3584 
Q 3113 3584 3367 3334 
Q 3622 3084 3622 2631 
Q 3622 2519 3608 2391 
Q 3594 2263 3566 2113 
z
" transform="scale(0.015625)"/>
     <path id="DejaVuSans-Oblique-65" d="M 3078 2063 
Q 3088 2113 3092 2166 
Q 3097 2219 3097 2272 
Q 3097 2653 2873 2875 
Q 2650 3097 2266 3097 
Q 1838 3097 1509 2826 
Q 1181 2556 1013 2059 
L 3078 2063 
z
M 3578 1613 
L 903 1613 
Q 884 1494 878 1425 
Q 872 1356 872 1306 
Q 872 872 1139 634 
Q 1406 397 1894 397 
Q 2269 397 2603 481 
Q 2938 566 3225 728 
L 3116 159 
Q 2806 34 2476 -28 
Q 2147 -91 1806 -91 
Q 1078 -91 686 257 
Q 294 606 294 1247 
Q 294 1794 489 2264 
Q 684 2734 1063 3103 
Q 1306 3334 1642 3459 
Q 1978 3584 2356 3584 
Q 2950 3584 3301 3228 
Q 3653 2872 3653 2272 
Q 3653 2128 3634 1964 
Q 3616 1800 3578 1613 
z
" transform="scale(0.015625)"/>
     <path id="DejaVuSans-Oblique-72" d="M 2853 2969 
Q 2766 3016 2653 3041 
Q 2541 3066 2413 3066 
Q 1953 3066 1609 2717 
Q 1266 2369 1153 1784 
L 800 0 
L 225 0 
L 909 3500 
L 1484 3500 
L 1375 2956 
Q 1603 3259 1920 3421 
Q 2238 3584 2597 3584 
Q 2691 3584 2781 3573 
Q 2872 3563 2963 3538 
L 2853 2969 
z
" transform="scale(0.015625)"/>
    </defs>
    <use xlink:href="#DejaVuSans-Oblique-77"/>
    <use xlink:href="#DejaVuSans-Oblique-68" transform="translate(81.787109 0)"/>
    <use xlink:href="#DejaVuSans-Oblique-65" transform="translate(145.166016 0)"/>
    <use xlink:href="#DejaVuSans-Oblique-72" transform="translate(206.689453 0)"/>
    <use xlink:href="#DejaVuSans-Oblique-65" transform="translate(247.802734 0)"/>
   </g>
  </g>
  <g id="text_5">
   <!-- $L_i^{\mathrm{pre}},\ L_i^{\mathrm{post}}$ -->
   <g style="fill: #222222" transform="translate(32.4 274.218) scale(0.21 -0.21)">
    <use xlink:href="#Cmmi10-4c" transform="translate(0 0.0875)"/>
    <use xlink:href="#Cmr10-70" transform="translate(79.387109 46.928125) scale(0.7)"/>
    <use xlink:href="#Cmr10-72" transform="translate(118.249414 46.928125) scale(0.7)"/>
    <use xlink:href="#Cmr10-65" transform="translate(145.627344 46.928125) scale(0.7)"/>
    <use xlink:href="#Cmmi10-69" transform="translate(68.017578 -25.421875) scale(0.7)"/>
    <use xlink:href="#Cmmi10-3b" transform="translate(183.074023 0.0875)"/>
    <use xlink:href="#Cmmi10-4c" transform="translate(257.582194 0.0875)"/>
    <use xlink:href="#Cmr10-70" transform="translate(336.969304 46.928125) scale(0.7)"/>
    <use xlink:href="#Cmr10-6f" transform="translate(375.831608 46.928125) scale(0.7)"/>
    <use xlink:href="#Cmr10-73" transform="translate(410.831608 46.928125) scale(0.7)"/>
    <use xlink:href="#Cmr10-74" transform="translate(438.414616 46.928125) scale(0.7)"/>
    <use xlink:href="#Cmmi10-69" transform="translate(325.599772 -25.421875) scale(0.7)"/>
   </g>
  </g>
  <g id="text_6">
   <!-- Logsum for group $i$ (expected utility of the best store on one trip), -->
   <g style="fill: #222222" transform="translate(159.677965 270.398) scale(0.17 -0.17)">
    <defs>
     <path id="DejaVuSans-4c" d="M 628 4666 
L 1259 4666 
L 1259 531 
L 3531 531 
L 3531 0 
L 628 0 
L 628 4666 
z
" transform="scale(0.015625)"/>
     <path id="DejaVuSans-67" d="M 2906 1791 
Q 2906 2416 2648 2759 
Q 2391 3103 1925 3103 
Q 1463 3103 1205 2759 
Q 947 2416 947 1791 
Q 947 1169 1205 825 
Q 1463 481 1925 481 
Q 2391 481 2648 825 
Q 2906 1169 2906 1791 
z
M 3481 434 
Q 3481 -459 3084 -895 
Q 2688 -1331 1869 -1331 
Q 1566 -1331 1297 -1286 
Q 1028 -1241 775 -1147 
L 775 -588 
Q 1028 -725 1275 -790 
Q 1522 -856 1778 -856 
Q 2344 -856 2625 -561 
Q 2906 -266 2906 331 
L 2906 616 
Q 2728 306 2450 153 
Q 2172 0 1784 0 
Q 1141 0 747 490 
Q 353 981 353 1791 
Q 353 2603 747 3093 
Q 1141 3584 1784 3584 
Q 2172 3584 2450 3431 
Q 2728 3278 2906 2969 
L 2906 3500 
L 3481 3500 
L 3481 434 
z
" transform="scale(0.015625)"/>
     <path id="DejaVuSans-75" d="M 544 1381 
L 544 3500 
L 1119 3500 
L 1119 1403 
Q 1119 906 1312 657 
Q 1506 409 1894 409 
Q 2359 409 2629 706 
Q 2900 1003 2900 1516 
L 2900 3500 
L 3475 3500 
L 3475 0 
L 2900 0 
L 2900 538 
Q 2691 219 2414 64 
Q 2138 -91 1772 -91 
Q 1169 -91 856 284 
Q 544 659 544 1381 
z
M 1991 3584 
L 1991 3584 
z
" transform="scale(0.015625)"/>
     <path id="DejaVuSans-72" d="M 2631 2963 
Q 2534 3019 2420 3045 
Q 2306 3072 2169 3072 
Q 1681 3072 1420 2755 
Q 1159 2438 1159 1844 
L 1159 0 
L 581 0 
L 581 3500 
L 1159 3500 
L 1159 2956 
Q 1341 3275 1631 3429 
Q 1922 3584 2338 3584 
Q 2397 3584 2469 3576 
Q 2541 3569 2628 3553 
L 2631 2963 
z
" transform="scale(0.015625)"/>
     <path id="DejaVuSans-28" d="M 1984 4856 
Q 1566 4138 1362 3434 
Q 1159 2731 1159 2009 
Q 1159 1288 1364 580 
Q 1569 -128 1984 -844 
L 1484 -844 
Q 1016 -109 783 600 
Q 550 1309 550 2009 
Q 550 2706 781 3412 
Q 1013 4119 1484 4856 
L 1984 4856 
z
" transform="scale(0.015625)"/>
     <path id="DejaVuSans-78" d="M 3513 3500 
L 2247 1797 
L 3578 0 
L 2900 0 
L 1881 1375 
L 863 0 
L 184 0 
L 1544 1831 
L 300 3500 
L 978 3500 
L 1906 2253 
L 2834 3500 
L 3513 3500 
z
" transform="scale(0.015625)"/>
     <path id="DejaVuSans-79" d="M 2059 -325 
Q 1816 -950 1584 -1140 
Q 1353 -1331 966 -1331 
L 506 -1331 
L 506 -850 
L 844 -850 
Q 1081 -850 1212 -737 
Q 1344 -625 1503 -206 
L 1606 56 
L 191 3500 
L 800 3500 
L 1894 763 
L 2988 3500 
L 3597 3500 
L 2059 -325 
z
" transform="scale(0.015625)"/>
     <path id="DejaVuSans-68" d="M 3513 2113 
L 3513 0 
L 2938 0 
L 2938 2094 
Q 2938 2591 2744 2837 
Q 2550 3084 2163 3084 
Q 1697 3084 1428 2787 
Q 1159 2491 1159 1978 
L 1159 0 
L 581 0 
L 581 4863 
L 1159 4863 
L 1159 2956 
Q 1366 3272 1645 3428 
Q 1925 3584 2291 3584 
Q 2894 3584 3203 3211 
Q 3513 2838 3513 2113 
z
" transform="scale(0.015625)"/>
     <path id="DejaVuSans-62" d="M 3116 1747 
Q 3116 2381 2855 2742 
Q 2594 3103 2138 3103 
Q 1681 3103 1420 2742 
Q 1159 2381 1159 1747 
Q 1159 1113 1420 752 
Q 1681 391 2138 391 
Q 2594 391 2855 752 
Q 3116 1113 3116 1747 
z
M 1159 2969 
Q 1341 3281 1617 3432 
Q 1894 3584 2278 3584 
Q 2916 3584 3314 3078 
Q 3713 2572 3713 1747 
Q 3713 922 3314 415 
Q 2916 -91 2278 -91 
Q 1894 -91 1617 61 
Q 1341 213 1159 525 
L 1159 0 
L 581 0 
L 581 4863 
L 1159 4863 
L 1159 2969 
z
" transform="scale(0.015625)"/>
     <path id="DejaVuSans-29" d="M 513 4856 
L 1013 4856 
Q 1481 4119 1714 3412 
Q 1947 2706 1947 2009 
Q 1947 1309 1714 600 
Q 1481 -109 1013 -844 
L 513 -844 
Q 928 -128 1133 580 
Q 1338 1288 1338 2009 
Q 1338 2731 1133 3434 
Q 928 4138 513 4856 
z
" transform="scale(0.015625)"/>
    </defs>
    <use xlink:href="#DejaVuSans-4c" transform="translate(0 0.015625)"/>
    <use xlink:href="#DejaVuSans-6f" transform="translate(55.712891 0.015625)"/>
    <use xlink:href="#DejaVuSans-67" transform="translate(116.894531 0.015625)"/>
    <use xlink:href="#DejaVuSans-73" transform="translate(180.371094 0.015625)"/>
    <use xlink:href="#DejaVuSans-75" transform="translate(232.470703 0.015625)"/>
    <use xlink:href="#DejaVuSans-6d" transform="translate(295.849609 0.015625)"/>
    <use xlink:href="#DejaVuSans-20" transform="translate(393.261719 0.015625)"/>
    <use xlink:href="#DejaVuSans-66" transform="translate(425.048828 0.015625)"/>
    <use xlink:href="#DejaVuSans-6f" transform="translate(460.253906 0.015625)"/>
    <use xlink:href="#DejaVuSans-72" transform="translate(521.435547 0.015625)"/>
    <use xlink:href="#DejaVuSans-20" transform="translate(562.548828 0.015625)"/>
    <use xlink:href="#DejaVuSans-67" transform="translate(594.335938 0.015625)"/>
    <use xlink:href="#DejaVuSans-72" transform="translate(657.8125 0.015625)"/>
    <use xlink:href="#DejaVuSans-6f" transform="translate(698.925781 0.015625)"/>
    <use xlink:href="#DejaVuSans-75" transform="translate(760.107422 0.015625)"/>
    <use xlink:href="#DejaVuSans-70" transform="translate(823.486328 0.015625)"/>
    <use xlink:href="#DejaVuSans-20" transform="translate(886.962891 0.015625)"/>
    <use xlink:href="#Cmmi10-69" transform="translate(918.75 0.015625)"/>
    <use xlink:href="#DejaVuSans-20" transform="translate(953.173828 0.015625)"/>
    <use xlink:href="#DejaVuSans-28" transform="translate(984.960938 0.015625)"/>
    <use xlink:href="#DejaVuSans-65" transform="translate(1023.974609 0.015625)"/>
    <use xlink:href="#DejaVuSans-78" transform="translate(1085.498047 0.015625)"/>
    <use xlink:href="#DejaVuSans-70" transform="translate(1144.677734 0.015625)"/>
    <use xlink:href="#DejaVuSans-65" transform="translate(1208.154297 0.015625)"/>
    <use xlink:href="#DejaVuSans-63" transform="translate(1269.677734 0.015625)"/>
    <use xlink:href="#DejaVuSans-74" transform="translate(1324.658203 0.015625)"/>
    <use xlink:href="#DejaVuSans-65" transform="translate(1363.867188 0.015625)"/>
    <use xlink:href="#DejaVuSans-64" transform="translate(1425.390625 0.015625)"/>
    <use xlink:href="#DejaVuSans-20" transform="translate(1488.867188 0.015625)"/>
    <use xlink:href="#DejaVuSans-75" transform="translate(1520.654297 0.015625)"/>
    <use xlink:href="#DejaVuSans-74" transform="translate(1584.033203 0.015625)"/>
    <use xlink:href="#DejaVuSans-69" transform="translate(1623.242188 0.015625)"/>
    <use xlink:href="#DejaVuSans-6c" transform="translate(1651.025391 0.015625)"/>
    <use xlink:href="#DejaVuSans-69" transform="translate(1678.808594 0.015625)"/>
    <use xlink:href="#DejaVuSans-74" transform="translate(1706.591797 0.015625)"/>
    <use xlink:href="#DejaVuSans-79" transform="translate(1745.800781 0.015625)"/>
    <use xlink:href="#DejaVuSans-20" transform="translate(1804.980469 0.015625)"/>
    <use xlink:href="#DejaVuSans-6f" transform="translate(1836.767578 0.015625)"/>
    <use xlink:href="#DejaVuSans-66" transform="translate(1897.949219 0.015625)"/>
    <use xlink:href="#DejaVuSans-20" transform="translate(1933.154297 0.015625)"/>
    <use xlink:href="#DejaVuSans-74" transform="translate(1964.941406 0.015625)"/>
    <use xlink:href="#DejaVuSans-68" transform="translate(2004.150391 0.015625)"/>
    <use xlink:href="#DejaVuSans-65" transform="translate(2067.529297 0.015625)"/>
    <use xlink:href="#DejaVuSans-20" transform="translate(2129.052734 0.015625)"/>
    <use xlink:href="#DejaVuSans-62" transform="translate(2160.839844 0.015625)"/>
    <use xlink:href="#DejaVuSans-65" transform="translate(2224.316406 0.015625)"/>
    <use xlink:href="#DejaVuSans-73" transform="translate(2285.839844 0.015625)"/>
    <use xlink:href="#DejaVuSans-74" transform="translate(2337.939453 0.015625)"/>
    <use xlink:href="#DejaVuSans-20" transform="translate(2377.148438 0.015625)"/>
    <use xlink:href="#DejaVuSans-73" transform="translate(2408.935547 0.015625)"/>
    <use xlink:href="#DejaVuSans-74" transform="translate(2461.035156 0.015625)"/>
    <use xlink:href="#DejaVuSans-6f" transform="translate(2500.244141 0.015625)"/>
    <use xlink:href="#DejaVuSans-72" transform="translate(2561.425781 0.015625)"/>
    <use xlink:href="#DejaVuSans-65" transform="translate(2602.539062 0.015625)"/>
    <use xlink:href="#DejaVuSans-20" transform="translate(2664.0625 0.015625)"/>
    <use xlink:href="#DejaVuSans-6f" transform="translate(2695.849609 0.015625)"/>
    <use xlink:href="#DejaVuSans-6e" transform="translate(2757.03125 0.015625)"/>
    <use xlink:href="#DejaVuSans-20" transform="translate(2820.410156 0.015625)"/>
    <use xlink:href="#DejaVuSans-6f" transform="translate(2852.197266 0.015625)"/>
    <use xlink:href="#DejaVuSans-6e" transform="translate(2913.378906 0.015625)"/>
    <use xlink:href="#DejaVuSans-65" transform="translate(2976.757812 0.015625)"/>
    <use xlink:href="#DejaVuSans-20" transform="translate(3038.28125 0.015625)"/>
    <use xlink:href="#DejaVuSans-74" transform="translate(3070.068359 0.015625)"/>
    <use xlink:href="#DejaVuSans-72" transform="translate(3109.277344 0.015625)"/>
    <use xlink:href="#DejaVuSans-69" transform="translate(3150.390625 0.015625)"/>
    <use xlink:href="#DejaVuSans-70" transform="translate(3178.173828 0.015625)"/>
    <use xlink:href="#DejaVuSans-29" transform="translate(3241.650391 0.015625)"/>
    <use xlink:href="#DejaVuSans-2c" transform="translate(3280.664062 0.015625)"/>
   </g>
   <!-- before and after the subsidy -->
   <g style="fill: #222222" transform="translate(159.677965 291.406414) scale(0.17 -0.17)">
    <use xlink:href="#DejaVuSans-62"/>
    <use xlink:href="#DejaVuSans-65" transform="translate(63.476562 0)"/>
    <use xlink:href="#DejaVuSans-66" transform="translate(125 0)"/>
    <use xlink:href="#DejaVuSans-6f" transform="translate(160.205078 0)"/>
    <use xlink:href="#DejaVuSans-72" transform="translate(221.386719 0)"/>
    <use xlink:href="#DejaVuSans-65" transform="translate(260.25 0)"/>
    <use xlink:href="#DejaVuSans-20" transform="translate(321.773438 0)"/>
    <use xlink:href="#DejaVuSans-61" transform="translate(353.560547 0)"/>
    <use xlink:href="#DejaVuSans-6e" transform="translate(414.839844 0)"/>
    <use xlink:href="#DejaVuSans-64" transform="translate(478.21875 0)"/>
    <use xlink:href="#DejaVuSans-20" transform="translate(541.695312 0)"/>
    <use xlink:href="#DejaVuSans-61" transform="translate(573.482422 0)"/>
    <use xlink:href="#DejaVuSans-66" transform="translate(634.761719 0)"/>
    <use xlink:href="#DejaVuSans-74" transform="translate(668.216797 0)"/>
    <use xlink:href="#DejaVuSans-65" transform="translate(707.425781 0)"/>
    <use xlink:href="#DejaVuSans-72" transform="translate(768.949219 0)"/>
    <use xlink:href="#DejaVuSans-20" transform="translate(810.0625 0)"/>
    <use xlink:href="#DejaVuSans-74" transform="translate(841.849609 0)"/>
    <use xlink:href="#DejaVuSans-68" transform="translate(881.058594 0)"/>
    <use xlink:href="#DejaVuSans-65" transform="translate(944.4375 0)"/>
    <use xlink:href="#DejaVuSans-20" transform="translate(1005.960938 0)"/>
    <use xlink:href="#DejaVuSans-73" transform="translate(1037.748047 0)"/>
    <use xlink:href="#DejaVuSans-75" transform="translate(1089.847656 0)"/>
    <use xlink:href="#DejaVuSans-62" transform="translate(1153.226562 0)"/>
    <use xlink:href="#DejaVuSans-73" transform="translate(1216.703125 0)"/>
    <use xlink:href="#DejaVuSans-69" transform="translate(1268.802734 0)"/>
    <use xlink:href="#DejaVuSans-64" transform="translate(1296.585938 0)"/>
    <use xlink:href="#DejaVuSans-79" transform="translate(1360.0625 0)"/>
   </g>
  </g>
  <g id="text_7">
   <!-- $V_{ik}^{\mathrm{pre}}$ -->
   <g style="fill: #222222" transform="translate(32.4 330.396) scale(0.21 -0.21)">
    <use xlink:href="#Cmmi10-56" transform="translate(0 0.482812)"/>
    <use xlink:href="#Cmr10-70" transform="translate(69.670312 49.620312) scale(0.7)"/>
    <use xlink:href="#Cmr10-72" transform="translate(108.532617 49.620312) scale(0.7)"/>
    <use xlink:href="#Cmr10-65" transform="translate(135.910547 49.620312) scale(0.7)"/>
    <use xlink:href="#Cmmi10-69" transform="translate(58.300781 -25.026562) scale(0.7)"/>
    <use xlink:href="#Cmmi10-6b" transform="translate(82.397461 -25.026562) scale(0.7)"/>
   </g>
  </g>
  <g id="text_8">
   <!-- Systematic utility of store $k$ for group $i$ before the subsidy -->
   <g style="fill: #222222" transform="translate(159.677965 328.466) scale(0.17 -0.17)">
    <defs>
     <path id="DejaVuSans-53" d="M 3425 4513 
L 3425 3897 
Q 3066 4069 2747 4153 
Q 2428 4238 2131 4238 
Q 1616 4238 1336 4038 
Q 1056 3838 1056 3469 
Q 1056 3159 1242 3001 
Q 1428 2844 1947 2747 
L 2328 2669 
Q 3034 2534 3370 2195 
Q 3706 1856 3706 1288 
Q 3706 609 3251 259 
Q 2797 -91 1919 -91 
Q 1588 -91 1214 -16 
Q 841 59 441 206 
L 441 856 
Q 825 641 1194 531 
Q 1563 422 1919 422 
Q 2459 422 2753 634 
Q 3047 847 3047 1241 
Q 3047 1584 2836 1778 
Q 2625 1972 2144 2069 
L 1759 2144 
Q 1053 2284 737 2584 
Q 422 2884 422 3419 
Q 422 4038 858 4394 
Q 1294 4750 2059 4750 
Q 2388 4750 2728 4690 
Q 3069 4631 3425 4513 
z
" transform="scale(0.015625)"/>
    </defs>
    <use xlink:href="#DejaVuSans-53" transform="translate(0 0.015625)"/>
    <use xlink:href="#DejaVuSans-79" transform="translate(63.476562 0.015625)"/>
    <use xlink:href="#DejaVuSans-73" transform="translate(122.65625 0.015625)"/>
    <use xlink:href="#DejaVuSans-74" transform="translate(174.755859 0.015625)"/>
    <use xlink:href="#DejaVuSans-65" transform="translate(213.964844 0.015625)"/>
    <use xlink:href="#DejaVuSans-6d" transform="translate(275.488281 0.015625)"/>
    <use xlink:href="#DejaVuSans-61" transform="translate(372.900391 0.015625)"/>
    <use xlink:href="#DejaVuSans-74" transform="translate(434.179688 0.015625)"/>
    <use xlink:href="#DejaVuSans-69" transform="translate(473.388672 0.015625)"/>
    <use xlink:href="#DejaVuSans-63" transform="translate(501.171875 0.015625)"/>
    <use xlink:href="#DejaVuSans-20" transform="translate(556.152344 0.015625)"/>
    <use xlink:href="#DejaVuSans-75" transform="translate(587.939453 0.015625)"/>
    <use xlink:href="#DejaVuSans-74" transform="translate(651.318359 0.015625)"/>
    <use xlink:href="#DejaVuSans-69" transform="translate(690.527344 0.015625)"/>
    <use xlink:href="#DejaVuSans-6c" transform="translate(718.310547 0.015625)"/>
    <use xlink:href="#DejaVuSans-69" transform="translate(746.09375 0.015625)"/>
    <use xlink:href="#DejaVuSans-74" transform="translate(773.876953 0.015625)"/>
    <use xlink:href="#DejaVuSans-79" transform="translate(813.085938 0.015625)"/>
    <use xlink:href="#DejaVuSans-20" transform="translate(872.265625 0.015625)"/>
    <use xlink:href="#DejaVuSans-6f" transform="translate(904.052734 0.015625)"/>
    <use xlink:href="#DejaVuSans-66" transform="translate(965.234375 0.015625)"/>
    <use xlink:href="#DejaVuSans-20" transform="translate(1000.439453 0.015625)"/>
    <use xlink:href="#DejaVuSans-73" transform="translate(1032.226562 0.015625)"/>
    <use xlink:href="#DejaVuSans-74" transform="translate(1084.326172 0.015625)"/>
    <use xlink:href="#DejaVuSans-6f" transform="translate(1123.535156 0.015625)"/>
    <use xlink:href="#DejaVuSans-72" transform="translate(1184.716797 0.015625)"/>
    <use xlink:href="#DejaVuSans-65" transform="translate(1225.830078 0.015625)"/>
    <use xlink:href="#DejaVuSans-20" transform="translate(1287.353516 0.015625)"/>
    <use xlink:href="#Cmmi10-6b" transform="translate(1319.140625 0.015625)"/>
    <use xlink:href="#DejaVuSans-20" transform="translate(1371.142578 0.015625)"/>
    <use xlink:href="#DejaVuSans-66" transform="translate(1402.929688 0.015625)"/>
    <use xlink:href="#DejaVuSans-6f" transform="translate(1438.134766 0.015625)"/>
    <use xlink:href="#DejaVuSans-72" transform="translate(1499.316406 0.015625)"/>
    <use xlink:href="#DejaVuSans-20" transform="translate(1540.429688 0.015625)"/>
    <use xlink:href="#DejaVuSans-67" transform="translate(1572.216797 0.015625)"/>
    <use xlink:href="#DejaVuSans-72" transform="translate(1635.693359 0.015625)"/>
    <use xlink:href="#DejaVuSans-6f" transform="translate(1676.806641 0.015625)"/>
    <use xlink:href="#DejaVuSans-75" transform="translate(1737.988281 0.015625)"/>
    <use xlink:href="#DejaVuSans-70" transform="translate(1801.367188 0.015625)"/>
    <use xlink:href="#DejaVuSans-20" transform="translate(1864.84375 0.015625)"/>
    <use xlink:href="#Cmmi10-69" transform="translate(1896.630859 0.015625)"/>
    <use xlink:href="#DejaVuSans-20" transform="translate(1931.054688 0.015625)"/>
    <use xlink:href="#DejaVuSans-62" transform="translate(1962.841797 0.015625)"/>
    <use xlink:href="#DejaVuSans-65" transform="translate(2026.318359 0.015625)"/>
    <use xlink:href="#DejaVuSans-66" transform="translate(2087.841797 0.015625)"/>
    <use xlink:href="#DejaVuSans-6f" transform="translate(2123.046875 0.015625)"/>
    <use xlink:href="#DejaVuSans-72" transform="translate(2184.228516 0.015625)"/>
    <use xlink:href="#DejaVuSans-65" transform="translate(2225.341797 0.015625)"/>
    <use xlink:href="#DejaVuSans-20" transform="translate(2286.865234 0.015625)"/>
    <use xlink:href="#DejaVuSans-74" transform="translate(2318.652344 0.015625)"/>
    <use xlink:href="#DejaVuSans-68" transform="translate(2357.861328 0.015625)"/>
    <use xlink:href="#DejaVuSans-65" transform="translate(2421.240234 0.015625)"/>
    <use xlink:href="#DejaVuSans-20" transform="translate(2482.763672 0.015625)"/>
    <use xlink:href="#DejaVuSans-73" transform="translate(2514.550781 0.015625)"/>
    <use xlink:href="#DejaVuSans-75" transform="translate(2566.650391 0.015625)"/>
    <use xlink:href="#DejaVuSans-62" transform="translate(2630.029297 0.015625)"/>
    <use xlink:href="#DejaVuSans-73" transform="translate(2693.505859 0.015625)"/>
    <use xlink:href="#DejaVuSans-69" transform="translate(2745.605469 0.015625)"/>
    <use xlink:href="#DejaVuSans-64" transform="translate(2773.388672 0.015625)"/>
    <use xlink:href="#DejaVuSans-79" transform="translate(2836.865234 0.015625)"/>
   </g>
  </g>
  <g id="text_9">
   <!-- $V_{ik}^{\mathrm{post}}$ -->
   <g style="fill: #222222" transform="translate(32.4 374.925) scale(0.21 -0.21)">
    <use xlink:href="#Cmmi10-56" transform="translate(0 0.790625)"/>
    <use xlink:href="#Cmr10-70" transform="translate(69.670312 49.928125) scale(0.7)"/>
    <use xlink:href="#Cmr10-6f" transform="translate(108.532617 49.928125) scale(0.7)"/>
    <use xlink:href="#Cmr10-73" transform="translate(143.532617 49.928125) scale(0.7)"/>
    <use xlink:href="#Cmr10-74" transform="translate(171.115625 49.928125) scale(0.7)"/>
    <use xlink:href="#Cmmi10-69" transform="translate(58.300781 -24.71875) scale(0.7)"/>
    <use xlink:href="#Cmmi10-6b" transform="translate(82.397461 -24.71875) scale(0.7)"/>
   </g>
  </g>
  <g id="text_10">
   <!-- Systematic utility of store $k$ for group $i$ after the subsidy -->
   <g style="fill: #222222" transform="translate(159.677965 370.475) scale(0.17 -0.17)">
    <use xlink:href="#DejaVuSans-53" transform="translate(0 0.015625)"/>
    <use xlink:href="#DejaVuSans-79" transform="translate(63.476562 0.015625)"/>
    <use xlink:href="#DejaVuSans-73" transform="translate(122.65625 0.015625)"/>
    <use xlink:href="#DejaVuSans-74" transform="translate(174.755859 0.015625)"/>
    <use xlink:href="#DejaVuSans-65" transform="translate(213.964844 0.015625)"/>
    <use xlink:href="#DejaVuSans-6d" transform="translate(275.488281 0.015625)"/>
    <use xlink:href="#DejaVuSans-61" transform="translate(372.900391 0.015625)"/>
    <use xlink:href="#DejaVuSans-74" transform="translate(434.179688 0.015625)"/>
    <use xlink:href="#DejaVuSans-69" transform="translate(473.388672 0.015625)"/>
    <use xlink:href="#DejaVuSans-63" transform="translate(501.171875 0.015625)"/>
    <use xlink:href="#DejaVuSans-20" transform="translate(556.152344 0.015625)"/>
    <use xlink:href="#DejaVuSans-75" transform="translate(587.939453 0.015625)"/>
    <use xlink:href="#DejaVuSans-74" transform="translate(651.318359 0.015625)"/>
    <use xlink:href="#DejaVuSans-69" transform="translate(690.527344 0.015625)"/>
    <use xlink:href="#DejaVuSans-6c" transform="translate(718.310547 0.015625)"/>
    <use xlink:href="#DejaVuSans-69" transform="translate(746.09375 0.015625)"/>
    <use xlink:href="#DejaVuSans-74" transform="translate(773.876953 0.015625)"/>
    <use xlink:href="#DejaVuSans-79" transform="translate(813.085938 0.015625)"/>
    <use xlink:href="#DejaVuSans-20" transform="translate(872.265625 0.015625)"/>
    <use xlink:href="#DejaVuSans-6f" transform="translate(904.052734 0.015625)"/>
    <use xlink:href="#DejaVuSans-66" transform="translate(965.234375 0.015625)"/>
    <use xlink:href="#DejaVuSans-20" transform="translate(1000.439453 0.015625)"/>
    <use xlink:href="#DejaVuSans-73" transform="translate(1032.226562 0.015625)"/>
    <use xlink:href="#DejaVuSans-74" transform="translate(1084.326172 0.015625)"/>
    <use xlink:href="#DejaVuSans-6f" transform="translate(1123.535156 0.015625)"/>
    <use xlink:href="#DejaVuSans-72" transform="translate(1184.716797 0.015625)"/>
    <use xlink:href="#DejaVuSans-65" transform="translate(1225.830078 0.015625)"/>
    <use xlink:href="#DejaVuSans-20" transform="translate(1287.353516 0.015625)"/>
    <use xlink:href="#Cmmi10-6b" transform="translate(1319.140625 0.015625)"/>
    <use xlink:href="#DejaVuSans-20" transform="translate(1371.142578 0.015625)"/>
    <use xlink:href="#DejaVuSans-66" transform="translate(1402.929688 0.015625)"/>
    <use xlink:href="#DejaVuSans-6f" transform="translate(1438.134766 0.015625)"/>
    <use xlink:href="#DejaVuSans-72" transform="translate(1499.316406 0.015625)"/>
    <use xlink:href="#DejaVuSans-20" transform="translate(1540.429688 0.015625)"/>
    <use xlink:href="#DejaVuSans-67" transform="translate(1572.216797 0.015625)"/>
    <use xlink:href="#DejaVuSans-72" transform="translate(1635.693359 0.015625)"/>
    <use xlink:href="#DejaVuSans-6f" transform="translate(1676.806641 0.015625)"/>
    <use xlink:href="#DejaVuSans-75" transform="translate(1737.988281 0.015625)"/>
    <use xlink:href="#DejaVuSans-70" transform="translate(1801.367188 0.015625)"/>
    <use xlink:href="#DejaVuSans-20" transform="translate(1864.84375 0.015625)"/>
    <use xlink:href="#Cmmi10-69" transform="translate(1896.630859 0.015625)"/>
    <use xlink:href="#DejaVuSans-20" transform="translate(1931.054688 0.015625)"/>
    <use xlink:href="#DejaVuSans-61" transform="translate(1962.841797 0.015625)"/>
    <use xlink:href="#DejaVuSans-66" transform="translate(2024.121094 0.015625)"/>
    <use xlink:href="#DejaVuSans-74" transform="translate(2059.326172 0.015625)"/>
    <use xlink:href="#DejaVuSans-65" transform="translate(2098.535156 0.015625)"/>
    <use xlink:href="#DejaVuSans-72" transform="translate(2160.058594 0.015625)"/>
    <use xlink:href="#DejaVuSans-20" transform="translate(2201.171875 0.015625)"/>
    <use xlink:href="#DejaVuSans-74" transform="translate(2232.958984 0.015625)"/>
    <use xlink:href="#DejaVuSans-68" transform="translate(2272.167969 0.015625)"/>
    <use xlink:href="#DejaVuSans-65" transform="translate(2335.546875 0.015625)"/>
    <use xlink:href="#DejaVuSans-20" transform="translate(2397.070312 0.015625)"/>
    <use xlink:href="#DejaVuSans-73" transform="translate(2428.857422 0.015625)"/>
    <use xlink:href="#DejaVuSans-75" transform="translate(2480.957031 0.015625)"/>
    <use xlink:href="#DejaVuSans-62" transform="translate(2544.335938 0.015625)"/>
    <use xlink:href="#DejaVuSans-73" transform="translate(2607.8125 0.015625)"/>
    <use xlink:href="#DejaVuSans-69" transform="translate(2659.912109 0.015625)"/>
    <use xlink:href="#DejaVuSans-64" transform="translate(2687.695312 0.015625)"/>
    <use xlink:href="#DejaVuSans-79" transform="translate(2751.171875 0.015625)"/>
   </g>
  </g>
  <g id="text_11">
   <!-- $k$ -->
   <g style="fill: #222222" transform="translate(32.4 415.376719) scale(0.21 -0.21)">
    <use xlink:href="#Cmmi10-6b" transform="translate(0 0.609375)"/>
   </g>
  </g>
  <g id="text_12">
   <!-- Index over all stores in the choice set -->
   <g style="fill: #222222" transform="translate(159.677965 414.497344) scale(0.17 -0.17)">
    <use xlink:href="#DejaVuSans-49"/>
    <use xlink:href="#DejaVuSans-6e" transform="translate(29.492188 0)"/>
    <use xlink:href="#DejaVuSans-64" transform="translate(92.871094 0)"/>
    <use xlink:href="#DejaVuSans-65" transform="translate(156.347656 0)"/>
    <use xlink:href="#DejaVuSans-78" transform="translate(216.121094 0)"/>
    <use xlink:href="#DejaVuSans-20" transform="translate(275.300781 0)"/>
    <use xlink:href="#DejaVuSans-6f" transform="translate(307.087891 0)"/>
    <use xlink:href="#DejaVuSans-76" transform="translate(368.269531 0)"/>
    <use xlink:href="#DejaVuSans-65" transform="translate(427.449219 0)"/>
    <use xlink:href="#DejaVuSans-72" transform="translate(488.972656 0)"/>
    <use xlink:href="#DejaVuSans-20" transform="translate(530.085938 0)"/>
    <use xlink:href="#DejaVuSans-61" transform="translate(561.873047 0)"/>
    <use xlink:href="#DejaVuSans-6c" transform="translate(623.152344 0)"/>
    <use xlink:href="#DejaVuSans-6c" transform="translate(650.935547 0)"/>
    <use xlink:href="#DejaVuSans-20" transform="translate(678.71875 0)"/>
    <use xlink:href="#DejaVuSans-73" transform="translate(710.505859 0)"/>
    <use xlink:href="#DejaVuSans-74" transform="translate(762.605469 0)"/>
    <use xlink:href="#DejaVuSans-6f" transform="translate(801.814453 0)"/>
    <use xlink:href="#DejaVuSans-72" transform="translate(862.996094 0)"/>
    <use xlink:href="#DejaVuSans-65" transform="translate(901.859375 0)"/>
    <use xlink:href="#DejaVuSans-73" transform="translate(963.382812 0)"/>
    <use xlink:href="#DejaVuSans-20" transform="translate(1015.482422 0)"/>
    <use xlink:href="#DejaVuSans-69" transform="translate(1047.269531 0)"/>
    <use xlink:href="#DejaVuSans-6e" transform="translate(1075.052734 0)"/>
    <use xlink:href="#DejaVuSans-20" transform="translate(1138.431641 0)"/>
    <use xlink:href="#DejaVuSans-74" transform="translate(1170.21875 0)"/>
    <use xlink:href="#DejaVuSans-68" transform="translate(1209.427734 0)"/>
    <use xlink:href="#DejaVuSans-65" transform="translate(1272.806641 0)"/>
    <use xlink:href="#DejaVuSans-20" transform="translate(1334.330078 0)"/>
    <use xlink:href="#DejaVuSans-63" transform="translate(1366.117188 0)"/>
    <use xlink:href="#DejaVuSans-68" transform="translate(1421.097656 0)"/>
    <use xlink:href="#DejaVuSans-6f" transform="translate(1484.476562 0)"/>
    <use xlink:href="#DejaVuSans-69" transform="translate(1545.658203 0)"/>
    <use xlink:href="#DejaVuSans-63" transform="translate(1573.441406 0)"/>
    <use xlink:href="#DejaVuSans-65" transform="translate(1628.421875 0)"/>
    <use xlink:href="#DejaVuSans-20" transform="translate(1689.945312 0)"/>
    <use xlink:href="#DejaVuSans-73" transform="translate(1721.732422 0)"/>
    <use xlink:href="#DejaVuSans-65" transform="translate(1773.832031 0)"/>
    <use xlink:href="#DejaVuSans-74" transform="translate(1835.355469 0)"/>
   </g>
  </g>
  <g id="text_13">
   <!-- $J$ -->
   <g style="fill: #222222" transform="translate(32.4 451.376719) scale(0.21 -0.21)">
    <use xlink:href="#Cmmi10-4a" transform="translate(0 0.6875)"/>
   </g>
  </g>
  <g id="text_14">
   <!-- Number of stores in the choice set: 9 existing, 10 with N.Y.C. Groceries -->
   <g style="fill: #222222" transform="translate(159.677965 450.497344) scale(0.17 -0.17)">
    <defs>
     <path id="DejaVuSans-3a" d="M 750 794 
L 1409 794 
L 1409 0 
L 750 0 
L 750 794 
z
M 750 3309 
L 1409 3309 
L 1409 2516 
L 750 2516 
L 750 3309 
z
" transform="scale(0.015625)"/>
     <path id="DejaVuSans-39" d="M 703 97 
L 703 672 
Q 941 559 1184 500 
Q 1428 441 1663 441 
Q 2288 441 2617 861 
Q 2947 1281 2994 2138 
Q 2813 1869 2534 1725 
Q 2256 1581 1919 1581 
Q 1219 1581 811 2004 
Q 403 2428 403 3163 
Q 403 3881 828 4315 
Q 1253 4750 1959 4750 
Q 2769 4750 3195 4129 
Q 3622 3509 3622 2328 
Q 3622 1225 3098 567 
Q 2575 -91 1691 -91 
Q 1453 -91 1209 -44 
Q 966 3 703 97 
z
M 1959 2075 
Q 2384 2075 2632 2365 
Q 2881 2656 2881 3163 
Q 2881 3666 2632 3958 
Q 2384 4250 1959 4250 
Q 1534 4250 1286 3958 
Q 1038 3666 1038 3163 
Q 1038 2656 1286 2365 
Q 1534 2075 1959 2075 
z
" transform="scale(0.015625)"/>
     <path id="DejaVuSans-30" d="M 2034 4250 
Q 1547 4250 1301 3770 
Q 1056 3291 1056 2328 
Q 1056 1369 1301 889 
Q 1547 409 2034 409 
Q 2525 409 2770 889 
Q 3016 1369 3016 2328 
Q 3016 3291 2770 3770 
Q 2525 4250 2034 4250 
z
M 2034 4750 
Q 2819 4750 3233 4129 
Q 3647 3509 3647 2328 
Q 3647 1150 3233 529 
Q 2819 -91 2034 -91 
Q 1250 -91 836 529 
Q 422 1150 422 2328 
Q 422 3509 836 4129 
Q 1250 4750 2034 4750 
z
" transform="scale(0.015625)"/>
     <path id="DejaVuSans-77" d="M 269 3500 
L 844 3500 
L 1563 769 
L 2278 3500 
L 2956 3500 
L 3675 769 
L 4391 3500 
L 4966 3500 
L 4050 0 
L 3372 0 
L 2619 2869 
L 1863 0 
L 1184 0 
L 269 3500 
z
" transform="scale(0.015625)"/>
     <path id="DejaVuSans-59" d="M -13 4666 
L 666 4666 
L 1959 2747 
L 3244 4666 
L 3922 4666 
L 2272 2222 
L 2272 0 
L 1638 0 
L 1638 2222 
L -13 4666 
z
" transform="scale(0.015625)"/>
     <path id="DejaVuSans-43" d="M 4122 4306 
L 4122 3641 
Q 3803 3938 3442 4084 
Q 3081 4231 2675 4231 
Q 1875 4231 1450 3742 
Q 1025 3253 1025 2328 
Q 1025 1406 1450 917 
Q 1875 428 2675 428 
Q 3081 428 3442 575 
Q 3803 722 4122 1019 
L 4122 359 
Q 3791 134 3420 21 
Q 3050 -91 2638 -91 
Q 1578 -91 968 557 
Q 359 1206 359 2328 
Q 359 3453 968 4101 
Q 1578 4750 2638 4750 
Q 3056 4750 3426 4639 
Q 3797 4528 4122 4306 
z
" transform="scale(0.015625)"/>
     <path id="DejaVuSans-47" d="M 3809 666 
L 3809 1919 
L 2778 1919 
L 2778 2438 
L 4434 2438 
L 4434 434 
Q 4069 175 3628 42 
Q 3188 -91 2688 -91 
Q 1594 -91 976 548 
Q 359 1188 359 2328 
Q 359 3472 976 4111 
Q 1594 4750 2688 4750 
Q 3144 4750 3555 4637 
Q 3966 4525 4313 4306 
L 4313 3634 
Q 3963 3931 3569 4081 
Q 3175 4231 2741 4231 
Q 1884 4231 1454 3753 
Q 1025 3275 1025 2328 
Q 1025 1384 1454 906 
Q 1884 428 2741 428 
Q 3075 428 3337 486 
Q 3600 544 3809 666 
z
" transform="scale(0.015625)"/>
    </defs>
    <use xlink:href="#DejaVuSans-4e"/>
    <use xlink:href="#DejaVuSans-75" transform="translate(74.804688 0)"/>
    <use xlink:href="#DejaVuSans-6d" transform="translate(138.183594 0)"/>
    <use xlink:href="#DejaVuSans-62" transform="translate(235.595703 0)"/>
    <use xlink:href="#DejaVuSans-65" transform="translate(299.072266 0)"/>
    <use xlink:href="#DejaVuSans-72" transform="translate(360.595703 0)"/>
    <use xlink:href="#DejaVuSans-20" transform="translate(401.708984 0)"/>
    <use xlink:href="#DejaVuSans-6f" transform="translate(433.496094 0)"/>
    <use xlink:href="#DejaVuSans-66" transform="translate(494.677734 0)"/>
    <use xlink:href="#DejaVuSans-20" transform="translate(529.882812 0)"/>
    <use xlink:href="#DejaVuSans-73" transform="translate(561.669922 0)"/>
    <use xlink:href="#DejaVuSans-74" transform="translate(613.769531 0)"/>
    <use xlink:href="#DejaVuSans-6f" transform="translate(652.978516 0)"/>
    <use xlink:href="#DejaVuSans-72" transform="translate(714.160156 0)"/>
    <use xlink:href="#DejaVuSans-65" transform="translate(753.023438 0)"/>
    <use xlink:href="#DejaVuSans-73" transform="translate(814.546875 0)"/>
    <use xlink:href="#DejaVuSans-20" transform="translate(866.646484 0)"/>
    <use xlink:href="#DejaVuSans-69" transform="translate(898.433594 0)"/>
    <use xlink:href="#DejaVuSans-6e" transform="translate(926.216797 0)"/>
    <use xlink:href="#DejaVuSans-20" transform="translate(989.595703 0)"/>
    <use xlink:href="#DejaVuSans-74" transform="translate(1021.382812 0)"/>
    <use xlink:href="#DejaVuSans-68" transform="translate(1060.591797 0)"/>
    <use xlink:href="#DejaVuSans-65" transform="translate(1123.970703 0)"/>
    <use xlink:href="#DejaVuSans-20" transform="translate(1185.494141 0)"/>
    <use xlink:href="#DejaVuSans-63" transform="translate(1217.28125 0)"/>
    <use xlink:href="#DejaVuSans-68" transform="translate(1272.261719 0)"/>
    <use xlink:href="#DejaVuSans-6f" transform="translate(1335.640625 0)"/>
    <use xlink:href="#DejaVuSans-69" transform="translate(1396.822266 0)"/>
    <use xlink:href="#DejaVuSans-63" transform="translate(1424.605469 0)"/>
    <use xlink:href="#DejaVuSans-65" transform="translate(1479.585938 0)"/>
    <use xlink:href="#DejaVuSans-20" transform="translate(1541.109375 0)"/>
    <use xlink:href="#DejaVuSans-73" transform="translate(1572.896484 0)"/>
    <use xlink:href="#DejaVuSans-65" transform="translate(1624.996094 0)"/>
    <use xlink:href="#DejaVuSans-74" transform="translate(1686.519531 0)"/>
    <use xlink:href="#DejaVuSans-3a" transform="translate(1725.728516 0)"/>
    <use xlink:href="#DejaVuSans-20" transform="translate(1759.419922 0)"/>
    <use xlink:href="#DejaVuSans-39" transform="translate(1791.207031 0)"/>
    <use xlink:href="#DejaVuSans-20" transform="translate(1854.830078 0)"/>
    <use xlink:href="#DejaVuSans-65" transform="translate(1886.617188 0)"/>
    <use xlink:href="#DejaVuSans-78" transform="translate(1946.390625 0)"/>
    <use xlink:href="#DejaVuSans-69" transform="translate(2005.570312 0)"/>
    <use xlink:href="#DejaVuSans-73" transform="translate(2033.353516 0)"/>
    <use xlink:href="#DejaVuSans-74" transform="translate(2085.453125 0)"/>
    <use xlink:href="#DejaVuSans-69" transform="translate(2124.662109 0)"/>
    <use xlink:href="#DejaVuSans-6e" transform="translate(2152.445312 0)"/>
    <use xlink:href="#DejaVuSans-67" transform="translate(2215.824219 0)"/>
    <use xlink:href="#DejaVuSans-2c" transform="translate(2279.300781 0)"/>
    <use xlink:href="#DejaVuSans-20" transform="translate(2311.087891 0)"/>
    <use xlink:href="#DejaVuSans-31" transform="translate(2342.875 0)"/>
    <use xlink:href="#DejaVuSans-30" transform="translate(2406.498047 0)"/>
    <use xlink:href="#DejaVuSans-20" transform="translate(2470.121094 0)"/>
    <use xlink:href="#DejaVuSans-77" transform="translate(2501.908203 0)"/>
    <use xlink:href="#DejaVuSans-69" transform="translate(2583.695312 0)"/>
    <use xlink:href="#DejaVuSans-74" transform="translate(2611.478516 0)"/>
    <use xlink:href="#DejaVuSans-68" transform="translate(2650.6875 0)"/>
    <use xlink:href="#DejaVuSans-20" transform="translate(2714.066406 0)"/>
    <use xlink:href="#DejaVuSans-4e" transform="translate(2745.853516 0)"/>
    <use xlink:href="#DejaVuSans-2e" transform="translate(2820.658203 0)"/>
    <use xlink:href="#DejaVuSans-59" transform="translate(2852.445312 0)"/>
    <use xlink:href="#DejaVuSans-2e" transform="translate(2893.279297 0)"/>
    <use xlink:href="#DejaVuSans-43" transform="translate(2925.066406 0)"/>
    <use xlink:href="#DejaVuSans-2e" transform="translate(2994.890625 0)"/>
    <use xlink:href="#DejaVuSans-20" transform="translate(3026.677734 0)"/>
    <use xlink:href="#DejaVuSans-47" transform="translate(3058.464844 0)"/>
    <use xlink:href="#DejaVuSans-72" transform="translate(3135.955078 0)"/>
    <use xlink:href="#DejaVuSans-6f" transform="translate(3174.818359 0)"/>
    <use xlink:href="#DejaVuSans-63" transform="translate(3236 0)"/>
    <use xlink:href="#DejaVuSans-65" transform="translate(3290.980469 0)"/>
    <use xlink:href="#DejaVuSans-72" transform="translate(3352.503906 0)"/>
    <use xlink:href="#DejaVuSans-69" transform="translate(3393.617188 0)"/>
    <use xlink:href="#DejaVuSans-65" transform="translate(3421.400391 0)"/>
    <use xlink:href="#DejaVuSans-73" transform="translate(3482.923828 0)"/>
   </g>
  </g>
 </g>
</svg>
