<?xml version="1.0" encoding="utf-8" standalone="no"?>
<!DOCTYPE svg PUBLIC "-//W3C//DTD SVG 1.1//EN"
  "http://www.w3.org/Graphics/SVG/1.1/DTD/svg11.dtd">
<svg xmlns:xlink="http://www.w3.org/1999/xlink" width="815.35695pt" height="437.030625pt" viewBox="0 0 815.35695 437.030625" xmlns="http://www.w3.org/2000/svg" version="1.1">
 <metadata>
  <rdf:RDF xmlns:dc="http://purl.org/dc/elements/1.1/" xmlns:cc="http://creativecommons.org/ns#" xmlns:rdf="http://www.w3.org/1999/02/22-rdf-syntax-ns#">
   <cc:Work>
    <dc:type rdf:resource="http://purl.org/dc/dcmitype/StillImage"/>
    <dc:date>2026-10-07T17:05:01.180768</dc:date>
    <dc:format>image/svg+xml</dc:format>
    <dc:creator>
     <cc:Agent>
      <dc:title>Matplotlib v3.10.9, https://matplotlib.org/</dc:title>
     </cc:Agent>
    </dc:creator>
   </cc:Work>
  </rdf:RDF>
 </metadata>
 <defs>
  <style type="text/css">*{stroke-linejoin: round; stroke-linecap: butt}</style>
 </defs>
 <g id="figure_1">
  <g id="patch_1">
   <path d="M 0 437.030625 
L 815.35695 437.030625 
L 815.35695 0 
L 0 0 
L 0 437.030625 
z
" style="fill: none"/>
  </g>
  <g id="text_1">
   <!-- Affordability Payment -->
   <g style="fill: #1a3a5c" transform="translate(10.8 30.555937) scale(0.26 -0.26)">
    <defs>
     <path id="DejaVuSans-Bold-41" d="M 3419 850 
L 1538 850 
L 1241 0 
L 31 0 
L 1759 4666 
L 3194 4666 
L 4922 0 
L 3713 0 
L 3419 850 
z
M 1838 1716 
L 3116 1716 
L 2478 3572 
L 1838 1716 
z
" transform="scale(0.015625)"/>
     <path id="DejaVuSans-Bold-66" d="M 2841 4863 
L 2841 4128 
L 2222 4128 
Q 1984 4128 1890 4042 
Q 1797 3956 1797 3744 
L 1797 3500 
L 2753 3500 
L 2753 2700 
L 1797 2700 
L 1797 0 
L 678 0 
L 678 2700 
L 122 2700 
L 122 3500 
L 678 3500 
L 678 3744 
Q 678 4316 997 4589 
Q 1316 4863 1984 4863 
L 2841 4863 
z
" transform="scale(0.015625)"/>
     <path id="DejaVuSans-Bold-6f" d="M 2203 2784 
Q 1831 2784 1636 2517 
Q 1441 2250 1441 1747 
Q 1441 1244 1636 976 
Q 1831 709 2203 709 
Q 2569 709 2762 976 
Q 2956 1244 2956 1747 
Q 2956 2250 2762 2517 
Q 2569 2784 2203 2784 
z
M 2203 3584 
Q 3106 3584 3614 3096 
Q 4122 2609 4122 1747 
Q 4122 884 3614 396 
Q 3106 -91 2203 -91 
Q 1297 -91 786 396 
Q 275 884 275 1747 
Q 275 2609 786 3096 
Q 1297 3584 2203 3584 
z
" transform="scale(0.015625)"/>
     <path id="DejaVuSans-Bold-72" d="M 3138 2547 
Q 2991 2616 2845 2648 
Q 2700 2681 2553 2681 
Q 2122 2681 1889 2404 
Q 1656 2128 1656 1613 
L 1656 0 
L 538 0 
L 538 3500 
L 1656 3500 
L 1656 2925 
Q 1872 3269 2151 3426 
Q 2431 3584 2822 3584 
Q 2878 3584 2943 3579 
Q 3009 3575 3134 3559 
L 3138 2547 
z
" transform="scale(0.015625)"/>
     <path id="DejaVuSans-Bold-64" d="M 2919 2988 
L 2919 4863 
L 4044 4863 
L 4044 0 
L 2919 0 
L 2919 506 
Q 2688 197 2409 53 
Q 2131 -91 1766 -91 
Q 1119 -91 703 423 
Q 288 938 288 1747 
Q 288 2556 703 3070 
Q 1119 3584 1766 3584 
Q 2128 3584 2408 3439 
Q 2688 3294 2919 2988 
z
M 2181 722 
Q 2541 722 2730 984 
Q 2919 1247 2919 1747 
Q 2919 2247 2730 2509 
Q 2541 2772 2181 2772 
Q 1825 2772 1636 2509 
Q 1447 2247 1447 1747 
Q 1447 1247 1636 984 
Q 1825 722 2181 722 
z
" transform="scale(0.015625)"/>
     <path id="DejaVuSans-Bold-61" d="M 2106 1575 
Q 1756 1575 1579 1456 
Q 1403 1338 1403 1106 
Q 1403 894 1545 773 
Q 1688 653 1941 653 
Q 2256 653 2472 879 
Q 2688 1106 2688 1447 
L 2688 1575 
L 2106 1575 
z
M 3816 1997 
L 3816 0 
L 2688 0 
L 2688 519 
Q 2463 200 2181 54 
Q 1900 -91 1497 -91 
Q 953 -91 614 226 
Q 275 544 275 1050 
Q 275 1666 698 1953 
Q 1122 2241 2028 2241 
L 2688 2241 
L 2688 2328 
Q 2688 2594 2478 2717 
Q 2269 2841 1825 2841 
Q 1466 2841 1156 2769 
Q 847 2697 581 2553 
L 581 3406 
Q 941 3494 1303 3539 
Q 1666 3584 2028 3584 
Q 2975 3584 3395 3211 
Q 3816 2838 3816 1997 
z
" transform="scale(0.015625)"/>
     <path id="DejaVuSans-Bold-62" d="M 2400 722 
Q 2759 722 2948 984 
Q 3138 1247 3138 1747 
Q 3138 2247 2948 2509 
Q 2759 2772 2400 2772 
Q 2041 2772 1848 2508 
Q 1656 2244 1656 1747 
Q 1656 1250 1848 986 
Q 2041 722 2400 722 
z
M 1656 2988 
Q 1888 3294 2169 3439 
Q 2450 3584 2816 3584 
Q 3463 3584 3878 3070 
Q 4294 2556 4294 1747 
Q 4294 938 3878 423 
Q 3463 -91 2816 -91 
Q 2450 -91 2169 54 
Q 1888 200 1656 506 
L 1656 0 
L 538 0 
L 538 4863 
L 1656 4863 
L 1656 2988 
z
" transform="scale(0.015625)"/>
     <path id="DejaVuSans-Bold-69" d="M 538 3500 
L 1656 3500 
L 1656 0 
L 538 0 
L 538 3500 
z
M 538 4863 
L 1656 4863 
L 1656 3950 
L 538 3950 
L 538 4863 
z
" transform="scale(0.015625)"/>
     <path id="DejaVuSans-Bold-6c" d="M 538 4863 
L 1656 4863 
L 1656 0 
L 538 0 
L 538 4863 
z
" transform="scale(0.015625)"/>
     <path id="DejaVuSans-Bold-74" d="M 1759 4494 
L 1759 3500 
L 2913 3500 
L 2913 2700 
L 1759 2700 
L 1759 1216 
Q 1759 972 1856 886 
Q 1953 800 2241 800 
L 2816 800 
L 2816 0 
L 1856 0 
Q 1194 0 917 276 
Q 641 553 641 1216 
L 641 2700 
L 84 2700 
L 84 3500 
L 641 3500 
L 641 4494 
L 1759 4494 
z
" transform="scale(0.015625)"/>
     <path id="DejaVuSans-Bold-79" d="M 78 3500 
L 1197 3500 
L 2138 1125 
L 2938 3500 
L 4056 3500 
L 2584 -331 
Q 2363 -916 2067 -1148 
Q 1772 -1381 1288 -1381 
L 641 -1381 
L 641 -647 
L 991 -647 
Q 1275 -647 1404 -556 
Q 1534 -466 1606 -231 
L 1638 -134 
L 78 3500 
z
" transform="scale(0.015625)"/>
     <path id="DejaVuSans-Bold-20" transform="scale(0.015625)"/>
     <path id="DejaVuSans-Bold-50" d="M 588 4666 
L 2584 4666 
Q 3475 4666 3951 4270 
Q 4428 3875 4428 3144 
Q 4428 2409 3951 2014 
Q 3475 1619 2584 1619 
L 1791 1619 
L 1791 0 
L 588 0 
L 588 4666 
z
M 1791 3794 
L 1791 2491 
L 2456 2491 
Q 2806 2491 2997 2661 
Q 3188 2831 3188 3144 
Q 3188 3456 2997 3625 
Q 2806 3794 2456 3794 
L 1791 3794 
z
" transform="scale(0.015625)"/>
     <path id="DejaVuSans-Bold-6d" d="M 3781 2919 
Q 3994 3244 4286 3414 
Q 4578 3584 4928 3584 
Q 5531 3584 5847 3212 
Q 6163 2841 6163 2131 
L 6163 0 
L 5038 0 
L 5038 1825 
Q 5041 1866 5042 1909 
Q 5044 1953 5044 2034 
Q 5044 2406 4934 2573 
Q 4825 2741 4581 2741 
Q 4263 2741 4089 2478 
Q 3916 2216 3909 1719 
L 3909 0 
L 2784 0 
L 2784 1825 
Q 2784 2406 2684 2573 
Q 2584 2741 2328 2741 
Q 2006 2741 1831 2477 
Q 1656 2213 1656 1722 
L 1656 0 
L 531 0 
L 531 3500 
L 1656 3500 
L 1656 2988 
Q 1863 3284 2130 3434 
Q 2397 3584 2719 3584 
Q 3081 3584 3359 3409 
Q 3638 3234 3781 2919 
z
" transform="scale(0.015625)"/>
     <path id="DejaVuSans-Bold-65" d="M 4031 1759 
L 4031 1441 
L 1416 1441 
Q 1456 1047 1700 850 
Q 1944 653 2381 653 
Q 2734 653 3104 758 
Q 3475 863 3866 1075 
L 3866 213 
Q 3469 63 3072 -14 
Q 2675 -91 2278 -91 
Q 1328 -91 801 392 
Q 275 875 275 1747 
Q 275 2603 792 3093 
Q 1309 3584 2216 3584 
Q 3041 3584 3536 3087 
Q 4031 2591 4031 1759 
z
M 2881 2131 
Q 2881 2450 2695 2645 
Q 2509 2841 2209 2841 
Q 1884 2841 1681 2658 
Q 1478 2475 1428 2131 
L 2881 2131 
z
" transform="scale(0.015625)"/>
     <path id="DejaVuSans-Bold-6e" d="M 4056 2131 
L 4056 0 
L 2931 0 
L 2931 347 
L 2931 1631 
Q 2931 2084 2911 2256 
Q 2891 2428 2841 2509 
Q 2775 2619 2662 2680 
Q 2550 2741 2406 2741 
Q 2056 2741 1856 2470 
Q 1656 2200 1656 1722 
L 1656 0 
L 538 0 
L 538 3500 
L 1656 3500 
L 1656 2988 
Q 1909 3294 2193 3439 
Q 2478 3584 2822 3584 
Q 3428 3584 3742 3212 
Q 4056 2841 4056 2131 
z
" transform="scale(0.015625)"/>
    </defs>
    <use xlink:href="#DejaVuSans-Bold-41"/>
    <use xlink:href="#DejaVuSans-Bold-66" transform="translate(77.392578 0)"/>
    <use xlink:href="#DejaVuSans-Bold-66" transform="translate(120.898438 0)"/>
    <use xlink:href="#DejaVuSans-Bold-6f" transform="translate(164.404297 0)"/>
    <use xlink:href="#DejaVuSans-Bold-72" transform="translate(233.105469 0)"/>
    <use xlink:href="#DejaVuSans-Bold-64" transform="translate(282.421875 0)"/>
    <use xlink:href="#DejaVuSans-Bold-61" transform="translate(354.003906 0)"/>
    <use xlink:href="#DejaVuSans-Bold-62" transform="translate(421.484375 0)"/>
    <use xlink:href="#DejaVuSans-Bold-69" transform="translate(493.066406 0)"/>
    <use xlink:href="#DejaVuSans-Bold-6c" transform="translate(527.34375 0)"/>
    <use xlink:href="#DejaVuSans-Bold-69" transform="translate(561.621094 0)"/>
    <use xlink:href="#DejaVuSans-Bold-74" transform="translate(595.898438 0)"/>
    <use xlink:href="#DejaVuSans-Bold-79" transform="translate(643.701172 0)"/>
    <use xlink:href="#DejaVuSans-Bold-20" transform="translate(708.886719 0)"/>
    <use xlink:href="#DejaVuSans-Bold-50" transform="translate(743.701172 0)"/>
    <use xlink:href="#DejaVuSans-Bold-61" transform="translate(814.367188 0)"/>
    <use xlink:href="#DejaVuSans-Bold-79" transform="translate(878.722656 0)"/>
    <use xlink:href="#DejaVuSans-Bold-6d" transform="translate(943.908203 0)"/>
    <use xlink:href="#DejaVuSans-Bold-65" transform="translate(1048.107422 0)"/>
    <use xlink:href="#DejaVuSans-Bold-6e" transform="translate(1115.929688 0)"/>
    <use xlink:href="#DejaVuSans-Bold-74" transform="translate(1187.121094 0)"/>
   </g>
  </g>
  <g id="text_2">
   <!-- Model as run (code/model.py), updates MAIN v2, §1.3.2 -->
   <g style="fill: #777777" transform="translate(10.8 55.317656) scale(0.15 -0.15)">
    <defs>
     <path id="DejaVuSans-4d" d="M 628 4666 
L 1569 4666 
L 2759 1491 
L 3956 4666 
L 4897 4666 
L 4897 0 
L 4281 0 
L 4281 4097 
L 3078 897 
L 2444 897 
L 1241 4097 
L 1241 0 
L 628 0 
L 628 4666 
z
" transform="scale(0.015625)"/>
     <path id="DejaVuSans-6f" d="M 1959 3097 
Q 1497 3097 1228 2736 
Q 959 2375 959 1747 
Q 959 1119 1226 758 
Q 1494 397 1959 397 
Q 2419 397 2687 759 
Q 2956 1122 2956 1747 
Q 2956 2369 2687 2733 
Q 2419 3097 1959 3097 
z
M 1959 3584 
Q 2709 3584 3137 3096 
Q 3566 2609 3566 1747 
Q 3566 888 3137 398 
Q 2709 -91 1959 -91 
Q 1206 -91 779 398 
Q 353 888 353 1747 
Q 353 2609 779 3096 
Q 1206 3584 1959 3584 
z
" transform="scale(0.015625)"/>
     <path id="DejaVuSans-64" d="M 2906 2969 
L 2906 4863 
L 3481 4863 
L 3481 0 
L 2906 0 
L 2906 525 
Q 2725 213 2448 61 
Q 2172 -91 1784 -91 
Q 1150 -91 751 415 
Q 353 922 353 1747 
Q 353 2572 751 3078 
Q 1150 3584 1784 3584 
Q 2172 3584 2448 3432 
Q 2725 3281 2906 2969 
z
M 947 1747 
Q 947 1113 1208 752 
Q 1469 391 1925 391 
Q 2381 391 2643 752 
Q 2906 1113 2906 1747 
Q 2906 2381 2643 2742 
Q 2381 3103 1925 3103 
Q 1469 3103 1208 2742 
Q 947 2381 947 1747 
z
" transform="scale(0.015625)"/>
     <path id="DejaVuSans-65" d="M 3597 1894 
L 3597 1613 
L 953 1613 
Q 991 1019 1311 708 
Q 1631 397 2203 397 
Q 2534 397 2845 478 
Q 3156 559 3463 722 
L 3463 178 
Q 3153 47 2828 -22 
Q 2503 -91 2169 -91 
Q 1331 -91 842 396 
Q 353 884 353 1716 
Q 353 2575 817 3079 
Q 1281 3584 2069 3584 
Q 2775 3584 3186 3129 
Q 3597 2675 3597 1894 
z
M 3022 2063 
Q 3016 2534 2758 2815 
Q 2500 3097 2075 3097 
Q 1594 3097 1305 2825 
Q 1016 2553 972 2059 
L 3022 2063 
z
" transform="scale(0.015625)"/>
     <path id="DejaVuSans-6c" d="M 603 4863 
L 1178 4863 
L 1178 0 
L 603 0 
L 603 4863 
z
" transform="scale(0.015625)"/>
     <path id="DejaVuSans-20" transform="scale(0.015625)"/>
     <path id="DejaVuSans-61" d="M 2194 1759 
Q 1497 1759 1228 1600 
Q 959 1441 959 1056 
Q 959 750 1161 570 
Q 1363 391 1709 391 
Q 2188 391 2477 730 
Q 2766 1069 2766 1631 
L 2766 1759 
L 2194 1759 
z
M 3341 1997 
L 3341 0 
L 2766 0 
L 2766 531 
Q 2569 213 2275 61 
Q 1981 -91 1556 -91 
Q 1019 -91 701 211 
Q 384 513 384 1019 
Q 384 1609 779 1909 
Q 1175 2209 1959 2209 
L 2766 2209 
L 2766 2266 
Q 2766 2663 2505 2880 
Q 2244 3097 1772 3097 
Q 1472 3097 1187 3025 
Q 903 2953 641 2809 
L 641 3341 
Q 956 3463 1253 3523 
Q 1550 3584 1831 3584 
Q 2591 3584 2966 3190 
Q 3341 2797 3341 1997 
z
" transform="scale(0.015625)"/>
     <path id="DejaVuSans-73" d="M 2834 3397 
L 2834 2853 
Q 2591 2978 2328 3040 
Q 2066 3103 1784 3103 
Q 1356 3103 1142 2972 
Q 928 2841 928 2578 
Q 928 2378 1081 2264 
Q 1234 2150 1697 2047 
L 1894 2003 
Q 2506 1872 2764 1633 
Q 3022 1394 3022 966 
Q 3022 478 2636 193 
Q 2250 -91 1575 -91 
Q 1294 -91 989 -36 
Q 684 19 347 128 
L 347 722 
Q 666 556 975 473 
Q 1284 391 1588 391 
Q 1994 391 2212 530 
Q 2431 669 2431 922 
Q 2431 1156 2273 1281 
Q 2116 1406 1581 1522 
L 1381 1569 
Q 847 1681 609 1914 
Q 372 2147 372 2553 
Q 372 3047 722 3315 
Q 1072 3584 1716 3584 
Q 2034 3584 2315 3537 
Q 2597 3491 2834 3397 
z
" transform="scale(0.015625)"/>
     <path id="DejaVuSans-72" d="M 2631 2963 
Q 2534 3019 2420 3045 
Q 2306 3072 2169 3072 
Q 1681 3072 1420 2755 
Q 1159 2438 1159 1844 
L 1159 0 
L 581 0 
L 581 3500 
L 1159 3500 
L 1159 2956 
Q 1341 3275 1631 3429 
Q 1922 3584 2338 3584 
Q 2397 3584 2469 3576 
Q 2541 3569 2628 3553 
L 2631 2963 
z
" transform="scale(0.015625)"/>
     <path id="DejaVuSans-75" d="M 544 1381 
L 544 3500 
L 1119 3500 
L 1119 1403 
Q 1119 906 1312 657 
Q 1506 409 1894 409 
Q 2359 409 2629 706 
Q 2900 1003 2900 1516 
L 2900 3500 
L 3475 3500 
L 3475 0 
L 2900 0 
L 2900 538 
Q 2691 219 2414 64 
Q 2138 -91 1772 -91 
Q 1169 -91 856 284 
Q 544 659 544 1381 
z
M 1991 3584 
L 1991 3584 
z
" transform="scale(0.015625)"/>
     <path id="DejaVuSans-6e" d="M 3513 2113 
L 3513 0 
L 2938 0 
L 2938 2094 
Q 2938 2591 2744 2837 
Q 2550 3084 2163 3084 
Q 1697 3084 1428 2787 
Q 1159 2491 1159 1978 
L 1159 0 
L 581 0 
L 581 3500 
L 1159 3500 
L 1159 2956 
Q 1366 3272 1645 3428 
Q 1925 3584 2291 3584 
Q 2894 3584 3203 3211 
Q 3513 2838 3513 2113 
z
" transform="scale(0.015625)"/>
     <path id="DejaVuSans-28" d="M 1984 4856 
Q 1566 4138 1362 3434 
Q 1159 2731 1159 2009 
Q 1159 1288 1364 580 
Q 1569 -128 1984 -844 
L 1484 -844 
Q 1016 -109 783 600 
Q 550 1309 550 2009 
Q 550 2706 781 3412 
Q 1013 4119 1484 4856 
L 1984 4856 
z
" transform="scale(0.015625)"/>
     <path id="DejaVuSans-63" d="M 3122 3366 
L 3122 2828 
Q 2878 2963 2633 3030 
Q 2388 3097 2138 3097 
Q 1578 3097 1268 2742 
Q 959 2388 959 1747 
Q 959 1106 1268 751 
Q 1578 397 2138 397 
Q 2388 397 2633 464 
Q 2878 531 3122 666 
L 3122 134 
Q 2881 22 2623 -34 
Q 2366 -91 2075 -91 
Q 1284 -91 818 406 
Q 353 903 353 1747 
Q 353 2603 823 3093 
Q 1294 3584 2113 3584 
Q 2378 3584 2631 3529 
Q 2884 3475 3122 3366 
z
" transform="scale(0.015625)"/>
     <path id="DejaVuSans-2f" d="M 1625 4666 
L 2156 4666 
L 531 -594 
L 0 -594 
L 1625 4666 
z
" transform="scale(0.015625)"/>
     <path id="DejaVuSans-6d" d="M 3328 2828 
Q 3544 3216 3844 3400 
Q 4144 3584 4550 3584 
Q 5097 3584 5394 3201 
Q 5691 2819 5691 2113 
L 5691 0 
L 5113 0 
L 5113 2094 
Q 5113 2597 4934 2840 
Q 4756 3084 4391 3084 
Q 3944 3084 3684 2787 
Q 3425 2491 3425 1978 
L 3425 0 
L 2847 0 
L 2847 2094 
Q 2847 2600 2669 2842 
Q 2491 3084 2119 3084 
Q 1678 3084 1418 2786 
Q 1159 2488 1159 1978 
L 1159 0 
L 581 0 
L 581 3500 
L 1159 3500 
L 1159 2956 
Q 1356 3278 1631 3431 
Q 1906 3584 2284 3584 
Q 2666 3584 2933 3390 
Q 3200 3197 3328 2828 
z
" transform="scale(0.015625)"/>
     <path id="DejaVuSans-2e" d="M 684 794 
L 1344 794 
L 1344 0 
L 684 0 
L 684 794 
z
" transform="scale(0.015625)"/>
     <path id="DejaVuSans-70" d="M 1159 525 
L 1159 -1331 
L 581 -1331 
L 581 3500 
L 1159 3500 
L 1159 2969 
Q 1341 3281 1617 3432 
Q 1894 3584 2278 3584 
Q 2916 3584 3314 3078 
Q 3713 2572 3713 1747 
Q 3713 922 3314 415 
Q 2916 -91 2278 -91 
Q 1894 -91 1617 61 
Q 1341 213 1159 525 
z
M 3116 1747 
Q 3116 2381 2855 2742 
Q 2594 3103 2138 3103 
Q 1681 3103 1420 2742 
Q 1159 2381 1159 1747 
Q 1159 1113 1420 752 
Q 1681 391 2138 391 
Q 2594 391 2855 752 
Q 3116 1113 3116 1747 
z
" transform="scale(0.015625)"/>
     <path id="DejaVuSans-79" d="M 2059 -325 
Q 1816 -950 1584 -1140 
Q 1353 -1331 966 -1331 
L 506 -1331 
L 506 -850 
L 844 -850 
Q 1081 -850 1212 -737 
Q 1344 -625 1503 -206 
L 1606 56 
L 191 3500 
L 800 3500 
L 1894 763 
L 2988 3500 
L 3597 3500 
L 2059 -325 
z
" transform="scale(0.015625)"/>
     <path id="DejaVuSans-29" d="M 513 4856 
L 1013 4856 
Q 1481 4119 1714 3412 
Q 1947 2706 1947 2009 
Q 1947 1309 1714 600 
Q 1481 -109 1013 -844 
L 513 -844 
Q 928 -128 1133 580 
Q 1338 1288 1338 2009 
Q 1338 2731 1133 3434 
Q 928 4138 513 4856 
z
" transform="scale(0.015625)"/>
     <path id="DejaVuSans-2c" d="M 750 794 
L 1409 794 
L 1409 256 
L 897 -744 
L 494 -744 
L 750 256 
L 750 794 
z
" transform="scale(0.015625)"/>
     <path id="DejaVuSans-74" d="M 1172 4494 
L 1172 3500 
L 2356 3500 
L 2356 3053 
L 1172 3053 
L 1172 1153 
Q 1172 725 1289 603 
Q 1406 481 1766 481 
L 2356 481 
L 2356 0 
L 1766 0 
Q 1100 0 847 248 
Q 594 497 594 1153 
L 594 3053 
L 172 3053 
L 172 3500 
L 594 3500 
L 594 4494 
L 1172 4494 
z
" transform="scale(0.015625)"/>
     <path id="DejaVuSans-41" d="M 2188 4044 
L 1331 1722 
L 3047 1722 
L 2188 4044 
z
M 1831 4666 
L 2547 4666 
L 4325 0 
L 3669 0 
L 3244 1197 
L 1141 1197 
L 716 0 
L 50 0 
L 1831 4666 
z
" transform="scale(0.015625)"/>
     <path id="DejaVuSans-49" d="M 628 4666 
L 1259 4666 
L 1259 0 
L 628 0 
L 628 4666 
z
" transform="scale(0.015625)"/>
     <path id="DejaVuSans-4e" d="M 628 4666 
L 1478 4666 
L 3547 763 
L 3547 4666 
L 4159 4666 
L 4159 0 
L 3309 0 
L 1241 3903 
L 1241 0 
L 628 0 
L 628 4666 
z
" transform="scale(0.015625)"/>
     <path id="DejaVuSans-76" d="M 191 3500 
L 800 3500 
L 1894 563 
L 2988 3500 
L 3597 3500 
L 2284 0 
L 1503 0 
L 191 3500 
z
" transform="scale(0.015625)"/>
     <path id="DejaVuSans-32" d="M 1228 531 
L 3431 531 
L 3431 0 
L 469 0 
L 469 531 
Q 828 903 1448 1529 
Q 2069 2156 2228 2338 
Q 2531 2678 2651 2914 
Q 2772 3150 2772 3378 
Q 2772 3750 2511 3984 
Q 2250 4219 1831 4219 
Q 1534 4219 1204 4116 
Q 875 4013 500 3803 
L 500 4441 
Q 881 4594 1212 4672 
Q 1544 4750 1819 4750 
Q 2544 4750 2975 4387 
Q 3406 4025 3406 3419 
Q 3406 3131 3298 2873 
Q 3191 2616 2906 2266 
Q 2828 2175 2409 1742 
Q 1991 1309 1228 531 
z
" transform="scale(0.015625)"/>
     <path id="DejaVuSans-a7" d="M 1184 2925 
Q 988 2781 891 2640 
Q 794 2500 794 2356 
Q 794 2119 1011 1911 
Q 1228 1703 2009 1281 
Q 2206 1422 2303 1564 
Q 2400 1706 2400 1850 
Q 2400 2084 2176 2296 
Q 1953 2509 1184 2925 
z
M 2591 4569 
L 2591 4056 
Q 2331 4178 2107 4239 
Q 1884 4300 1709 4300 
Q 1406 4300 1237 4175 
Q 1069 4050 1069 3828 
Q 1069 3547 1713 3188 
Q 1794 3141 1838 3116 
Q 2497 2744 2701 2503 
Q 2906 2263 2906 1947 
Q 2906 1666 2762 1447 
Q 2619 1228 2328 1063 
Q 2522 900 2611 729 
Q 2700 559 2700 359 
Q 2700 -84 2381 -346 
Q 2063 -609 1522 -609 
Q 1294 -609 1053 -564 
Q 813 -519 538 -428 
L 538 84 
Q 809 -38 1040 -98 
Q 1272 -159 1453 -159 
Q 1772 -159 1948 -28 
Q 2125 103 2125 341 
Q 2125 659 1434 1044 
L 1356 1088 
Q 688 1463 488 1702 
Q 288 1941 288 2259 
Q 288 2544 433 2767 
Q 578 2991 863 3144 
Q 678 3281 586 3456 
Q 494 3631 494 3847 
Q 494 4253 806 4501 
Q 1119 4750 1638 4750 
Q 1866 4750 2105 4704 
Q 2344 4659 2591 4569 
z
" transform="scale(0.015625)"/>
     <path id="DejaVuSans-31" d="M 794 531 
L 1825 531 
L 1825 4091 
L 703 3866 
L 703 4441 
L 1819 4666 
L 2450 4666 
L 2450 531 
L 3481 531 
L 3481 0 
L 794 0 
L 794 531 
z
" transform="scale(0.015625)"/>
     <path id="DejaVuSans-33" d="M 2597 2516 
Q 3050 2419 3304 2112 
Q 3559 1806 3559 1356 
Q 3559 666 3084 287 
Q 2609 -91 1734 -91 
Q 1441 -91 1130 -33 
Q 819 25 488 141 
L 488 750 
Q 750 597 1062 519 
Q 1375 441 1716 441 
Q 2309 441 2620 675 
Q 2931 909 2931 1356 
Q 2931 1769 2642 2001 
Q 2353 2234 1838 2234 
L 1294 2234 
L 1294 2753 
L 1863 2753 
Q 2328 2753 2575 2939 
Q 2822 3125 2822 3475 
Q 2822 3834 2567 4026 
Q 2313 4219 1838 4219 
Q 1578 4219 1281 4162 
Q 984 4106 628 3988 
L 628 4550 
Q 988 4650 1302 4700 
Q 1616 4750 1894 4750 
Q 2613 4750 3031 4423 
Q 3450 4097 3450 3541 
Q 3450 3153 3228 2886 
Q 3006 2619 2597 2516 
z
" transform="scale(0.015625)"/>
    </defs>
    <use xlink:href="#DejaVuSans-4d"/>
    <use xlink:href="#DejaVuSans-6f" transform="translate(86.279297 0)"/>
    <use xlink:href="#DejaVuSans-64" transform="translate(147.460938 0)"/>
    <use xlink:href="#DejaVuSans-65" transform="translate(210.9375 0)"/>
    <use xlink:href="#DejaVuSans-6c" transform="translate(272.460938 0)"/>
    <use xlink:href="#DejaVuSans-20" transform="translate(300.244141 0)"/>
    <use xlink:href="#DejaVuSans-61" transform="translate(332.03125 0)"/>
    <use xlink:href="#DejaVuSans-73" transform="translate(393.310547 0)"/>
    <use xlink:href="#DejaVuSans-20" transform="translate(445.410156 0)"/>
    <use xlink:href="#DejaVuSans-72" transform="translate(477.197266 0)"/>
    <use xlink:href="#DejaVuSans-75" transform="translate(518.310547 0)"/>
    <use xlink:href="#DejaVuSans-6e" transform="translate(581.689453 0)"/>
    <use xlink:href="#DejaVuSans-20" transform="translate(645.068359 0)"/>
    <use xlink:href="#DejaVuSans-28" transform="translate(676.855469 0)"/>
    <use xlink:href="#DejaVuSans-63" transform="translate(715.869141 0)"/>
    <use xlink:href="#DejaVuSans-6f" transform="translate(770.849609 0)"/>
    <use xlink:href="#DejaVuSans-64" transform="translate(832.03125 0)"/>
    <use xlink:href="#DejaVuSans-65" transform="translate(895.507812 0)"/>
    <use xlink:href="#DejaVuSans-2f" transform="translate(957.03125 0)"/>
    <use xlink:href="#DejaVuSans-6d" transform="translate(990.722656 0)"/>
    <use xlink:href="#DejaVuSans-6f" transform="translate(1088.134766 0)"/>
    <use xlink:href="#DejaVuSans-64" transform="translate(1149.316406 0)"/>
    <use xlink:href="#DejaVuSans-65" transform="translate(1212.792969 0)"/>
    <use xlink:href="#DejaVuSans-6c" transform="translate(1274.316406 0)"/>
    <use xlink:href="#DejaVuSans-2e" transform="translate(1302.099609 0)"/>
    <use xlink:href="#DejaVuSans-70" transform="translate(1333.886719 0)"/>
    <use xlink:href="#DejaVuSans-79" transform="translate(1397.363281 0)"/>
    <use xlink:href="#DejaVuSans-29" transform="translate(1456.542969 0)"/>
    <use xlink:href="#DejaVuSans-2c" transform="translate(1495.556641 0)"/>
    <use xlink:href="#DejaVuSans-20" transform="translate(1527.34375 0)"/>
    <use xlink:href="#DejaVuSans-75" transform="translate(1559.130859 0)"/>
    <use xlink:href="#DejaVuSans-70" transform="translate(1622.509766 0)"/>
    <use xlink:href="#DejaVuSans-64" transform="translate(1685.986328 0)"/>
    <use xlink:href="#DejaVuSans-61" transform="translate(1749.462891 0)"/>
    <use xlink:href="#DejaVuSans-74" transform="translate(1810.742188 0)"/>
    <use xlink:href="#DejaVuSans-65" transform="translate(1849.951172 0)"/>
    <use xlink:href="#DejaVuSans-73" transform="translate(1911.474609 0)"/>
    <use xlink:href="#DejaVuSans-20" transform="translate(1963.574219 0)"/>
    <use xlink:href="#DejaVuSans-4d" transform="translate(1995.361328 0)"/>
    <use xlink:href="#DejaVuSans-41" transform="translate(2081.640625 0)"/>
    <use xlink:href="#DejaVuSans-49" transform="translate(2150.048828 0)"/>
    <use xlink:href="#DejaVuSans-4e" transform="translate(2179.541016 0)"/>
    <use xlink:href="#DejaVuSans-20" transform="translate(2254.345703 0)"/>
    <use xlink:href="#DejaVuSans-76" transform="translate(2286.132812 0)"/>
    <use xlink:href="#DejaVuSans-32" transform="translate(2345.3125 0)"/>
    <use xlink:href="#DejaVuSans-2c" transform="translate(2408.935547 0)"/>
    <use xlink:href="#DejaVuSans-20" transform="translate(2440.722656 0)"/>
    <use xlink:href="#DejaVuSans-a7" transform="translate(2472.509766 0)"/>
    <use xlink:href="#DejaVuSans-31" transform="translate(2522.509766 0)"/>
    <use xlink:href="#DejaVuSans-2e" transform="translate(2586.132812 0)"/>
    <use xlink:href="#DejaVuSans-33" transform="translate(2617.919922 0)"/>
    <use xlink:href="#DejaVuSans-2e" transform="translate(2681.542969 0)"/>
    <use xlink:href="#DejaVuSans-32" transform="translate(2713.330078 0)"/>
   </g>
  </g>
  <g id="text_3">
   <!-- $\mathrm{AP}_j = \max\left(0,\; 0.30 \cdot \kappa_j \cdot \hat{R}_j^{\mathrm{post}} \;-\; \mathrm{Rent}_j \;-\; \mathrm{Tax}_j\right)$ -->
   <g style="fill: #222222" transform="translate(32.4 123.7) scale(0.34 -0.34)">
    <defs>
     <path id="Cmr10-41" d="M 206 0 
L 206 225 
Q 778 225 909 603 
L 2253 4513 
Q 2272 4581 2356 4581 
L 2438 4581 
Q 2522 4581 2541 4513 
L 3944 428 
Q 4003 294 4170 259 
Q 4338 225 4588 225 
L 4588 0 
L 2803 0 
L 2803 225 
Q 3334 225 3334 397 
L 3334 428 
L 2988 1428 
L 1434 1428 
L 1147 603 
Q 1141 581 1141 538 
Q 1141 378 1292 301 
Q 1444 225 1619 225 
L 1619 0 
L 206 0 
z
M 1509 1650 
L 2913 1650 
L 2209 3694 
L 1509 1650 
z
" transform="scale(0.015625)"/>
     <path id="Cmr10-50" d="M 213 0 
L 213 225 
Q 872 225 872 428 
L 872 3944 
Q 872 4147 213 4147 
L 213 4372 
L 2491 4372 
Q 2841 4372 3191 4228 
Q 3541 4084 3767 3809 
Q 3994 3534 3994 3169 
Q 3994 2813 3766 2544 
Q 3538 2275 3191 2136 
Q 2844 1997 2491 1997 
L 1466 1997 
L 1466 428 
Q 1466 225 2125 225 
L 2125 0 
L 213 0 
z
M 1447 2188 
L 2316 2188 
Q 2669 2188 2887 2289 
Q 3106 2391 3207 2605 
Q 3309 2819 3309 3169 
Q 3309 3691 3079 3919 
Q 2850 4147 2316 4147 
L 1772 4147 
Q 1656 4147 1592 4137 
Q 1528 4128 1487 4083 
Q 1447 4038 1447 3944 
L 1447 2188 
z
" transform="scale(0.015625)"/>
     <path id="Cmmi10-6a" d="M -84 -909 
Q -84 -753 23 -639 
Q 131 -525 288 -525 
Q 391 -525 461 -589 
Q 531 -653 531 -756 
Q 531 -878 454 -976 
Q 378 -1075 263 -1106 
Q 375 -1147 488 -1147 
Q 759 -1147 959 -895 
Q 1159 -644 1241 -331 
L 1844 2075 
Q 1888 2259 1888 2388 
Q 1888 2663 1697 2663 
Q 1416 2663 1205 2408 
Q 994 2153 863 1819 
Q 850 1778 813 1778 
L 738 1778 
Q 684 1778 684 1838 
L 684 1856 
Q 828 2241 1093 2534 
Q 1359 2828 1709 2828 
Q 1975 2828 2145 2662 
Q 2316 2497 2316 2241 
Q 2316 2150 2297 2059 
L 1691 -372 
Q 1625 -631 1440 -847 
Q 1256 -1063 1000 -1188 
Q 744 -1313 475 -1313 
Q 259 -1313 87 -1209 
Q -84 -1106 -84 -909 
z
M 1941 3878 
Q 1941 4019 2050 4125 
Q 2159 4231 2297 4231 
Q 2406 4231 2476 4164 
Q 2547 4097 2547 3994 
Q 2547 3850 2433 3742 
Q 2319 3634 2181 3634 
Q 2078 3634 2009 3706 
Q 1941 3778 1941 3878 
z
" transform="scale(0.015625)"/>
     <path id="Cmr10-3d" d="M 481 850 
Q 428 850 393 890 
Q 359 931 359 978 
Q 359 1031 393 1068 
Q 428 1106 481 1106 
L 4500 1106 
Q 4547 1106 4581 1068 
Q 4616 1031 4616 978 
Q 4616 931 4581 890 
Q 4547 850 4500 850 
L 481 850 
z
M 481 2094 
Q 428 2094 393 2131 
Q 359 2169 359 2222 
Q 359 2269 393 2309 
Q 428 2350 481 2350 
L 4500 2350 
Q 4547 2350 4581 2309 
Q 4616 2269 4616 2222 
Q 4616 2169 4581 2131 
Q 4547 2094 4500 2094 
L 481 2094 
z
" transform="scale(0.015625)"/>
     <path id="Cmr10-6d" d="M 191 0 
L 191 225 
Q 409 225 550 259 
Q 691 294 691 428 
L 691 2175 
Q 691 2347 639 2423 
Q 588 2500 491 2517 
Q 394 2534 191 2534 
L 191 2759 
L 1119 2828 
L 1119 2203 
Q 1247 2478 1498 2653 
Q 1750 2828 2047 2828 
Q 2784 2828 2913 2228 
Q 3041 2497 3287 2662 
Q 3534 2828 3828 2828 
Q 4119 2828 4317 2734 
Q 4516 2641 4616 2448 
Q 4716 2256 4716 1966 
L 4716 428 
Q 4716 294 4858 259 
Q 5000 225 5216 225 
L 5216 0 
L 3750 0 
L 3750 225 
Q 3969 225 4109 259 
Q 4250 294 4250 428 
L 4250 1947 
Q 4250 2269 4159 2466 
Q 4069 2663 3788 2663 
Q 3419 2663 3178 2366 
Q 2938 2069 2938 1691 
L 2938 428 
Q 2938 294 3078 259 
Q 3219 225 3438 225 
L 3438 0 
L 1972 0 
L 1972 225 
Q 2191 225 2331 259 
Q 2472 294 2472 428 
L 2472 1947 
Q 2472 2259 2381 2461 
Q 2291 2663 2009 2663 
Q 1638 2663 1398 2366 
Q 1159 2069 1159 1691 
L 1159 428 
Q 1159 294 1300 259 
Q 1441 225 1656 225 
L 1656 0 
L 191 0 
z
" transform="scale(0.015625)"/>
     <path id="Cmr10-61" d="M 256 628 
Q 256 1009 556 1248 
Q 856 1488 1276 1586 
Q 1697 1684 2075 1684 
L 2075 1947 
Q 2075 2131 1994 2304 
Q 1913 2478 1759 2589 
Q 1606 2700 1422 2700 
Q 997 2700 775 2509 
Q 897 2509 976 2417 
Q 1056 2325 1056 2203 
Q 1056 2075 965 1984 
Q 875 1894 750 1894 
Q 622 1894 531 1984 
Q 441 2075 441 2203 
Q 441 2541 747 2705 
Q 1053 2869 1422 2869 
Q 1681 2869 1943 2758 
Q 2206 2647 2373 2440 
Q 2541 2234 2541 1959 
L 2541 519 
Q 2541 394 2594 289 
Q 2647 184 2759 184 
Q 2866 184 2917 290 
Q 2969 397 2969 519 
L 2969 928 
L 3156 928 
L 3156 519 
Q 3156 375 3081 245 
Q 3006 116 2879 39 
Q 2753 -38 2606 -38 
Q 2419 -38 2283 107 
Q 2147 253 2131 453 
Q 2013 213 1781 70 
Q 1550 -72 1288 -72 
Q 1044 -72 808 0 
Q 572 72 414 226 
Q 256 381 256 628 
z
M 775 628 
Q 775 403 940 250 
Q 1106 97 1331 97 
Q 1538 97 1706 200 
Q 1875 303 1975 481 
Q 2075 659 2075 856 
L 2075 1522 
Q 1784 1522 1479 1426 
Q 1175 1331 975 1128 
Q 775 925 775 628 
z
" transform="scale(0.015625)"/>
     <path id="Cmr10-78" d="M 78 0 
L 78 225 
Q 322 225 537 320 
Q 753 416 903 603 
L 1484 1344 
L 728 2328 
Q 616 2469 483 2501 
Q 350 2534 109 2534 
L 109 2759 
L 1441 2759 
L 1441 2534 
Q 1356 2534 1282 2496 
Q 1209 2459 1209 2388 
Q 1209 2363 1228 2328 
L 1741 1663 
L 2125 2156 
Q 2203 2250 2203 2344 
Q 2203 2422 2151 2478 
Q 2100 2534 2016 2534 
L 2016 2759 
L 3194 2759 
L 3194 2534 
Q 2947 2534 2730 2439 
Q 2513 2344 2363 2156 
L 1856 1509 
L 2675 428 
Q 2797 288 2928 256 
Q 3059 225 3303 225 
L 3303 0 
L 1972 0 
L 1972 225 
Q 2050 225 2122 262 
Q 2194 300 2194 372 
Q 2194 400 2175 428 
L 1600 1191 
L 1141 603 
Q 1069 522 1069 416 
Q 1069 338 1122 281 
Q 1175 225 1247 225 
L 1247 0 
L 78 0 
z
" transform="scale(0.015625)"/>
     <path id="Cmex10-a1" d="M 2503 -7406 
Q 1713 -6744 1342 -5734 
Q 972 -4725 972 -3584 
Q 972 -2434 1342 -1423 
Q 1713 -413 2503 244 
Q 2503 256 2534 256 
L 2613 256 
Q 2631 256 2647 236 
Q 2663 216 2663 197 
Q 2663 172 2650 159 
Q 2303 -200 2067 -640 
Q 1831 -1081 1695 -1554 
Q 1559 -2028 1500 -2543 
Q 1441 -3059 1441 -3591 
Q 1441 -6072 2650 -7322 
Q 2663 -7334 2663 -7359 
Q 2663 -7378 2645 -7398 
Q 2628 -7419 2613 -7419 
L 2534 -7419 
Q 2503 -7419 2503 -7406 
z
" transform="scale(0.015625)"/>
     <path id="Cmr10-30" d="M 1600 -141 
Q 816 -141 533 504 
Q 250 1150 250 2041 
Q 250 2597 351 3087 
Q 453 3578 754 3920 
Q 1056 4263 1600 4263 
Q 2022 4263 2290 4056 
Q 2559 3850 2700 3523 
Q 2841 3197 2892 2823 
Q 2944 2450 2944 2041 
Q 2944 1491 2842 1011 
Q 2741 531 2444 195 
Q 2147 -141 1600 -141 
z
M 1600 25 
Q 1956 25 2131 390 
Q 2306 756 2347 1200 
Q 2388 1644 2388 2144 
Q 2388 2625 2347 3031 
Q 2306 3438 2132 3767 
Q 1959 4097 1600 4097 
Q 1238 4097 1063 3765 
Q 888 3434 847 3029 
Q 806 2625 806 2144 
Q 806 1788 823 1472 
Q 841 1156 916 820 
Q 991 484 1158 254 
Q 1325 25 1600 25 
z
" transform="scale(0.015625)"/>
     <path id="Cmmi10-3b" d="M 634 -1153 
Q 634 -1125 659 -1100 
Q 891 -878 1019 -587 
Q 1147 -297 1147 25 
L 1147 103 
Q 1044 0 891 0 
Q 744 0 641 103 
Q 538 206 538 353 
Q 538 503 641 603 
Q 744 703 891 703 
Q 1119 703 1216 492 
Q 1313 281 1313 25 
Q 1313 -331 1170 -651 
Q 1028 -972 769 -1228 
Q 744 -1241 728 -1241 
Q 697 -1241 665 -1212 
Q 634 -1184 634 -1153 
z
" transform="scale(0.015625)"/>
     <path id="Cmmi10-3a" d="M 538 353 
Q 538 497 644 600 
Q 750 703 891 703 
Q 978 703 1062 656 
Q 1147 609 1194 525 
Q 1241 441 1241 353 
Q 1241 213 1137 106 
Q 1034 0 891 0 
Q 750 0 644 106 
Q 538 213 538 353 
z
" transform="scale(0.015625)"/>
     <path id="Cmr10-33" d="M 609 494 
Q 759 275 1012 169 
Q 1266 63 1556 63 
Q 1928 63 2084 380 
Q 2241 697 2241 1100 
Q 2241 1281 2208 1462 
Q 2175 1644 2097 1800 
Q 2019 1956 1883 2050 
Q 1747 2144 1550 2144 
L 1125 2144 
Q 1069 2144 1069 2203 
L 1069 2259 
Q 1069 2309 1125 2309 
L 1478 2338 
Q 1703 2338 1851 2506 
Q 2000 2675 2069 2917 
Q 2138 3159 2138 3378 
Q 2138 3684 1994 3881 
Q 1850 4078 1556 4078 
Q 1313 4078 1091 3986 
Q 869 3894 738 3706 
Q 750 3709 759 3711 
Q 769 3713 781 3713 
Q 925 3713 1022 3613 
Q 1119 3513 1119 3372 
Q 1119 3234 1022 3134 
Q 925 3034 781 3034 
Q 641 3034 541 3134 
Q 441 3234 441 3372 
Q 441 3647 606 3850 
Q 772 4053 1033 4158 
Q 1294 4263 1556 4263 
Q 1750 4263 1965 4205 
Q 2181 4147 2356 4039 
Q 2531 3931 2642 3762 
Q 2753 3594 2753 3378 
Q 2753 3109 2633 2881 
Q 2513 2653 2303 2487 
Q 2094 2322 1844 2241 
Q 2122 2188 2372 2031 
Q 2622 1875 2773 1631 
Q 2925 1388 2925 1106 
Q 2925 753 2731 467 
Q 2538 181 2222 20 
Q 1906 -141 1556 -141 
Q 1256 -141 954 -26 
Q 653 88 461 316 
Q 269 544 269 863 
Q 269 1022 375 1128 
Q 481 1234 641 1234 
Q 744 1234 830 1186 
Q 916 1138 964 1050 
Q 1013 963 1013 863 
Q 1013 706 903 600 
Q 794 494 641 494 
L 609 494 
z
" transform="scale(0.015625)"/>
     <path id="Cmsy10-a2" d="M 538 1600 
Q 538 1691 584 1772 
Q 631 1853 714 1903 
Q 797 1953 891 1953 
Q 981 1953 1064 1903 
Q 1147 1853 1194 1772 
Q 1241 1691 1241 1600 
Q 1241 1456 1139 1351 
Q 1038 1247 891 1247 
Q 747 1247 642 1351 
Q 538 1456 538 1600 
z
" transform="scale(0.015625)"/>
     <path id="Cmmi10-2219" d="M 341 109 
Q 341 147 347 166 
L 959 2625 
Q 984 2716 1059 2772 
Q 1134 2828 1228 2828 
Q 1309 2828 1365 2779 
Q 1422 2731 1422 2650 
Q 1422 2631 1420 2620 
Q 1419 2609 1416 2597 
L 1184 1672 
Q 1441 1756 1866 2111 
Q 2291 2466 2508 2612 
Q 2725 2759 3041 2759 
Q 3144 2759 3214 2695 
Q 3284 2631 3284 2522 
Q 3284 2372 3176 2267 
Q 3069 2163 2919 2163 
Q 2816 2163 2745 2230 
Q 2675 2297 2675 2400 
Q 2675 2472 2700 2522 
Q 2547 2459 2386 2346 
Q 2225 2234 2094 2120 
Q 1963 2006 1778 1853 
Q 1594 1700 1447 1619 
Q 1709 1619 1984 1562 
Q 2259 1506 2461 1356 
Q 2663 1206 2663 947 
Q 2663 844 2638 769 
Q 2578 513 2578 384 
Q 2578 97 2778 97 
Q 3006 97 3128 350 
Q 3250 603 3328 941 
Q 3341 978 3378 978 
L 3456 978 
Q 3481 978 3497 961 
Q 3513 944 3513 922 
Q 3513 916 3506 903 
Q 3272 -72 2766 -72 
Q 2584 -72 2445 12 
Q 2306 97 2231 242 
Q 2156 388 2156 569 
Q 2156 684 2181 781 
Q 2203 869 2203 928 
Q 2203 1134 2020 1253 
Q 1838 1372 1589 1415 
Q 1341 1459 1125 1459 
L 800 141 
Q 778 53 701 -9 
Q 625 -72 531 -72 
Q 453 -72 397 -22 
Q 341 28 341 109 
z
" transform="scale(0.015625)"/>
     <path id="Cmr10-5e" d="M 863 3444 
L 738 3578 
L 1600 4441 
L 2456 3578 
L 2328 3444 
L 1600 4084 
L 863 3444 
z
" transform="scale(0.015625)"/>
     <path id="Cmmi10-52" d="M 313 0 
Q 250 0 250 84 
Q 253 100 262 139 
Q 272 178 289 201 
Q 306 225 331 225 
Q 722 225 878 269 
Q 959 297 997 441 
L 1875 3956 
Q 1888 4019 1888 4044 
Q 1888 4113 1813 4122 
Q 1691 4147 1350 4147 
Q 1288 4147 1288 4231 
Q 1291 4247 1300 4286 
Q 1309 4325 1326 4348 
Q 1344 4372 1369 4372 
L 3309 4372 
Q 3541 4372 3791 4319 
Q 4041 4266 4250 4152 
Q 4459 4038 4593 3848 
Q 4728 3659 4728 3406 
Q 4728 3084 4515 2831 
Q 4303 2578 3978 2408 
Q 3653 2238 3347 2169 
Q 3597 2078 3756 1879 
Q 3916 1681 3916 1422 
Q 3916 1388 3914 1370 
Q 3913 1353 3909 1331 
L 3859 763 
Q 3853 638 3847 550 
Q 3841 463 3841 409 
Q 3841 234 3892 129 
Q 3944 25 4097 25 
Q 4297 25 4448 211 
Q 4600 397 4647 616 
Q 4675 672 4709 672 
L 4769 672 
Q 4831 672 4831 588 
Q 4784 403 4682 237 
Q 4581 72 4426 -34 
Q 4272 -141 4091 -141 
Q 3716 -141 3452 26 
Q 3188 194 3188 550 
Q 3188 684 3213 788 
L 3353 1356 
Q 3378 1434 3378 1538 
Q 3378 1803 3198 1954 
Q 3019 2106 2747 2106 
L 1959 2106 
L 1538 416 
Q 1522 363 1522 325 
Q 1522 259 1600 250 
Q 1722 225 2059 225 
Q 2125 225 2125 141 
Q 2103 50 2090 25 
Q 2078 0 2016 0 
L 313 0 
z
M 1997 2272 
L 2706 2272 
Q 3403 2272 3756 2625 
Q 3919 2788 4014 3039 
Q 4109 3291 4109 3541 
Q 4109 3778 3970 3912 
Q 3831 4047 3626 4097 
Q 3422 4147 3175 4147 
L 2747 4147 
Q 2572 4147 2515 4117 
Q 2459 4088 2413 3928 
L 1997 2272 
z
" transform="scale(0.015625)"/>
     <path id="Cmr10-70" d="M 166 -1241 
L 166 -1019 
Q 384 -1019 525 -981 
Q 666 -944 666 -813 
L 666 2272 
Q 666 2447 541 2490 
Q 416 2534 166 2534 
L 166 2759 
L 1113 2828 
L 1113 2431 
Q 1288 2625 1520 2726 
Q 1753 2828 2016 2828 
Q 2394 2828 2697 2623 
Q 3000 2419 3170 2086 
Q 3341 1753 3341 1381 
Q 3341 994 3152 659 
Q 2963 325 2636 126 
Q 2309 -72 1919 -72 
Q 1453 -72 1131 306 
L 1131 -813 
Q 1131 -944 1273 -981 
Q 1416 -1019 1631 -1019 
L 1631 -1241 
L 166 -1241 
z
M 1131 622 
Q 1244 394 1444 245 
Q 1644 97 1881 97 
Q 2103 97 2273 215 
Q 2444 334 2559 534 
Q 2675 734 2729 954 
Q 2784 1175 2784 1381 
Q 2784 1638 2692 1936 
Q 2600 2234 2411 2439 
Q 2222 2644 1953 2644 
Q 1694 2644 1476 2511 
Q 1259 2378 1131 2150 
L 1131 622 
z
" transform="scale(0.015625)"/>
     <path id="Cmr10-6f" d="M 1600 -72 
Q 1216 -72 887 123 
Q 559 319 368 647 
Q 178 975 178 1363 
Q 178 1656 283 1928 
Q 388 2200 583 2414 
Q 778 2628 1037 2748 
Q 1297 2869 1600 2869 
Q 1994 2869 2317 2661 
Q 2641 2453 2828 2104 
Q 3016 1756 3016 1363 
Q 3016 978 2825 648 
Q 2634 319 2307 123 
Q 1981 -72 1600 -72 
z
M 1600 116 
Q 2113 116 2284 487 
Q 2456 859 2456 1434 
Q 2456 1756 2422 1967 
Q 2388 2178 2272 2350 
Q 2200 2456 2089 2536 
Q 1978 2616 1854 2658 
Q 1731 2700 1600 2700 
Q 1400 2700 1220 2609 
Q 1041 2519 922 2350 
Q 803 2169 770 1951 
Q 738 1734 738 1434 
Q 738 1075 800 789 
Q 863 503 1052 309 
Q 1241 116 1600 116 
z
" transform="scale(0.015625)"/>
     <path id="Cmr10-73" d="M 213 -19 
L 213 1025 
Q 213 1075 269 1075 
L 347 1075 
Q 384 1075 397 1025 
Q 575 97 1259 97 
Q 1563 97 1767 234 
Q 1972 372 1972 659 
Q 1972 866 1812 1011 
Q 1653 1156 1434 1209 
L 1006 1294 
Q 791 1341 614 1437 
Q 438 1534 325 1695 
Q 213 1856 213 2069 
Q 213 2350 361 2529 
Q 509 2709 746 2789 
Q 984 2869 1259 2869 
Q 1588 2869 1831 2694 
L 2016 2853 
Q 2016 2869 2047 2869 
L 2094 2869 
Q 2113 2869 2128 2851 
Q 2144 2834 2144 2816 
L 2144 1978 
Q 2144 1919 2094 1919 
L 2016 1919 
Q 1959 1919 1959 1978 
Q 1959 2313 1773 2516 
Q 1588 2719 1253 2719 
Q 966 2719 755 2612 
Q 544 2506 544 2247 
Q 544 2069 695 1955 
Q 847 1841 1050 1791 
L 1484 1709 
Q 1703 1659 1892 1540 
Q 2081 1422 2192 1240 
Q 2303 1059 2303 831 
Q 2303 600 2223 429 
Q 2144 259 2001 146 
Q 1859 34 1665 -19 
Q 1472 -72 1259 -72 
Q 859 -72 575 197 
L 341 -56 
Q 341 -72 306 -72 
L 269 -72 
Q 213 -72 213 -19 
z
" transform="scale(0.015625)"/>
     <path id="Cmr10-74" d="M 653 769 
L 653 2534 
L 122 2534 
L 122 2700 
Q 541 2700 737 3090 
Q 934 3481 934 3938 
L 1119 3938 
L 1119 2759 
L 2022 2759 
L 2022 2534 
L 1119 2534 
L 1119 781 
Q 1119 516 1208 316 
Q 1297 116 1528 116 
Q 1747 116 1844 327 
Q 1941 538 1941 781 
L 1941 1159 
L 2125 1159 
L 2125 769 
Q 2125 569 2051 373 
Q 1978 178 1834 53 
Q 1691 -72 1484 -72 
Q 1100 -72 876 158 
Q 653 388 653 769 
z
" transform="scale(0.015625)"/>
     <path id="Cmsy10-a1" d="M 653 1472 
Q 600 1472 565 1512 
Q 531 1553 531 1600 
Q 531 1647 565 1687 
Q 600 1728 653 1728 
L 4325 1728 
Q 4375 1728 4408 1687 
Q 4441 1647 4441 1600 
Q 4441 1553 4408 1512 
Q 4375 1472 4325 1472 
L 653 1472 
z
" transform="scale(0.015625)"/>
     <path id="Cmr10-52" d="M 213 0 
L 213 225 
Q 872 225 872 428 
L 872 3944 
Q 872 4147 213 4147 
L 213 4372 
L 2222 4372 
Q 2581 4372 2976 4242 
Q 3372 4113 3637 3847 
Q 3903 3581 3903 3213 
Q 3903 2944 3742 2733 
Q 3581 2522 3329 2380 
Q 3078 2238 2816 2175 
Q 3103 2075 3318 1856 
Q 3534 1638 3578 1356 
L 3669 788 
Q 3731 403 3800 214 
Q 3869 25 4103 25 
Q 4303 25 4401 211 
Q 4500 397 4500 616 
Q 4500 638 4520 655 
Q 4541 672 4563 672 
L 4622 672 
Q 4684 672 4684 588 
Q 4684 413 4615 245 
Q 4547 78 4417 -31 
Q 4288 -141 4109 -141 
Q 3647 -141 3314 89 
Q 2981 319 2981 763 
L 2981 1331 
Q 2981 1650 2759 1878 
Q 2538 2106 2216 2106 
L 1447 2106 
L 1447 428 
Q 1447 225 2106 225 
L 2106 0 
L 213 0 
z
M 1447 2272 
L 2131 2272 
Q 2663 2272 2941 2486 
Q 3219 2700 3219 3213 
Q 3219 3722 2944 3934 
Q 2669 4147 2131 4147 
L 1772 4147 
Q 1656 4147 1592 4137 
Q 1528 4128 1487 4083 
Q 1447 4038 1447 3944 
L 1447 2272 
z
" transform="scale(0.015625)"/>
     <path id="Cmr10-65" d="M 1594 -72 
Q 1203 -72 876 133 
Q 550 338 364 680 
Q 178 1022 178 1403 
Q 178 1778 348 2115 
Q 519 2453 823 2661 
Q 1128 2869 1503 2869 
Q 1797 2869 2014 2770 
Q 2231 2672 2372 2497 
Q 2513 2322 2584 2084 
Q 2656 1847 2656 1563 
Q 2656 1478 2591 1478 
L 738 1478 
L 738 1409 
Q 738 878 952 497 
Q 1166 116 1650 116 
Q 1847 116 2014 203 
Q 2181 291 2304 447 
Q 2428 603 2472 781 
Q 2478 803 2495 820 
Q 2513 838 2534 838 
L 2591 838 
Q 2656 838 2656 756 
Q 2566 394 2266 161 
Q 1966 -72 1594 -72 
z
M 744 1638 
L 2203 1638 
Q 2203 1878 2136 2125 
Q 2069 2372 1912 2536 
Q 1756 2700 1503 2700 
Q 1141 2700 942 2361 
Q 744 2022 744 1638 
z
" transform="scale(0.015625)"/>
     <path id="Cmr10-6e" d="M 191 0 
L 191 225 
Q 409 225 550 259 
Q 691 294 691 428 
L 691 2175 
Q 691 2347 639 2423 
Q 588 2500 491 2517 
Q 394 2534 191 2534 
L 191 2759 
L 1119 2828 
L 1119 2203 
Q 1247 2478 1498 2653 
Q 1750 2828 2047 2828 
Q 2491 2828 2714 2615 
Q 2938 2403 2938 1966 
L 2938 428 
Q 2938 294 3078 259 
Q 3219 225 3438 225 
L 3438 0 
L 1972 0 
L 1972 225 
Q 2191 225 2331 259 
Q 2472 294 2472 428 
L 2472 1947 
Q 2472 2259 2381 2461 
Q 2291 2663 2009 2663 
Q 1638 2663 1398 2366 
Q 1159 2069 1159 1691 
L 1159 428 
Q 1159 294 1300 259 
Q 1441 225 1656 225 
L 1656 0 
L 191 0 
z
" transform="scale(0.015625)"/>
     <path id="Cmr10-54" d="M 1081 0 
L 1081 225 
Q 1403 225 1706 261 
Q 2009 297 2009 428 
L 2009 3944 
Q 2009 4081 1932 4114 
Q 1856 4147 1684 4147 
L 1416 4147 
Q 888 4147 666 3916 
Q 550 3800 500 3545 
Q 450 3291 416 2906 
L 231 2906 
L 353 4372 
L 4263 4372 
L 4384 2906 
L 4197 2906 
Q 4159 3319 4114 3561 
Q 4069 3803 3950 3916 
Q 3725 4147 3200 4147 
L 2931 4147 
Q 2816 4147 2752 4137 
Q 2688 4128 2647 4083 
Q 2606 4038 2606 3944 
L 2606 428 
Q 2606 297 2909 261 
Q 3213 225 3531 225 
L 3531 0 
L 1081 0 
z
" transform="scale(0.015625)"/>
     <path id="Cmex10-a2" d="M 319 -7419 
Q 263 -7419 263 -7359 
Q 263 -7334 275 -7322 
Q 734 -6844 1001 -6236 
Q 1269 -5628 1376 -4961 
Q 1484 -4294 1484 -3578 
Q 1484 -1091 275 159 
Q 263 172 263 197 
Q 263 256 319 256 
L 397 256 
Q 416 256 428 244 
Q 1216 -413 1584 -1423 
Q 1953 -2434 1953 -3584 
Q 1953 -4725 1586 -5734 
Q 1219 -6744 428 -7406 
Q 416 -7419 397 -7419 
L 319 -7419 
z
" transform="scale(0.015625)"/>
    </defs>
    <use xlink:href="#Cmr10-41" transform="translate(0 0.609375)"/>
    <use xlink:href="#Cmr10-50" transform="translate(75 0.609375)"/>
    <use xlink:href="#Cmmi10-6a" transform="translate(147.481719 -16.396875) scale(0.7)"/>
    <use xlink:href="#Cmr10-3d" transform="translate(200.196953 0.609375)"/>
    <use xlink:href="#Cmr10-6d" transform="translate(295.441094 0.609375)"/>
    <use xlink:href="#Cmr10-61" transform="translate(378.741875 0.609375)"/>
    <use xlink:href="#Cmr10-78" transform="translate(428.741875 0.609375)"/>
    <use xlink:href="#Cmex10-a1" transform="translate(481.427422 92.426563) scale(1.136248)"/>
    <use xlink:href="#Cmr10-30" transform="translate(533.461403 0.609375)"/>
    <use xlink:href="#Cmmi10-3b" transform="translate(583.461403 0.609375)"/>
    <use xlink:href="#Cmr10-30" transform="translate(653.092675 0.609375)"/>
    <use xlink:href="#Cmmi10-3a" transform="translate(703.092675 0.609375)"/>
    <use xlink:href="#Cmr10-33" transform="translate(730.778222 0.609375)"/>
    <use xlink:href="#Cmr10-30" transform="translate(780.778222 0.609375)"/>
    <use xlink:href="#Cmsy10-a2" transform="translate(848.336815 0.609375)"/>
    <use xlink:href="#Cmmi10-2219" transform="translate(893.580956 0.609375)"/>
    <use xlink:href="#Cmmi10-6a" transform="translate(951.198143 -16.396875) scale(0.7)"/>
    <use xlink:href="#Cmsy10-a2" transform="translate(1003.913378 0.609375)"/>
    <use xlink:href="#Cmr10-5e" transform="translate(1071.595995 27.609375)"/>
    <use xlink:href="#Cmmi10-52" transform="translate(1049.157518 0.609375)"/>
    <use xlink:href="#Cmr10-70" transform="translate(1129.500565 47.45) scale(0.7)"/>
    <use xlink:href="#Cmr10-6f" transform="translate(1168.36287 47.45) scale(0.7)"/>
    <use xlink:href="#Cmr10-73" transform="translate(1203.36287 47.45) scale(0.7)"/>
    <use xlink:href="#Cmr10-74" transform="translate(1230.945878 47.45) scale(0.7)"/>
    <use xlink:href="#Cmmi10-6a" transform="translate(1129.500565 -24.9) scale(0.7)"/>
    <use xlink:href="#Cmsy10-a1" transform="translate(1306.441798 0.609375)"/>
    <use xlink:href="#Cmr10-52" transform="translate(1426.073069 0.609375)"/>
    <use xlink:href="#Cmr10-65" transform="translate(1499.657054 0.609375)"/>
    <use xlink:href="#Cmr10-6e" transform="translate(1544.041819 0.609375)"/>
    <use xlink:href="#Cmr10-74" transform="translate(1599.559397 0.609375)"/>
    <use xlink:href="#Cmmi10-6a" transform="translate(1642.841897 -16.396875) scale(0.7)"/>
    <use xlink:href="#Cmsy10-a1" transform="translate(1719.944263 0.609375)"/>
    <use xlink:href="#Cmr10-54" transform="translate(1839.575534 0.609375)"/>
    <use xlink:href="#Cmr10-61" transform="translate(1911.792331 0.609375)"/>
    <use xlink:href="#Cmr10-78" transform="translate(1961.792331 0.609375)"/>
    <use xlink:href="#Cmmi10-6a" transform="translate(2018.942018 -16.396875) scale(0.7)"/>
    <use xlink:href="#Cmex10-a2" transform="translate(2054.098659 92.426563) scale(1.136248)"/>
   </g>
  </g>
  <g id="text_4">
   <!-- where -->
   <g style="fill: #777777" transform="translate(10.8 190.757344) scale(0.17 -0.17)">
    <defs>
     <path id="DejaVuSans-Oblique-77" d="M 544 3500 
L 1113 3500 
L 1259 684 
L 2566 3500 
L 3231 3500 
L 3425 684 
L 4666 3500 
L 5241 3500 
L 3641 0 
L 2969 0 
L 2797 2900 
L 1459 0 
L 781 0 
L 544 3500 
z
" transform="scale(0.015625)"/>
     <path id="DejaVuSans-Oblique-68" d="M 3566 2113 
L 3156 0 
L 2578 0 
L 2988 2091 
Q 3016 2238 3031 2350 
Q 3047 2463 3047 2528 
Q 3047 2791 2881 2937 
Q 2716 3084 2419 3084 
Q 1956 3084 1617 2771 
Q 1278 2459 1178 1941 
L 800 0 
L 225 0 
L 1172 4863 
L 1747 4863 
L 1375 2950 
Q 1594 3244 1934 3414 
Q 2275 3584 2650 3584 
Q 3113 3584 3367 3334 
Q 3622 3084 3622 2631 
Q 3622 2519 3608 2391 
Q 3594 2263 3566 2113 
z
" transform="scale(0.015625)"/>
     <path id="DejaVuSans-Oblique-65" d="M 3078 2063 
Q 3088 2113 3092 2166 
Q 3097 2219 3097 2272 
Q 3097 2653 2873 2875 
Q 2650 3097 2266 3097 
Q 1838 3097 1509 2826 
Q 1181 2556 1013 2059 
L 3078 2063 
z
M 3578 1613 
L 903 1613 
Q 884 1494 878 1425 
Q 872 1356 872 1306 
Q 872 872 1139 634 
Q 1406 397 1894 397 
Q 2269 397 2603 481 
Q 2938 566 3225 728 
L 3116 159 
Q 2806 34 2476 -28 
Q 2147 -91 1806 -91 
Q 1078 -91 686 257 
Q 294 606 294 1247 
Q 294 1794 489 2264 
Q 684 2734 1063 3103 
Q 1306 3334 1642 3459 
Q 1978 3584 2356 3584 
Q 2950 3584 3301 3228 
Q 3653 2872 3653 2272 
Q 3653 2128 3634 1964 
Q 3616 1800 3578 1613 
z
" transform="scale(0.015625)"/>
     <path id="DejaVuSans-Oblique-72" d="M 2853 2969 
Q 2766 3016 2653 3041 
Q 2541 3066 2413 3066 
Q 1953 3066 1609 2717 
Q 1266 2369 1153 1784 
L 800 0 
L 225 0 
L 909 3500 
L 1484 3500 
L 1375 2956 
Q 1603 3259 1920 3421 
Q 2238 3584 2597 3584 
Q 2691 3584 2781 3573 
Q 2872 3563 2963 3538 
L 2853 2969 
z
" transform="scale(0.015625)"/>
    </defs>
    <use xlink:href="#DejaVuSans-Oblique-77"/>
    <use xlink:href="#DejaVuSans-Oblique-68" transform="translate(81.787109 0)"/>
    <use xlink:href="#DejaVuSans-Oblique-65" transform="translate(145.166016 0)"/>
    <use xlink:href="#DejaVuSans-Oblique-72" transform="translate(206.689453 0)"/>
    <use xlink:href="#DejaVuSans-Oblique-65" transform="translate(247.802734 0)"/>
   </g>
  </g>
  <g id="text_5">
   <!-- $\mathrm{AP}_j$ -->
   <g style="fill: #222222" transform="translate(32.4 224.64) scale(0.21 -0.21)">
    <use xlink:href="#Cmr10-41" transform="translate(0 0.421875)"/>
    <use xlink:href="#Cmr10-50" transform="translate(75 0.421875)"/>
    <use xlink:href="#Cmmi10-6a" transform="translate(147.481719 -16.584375) scale(0.7)"/>
   </g>
  </g>
  <g id="text_6">
   <!-- Affordability Payment: NYCEDC's payment beyond rent and tax ($/yr) -->
   <g style="fill: #222222" transform="translate(188.936481 224.597344) scale(0.17 -0.17)">
    <defs>
     <path id="DejaVuSans-66" d="M 2375 4863 
L 2375 4384 
L 1825 4384 
Q 1516 4384 1395 4259 
Q 1275 4134 1275 3809 
L 1275 3500 
L 2222 3500 
L 2222 3053 
L 1275 3053 
L 1275 0 
L 697 0 
L 697 3053 
L 147 3053 
L 147 3500 
L 697 3500 
L 697 3744 
Q 697 4328 969 4595 
Q 1241 4863 1831 4863 
L 2375 4863 
z
" transform="scale(0.015625)"/>
     <path id="DejaVuSans-62" d="M 3116 1747 
Q 3116 2381 2855 2742 
Q 2594 3103 2138 3103 
Q 1681 3103 1420 2742 
Q 1159 2381 1159 1747 
Q 1159 1113 1420 752 
Q 1681 391 2138 391 
Q 2594 391 2855 752 
Q 3116 1113 3116 1747 
z
M 1159 2969 
Q 1341 3281 1617 3432 
Q 1894 3584 2278 3584 
Q 2916 3584 3314 3078 
Q 3713 2572 3713 1747 
Q 3713 922 3314 415 
Q 2916 -91 2278 -91 
Q 1894 -91 1617 61 
Q 1341 213 1159 525 
L 1159 0 
L 581 0 
L 581 4863 
L 1159 4863 
L 1159 2969 
z
" transform="scale(0.015625)"/>
     <path id="DejaVuSans-69" d="M 603 3500 
L 1178 3500 
L 1178 0 
L 603 0 
L 603 3500 
z
M 603 4863 
L 1178 4863 
L 1178 4134 
L 603 4134 
L 603 4863 
z
" transform="scale(0.015625)"/>
     <path id="DejaVuSans-50" d="M 1259 4147 
L 1259 2394 
L 2053 2394 
Q 2494 2394 2734 2622 
Q 2975 2850 2975 3272 
Q 2975 3691 2734 3919 
Q 2494 4147 2053 4147 
L 1259 4147 
z
M 628 4666 
L 2053 4666 
Q 2838 4666 3239 4311 
Q 3641 3956 3641 3272 
Q 3641 2581 3239 2228 
Q 2838 1875 2053 1875 
L 1259 1875 
L 1259 0 
L 628 0 
L 628 4666 
z
" transform="scale(0.015625)"/>
     <path id="DejaVuSans-3a" d="M 750 794 
L 1409 794 
L 1409 0 
L 750 0 
L 750 794 
z
M 750 3309 
L 1409 3309 
L 1409 2516 
L 750 2516 
L 750 3309 
z
" transform="scale(0.015625)"/>
     <path id="DejaVuSans-59" d="M -13 4666 
L 666 4666 
L 1959 2747 
L 3244 4666 
L 3922 4666 
L 2272 2222 
L 2272 0 
L 1638 0 
L 1638 2222 
L -13 4666 
z
" transform="scale(0.015625)"/>
     <path id="DejaVuSans-43" d="M 4122 4306 
L 4122 3641 
Q 3803 3938 3442 4084 
Q 3081 4231 2675 4231 
Q 1875 4231 1450 3742 
Q 1025 3253 1025 2328 
Q 1025 1406 1450 917 
Q 1875 428 2675 428 
Q 3081 428 3442 575 
Q 3803 722 4122 1019 
L 4122 359 
Q 3791 134 3420 21 
Q 3050 -91 2638 -91 
Q 1578 -91 968 557 
Q 359 1206 359 2328 
Q 359 3453 968 4101 
Q 1578 4750 2638 4750 
Q 3056 4750 3426 4639 
Q 3797 4528 4122 4306 
z
" transform="scale(0.015625)"/>
     <path id="DejaVuSans-45" d="M 628 4666 
L 3578 4666 
L 3578 4134 
L 1259 4134 
L 1259 2753 
L 3481 2753 
L 3481 2222 
L 1259 2222 
L 1259 531 
L 3634 531 
L 3634 0 
L 628 0 
L 628 4666 
z
" transform="scale(0.015625)"/>
     <path id="DejaVuSans-44" d="M 1259 4147 
L 1259 519 
L 2022 519 
Q 2988 519 3436 956 
Q 3884 1394 3884 2338 
Q 3884 3275 3436 3711 
Q 2988 4147 2022 4147 
L 1259 4147 
z
M 628 4666 
L 1925 4666 
Q 3281 4666 3915 4102 
Q 4550 3538 4550 2338 
Q 4550 1131 3912 565 
Q 3275 0 1925 0 
L 628 0 
L 628 4666 
z
" transform="scale(0.015625)"/>
     <path id="DejaVuSans-27" d="M 1147 4666 
L 1147 2931 
L 616 2931 
L 616 4666 
L 1147 4666 
z
" transform="scale(0.015625)"/>
     <path id="DejaVuSans-78" d="M 3513 3500 
L 2247 1797 
L 3578 0 
L 2900 0 
L 1881 1375 
L 863 0 
L 184 0 
L 1544 1831 
L 300 3500 
L 978 3500 
L 1906 2253 
L 2834 3500 
L 3513 3500 
z
" transform="scale(0.015625)"/>
     <path id="DejaVuSans-24" d="M 2163 -941 
L 1850 -941 
L 1847 0 
Q 1519 6 1191 76 
Q 863 147 531 288 
L 531 850 
Q 850 650 1176 548 
Q 1503 447 1850 444 
L 1850 1869 
Q 1159 1981 845 2250 
Q 531 2519 531 2988 
Q 531 3497 872 3790 
Q 1213 4084 1850 4128 
L 1850 4863 
L 2163 4863 
L 2163 4138 
Q 2453 4125 2725 4076 
Q 2997 4028 3256 3944 
L 3256 3397 
Q 2997 3528 2723 3600 
Q 2450 3672 2163 3684 
L 2163 2350 
Q 2872 2241 3206 1959 
Q 3541 1678 3541 1191 
Q 3541 663 3186 358 
Q 2831 53 2163 6 
L 2163 -941 
z
M 1850 2406 
L 1850 3688 
Q 1488 3647 1297 3481 
Q 1106 3316 1106 3041 
Q 1106 2772 1282 2622 
Q 1459 2472 1850 2406 
z
M 2163 1806 
L 2163 453 
Q 2559 506 2761 678 
Q 2963 850 2963 1131 
Q 2963 1406 2770 1568 
Q 2578 1731 2163 1806 
z
" transform="scale(0.015625)"/>
    </defs>
    <use xlink:href="#DejaVuSans-41"/>
    <use xlink:href="#DejaVuSans-66" transform="translate(64.783203 0)"/>
    <use xlink:href="#DejaVuSans-66" transform="translate(99.988281 0)"/>
    <use xlink:href="#DejaVuSans-6f" transform="translate(135.193359 0)"/>
    <use xlink:href="#DejaVuSans-72" transform="translate(196.375 0)"/>
    <use xlink:href="#DejaVuSans-64" transform="translate(235.738281 0)"/>
    <use xlink:href="#DejaVuSans-61" transform="translate(299.214844 0)"/>
    <use xlink:href="#DejaVuSans-62" transform="translate(360.494141 0)"/>
    <use xlink:href="#DejaVuSans-69" transform="translate(423.970703 0)"/>
    <use xlink:href="#DejaVuSans-6c" transform="translate(451.753906 0)"/>
    <use xlink:href="#DejaVuSans-69" transform="translate(479.537109 0)"/>
    <use xlink:href="#DejaVuSans-74" transform="translate(507.320312 0)"/>
    <use xlink:href="#DejaVuSans-79" transform="translate(546.529297 0)"/>
    <use xlink:href="#DejaVuSans-20" transform="translate(605.708984 0)"/>
    <use xlink:href="#DejaVuSans-50" transform="translate(637.496094 0)"/>
    <use xlink:href="#DejaVuSans-61" transform="translate(693.298828 0)"/>
    <use xlink:href="#DejaVuSans-79" transform="translate(754.578125 0)"/>
    <use xlink:href="#DejaVuSans-6d" transform="translate(813.757812 0)"/>
    <use xlink:href="#DejaVuSans-65" transform="translate(911.169922 0)"/>
    <use xlink:href="#DejaVuSans-6e" transform="translate(972.693359 0)"/>
    <use xlink:href="#DejaVuSans-74" transform="translate(1036.072266 0)"/>
    <use xlink:href="#DejaVuSans-3a" transform="translate(1075.28125 0)"/>
    <use xlink:href="#DejaVuSans-20" transform="translate(1108.972656 0)"/>
    <use xlink:href="#DejaVuSans-4e" transform="translate(1140.759766 0)"/>
    <use xlink:href="#DejaVuSans-59" transform="translate(1215.564453 0)"/>
    <use xlink:href="#DejaVuSans-43" transform="translate(1271.148438 0)"/>
    <use xlink:href="#DejaVuSans-45" transform="translate(1340.972656 0)"/>
    <use xlink:href="#DejaVuSans-44" transform="translate(1404.15625 0)"/>
    <use xlink:href="#DejaVuSans-43" transform="translate(1481.158203 0)"/>
    <use xlink:href="#DejaVuSans-27" transform="translate(1550.982422 0)"/>
    <use xlink:href="#DejaVuSans-73" transform="translate(1578.472656 0)"/>
    <use xlink:href="#DejaVuSans-20" transform="translate(1630.572266 0)"/>
    <use xlink:href="#DejaVuSans-70" transform="translate(1662.359375 0)"/>
    <use xlink:href="#DejaVuSans-61" transform="translate(1725.835938 0)"/>
    <use xlink:href="#DejaVuSans-79" transform="translate(1787.115234 0)"/>
    <use xlink:href="#DejaVuSans-6d" transform="translate(1846.294922 0)"/>
    <use xlink:href="#DejaVuSans-65" transform="translate(1943.707031 0)"/>
    <use xlink:href="#DejaVuSans-6e" transform="translate(2005.230469 0)"/>
    <use xlink:href="#DejaVuSans-74" transform="translate(2068.609375 0)"/>
    <use xlink:href="#DejaVuSans-20" transform="translate(2107.818359 0)"/>
    <use xlink:href="#DejaVuSans-62" transform="translate(2139.605469 0)"/>
    <use xlink:href="#DejaVuSans-65" transform="translate(2203.082031 0)"/>
    <use xlink:href="#DejaVuSans-79" transform="translate(2264.605469 0)"/>
    <use xlink:href="#DejaVuSans-6f" transform="translate(2323.785156 0)"/>
    <use xlink:href="#DejaVuSans-6e" transform="translate(2384.966797 0)"/>
    <use xlink:href="#DejaVuSans-64" transform="translate(2448.345703 0)"/>
    <use xlink:href="#DejaVuSans-20" transform="translate(2511.822266 0)"/>
    <use xlink:href="#DejaVuSans-72" transform="translate(2543.609375 0)"/>
    <use xlink:href="#DejaVuSans-65" transform="translate(2582.472656 0)"/>
    <use xlink:href="#DejaVuSans-6e" transform="translate(2643.996094 0)"/>
    <use xlink:href="#DejaVuSans-74" transform="translate(2707.375 0)"/>
    <use xlink:href="#DejaVuSans-20" transform="translate(2746.583984 0)"/>
    <use xlink:href="#DejaVuSans-61" transform="translate(2778.371094 0)"/>
    <use xlink:href="#DejaVuSans-6e" transform="translate(2839.650391 0)"/>
    <use xlink:href="#DejaVuSans-64" transform="translate(2903.029297 0)"/>
    <use xlink:href="#DejaVuSans-20" transform="translate(2966.505859 0)"/>
    <use xlink:href="#DejaVuSans-74" transform="translate(2998.292969 0)"/>
    <use xlink:href="#DejaVuSans-61" transform="translate(3037.501953 0)"/>
    <use xlink:href="#DejaVuSans-78" transform="translate(3098.78125 0)"/>
    <use xlink:href="#DejaVuSans-20" transform="translate(3157.960938 0)"/>
    <use xlink:href="#DejaVuSans-28" transform="translate(3189.748047 0)"/>
    <use xlink:href="#DejaVuSans-24" transform="translate(3228.761719 0)"/>
    <use xlink:href="#DejaVuSans-2f" transform="translate(3292.384766 0)"/>
    <use xlink:href="#DejaVuSans-79" transform="translate(3326.076172 0)"/>
    <use xlink:href="#DejaVuSans-72" transform="translate(3385.255859 0)"/>
    <use xlink:href="#DejaVuSans-29" transform="translate(3426.369141 0)"/>
   </g>
  </g>
  <g id="text_7">
   <!-- $0.30 \cdot \kappa_j \cdot \hat{R}_j^{\mathrm{post}}$ -->
   <g style="fill: #222222" transform="translate(32.4 270.037312) scale(0.21 -0.21)">
    <use xlink:href="#Cmr10-30" transform="translate(0 0.609375)"/>
    <use xlink:href="#Cmmi10-3a" transform="translate(50 0.609375)"/>
    <use xlink:href="#Cmr10-33" transform="translate(77.685547 0.609375)"/>
    <use xlink:href="#Cmr10-30" transform="translate(127.685547 0.609375)"/>
    <use xlink:href="#Cmsy10-a2" transform="translate(195.244141 0.609375)"/>
    <use xlink:href="#Cmmi10-2219" transform="translate(240.488281 0.609375)"/>
    <use xlink:href="#Cmmi10-6a" transform="translate(298.105469 -16.396875) scale(0.7)"/>
    <use xlink:href="#Cmsy10-a2" transform="translate(350.820703 0.609375)"/>
    <use xlink:href="#Cmr10-5e" transform="translate(418.50332 27.609375)"/>
    <use xlink:href="#Cmmi10-52" transform="translate(396.064844 0.609375)"/>
    <use xlink:href="#Cmr10-70" transform="translate(476.407891 47.45) scale(0.7)"/>
    <use xlink:href="#Cmr10-6f" transform="translate(515.270195 47.45) scale(0.7)"/>
    <use xlink:href="#Cmr10-73" transform="translate(550.270195 47.45) scale(0.7)"/>
    <use xlink:href="#Cmr10-74" transform="translate(577.853203 47.45) scale(0.7)"/>
    <use xlink:href="#Cmmi10-6a" transform="translate(476.407891 -24.9) scale(0.7)"/>
   </g>
  </g>
  <g id="text_8">
   <!-- Gross discount cost: revenue store $j$ gives up on the core items its -->
   <g style="fill: #222222" transform="translate(188.936481 264.747313) scale(0.17 -0.17)">
    <defs>
     <path id="DejaVuSans-47" d="M 3809 666 
L 3809 1919 
L 2778 1919 
L 2778 2438 
L 4434 2438 
L 4434 434 
Q 4069 175 3628 42 
Q 3188 -91 2688 -91 
Q 1594 -91 976 548 
Q 359 1188 359 2328 
Q 359 3472 976 4111 
Q 1594 4750 2688 4750 
Q 3144 4750 3555 4637 
Q 3966 4525 4313 4306 
L 4313 3634 
Q 3963 3931 3569 4081 
Q 3175 4231 2741 4231 
Q 1884 4231 1454 3753 
Q 1025 3275 1025 2328 
Q 1025 1384 1454 906 
Q 1884 428 2741 428 
Q 3075 428 3337 486 
Q 3600 544 3809 666 
z
" transform="scale(0.015625)"/>
     <path id="DejaVuSans-67" d="M 2906 1791 
Q 2906 2416 2648 2759 
Q 2391 3103 1925 3103 
Q 1463 3103 1205 2759 
Q 947 2416 947 1791 
Q 947 1169 1205 825 
Q 1463 481 1925 481 
Q 2391 481 2648 825 
Q 2906 1169 2906 1791 
z
M 3481 434 
Q 3481 -459 3084 -895 
Q 2688 -1331 1869 -1331 
Q 1566 -1331 1297 -1286 
Q 1028 -1241 775 -1147 
L 775 -588 
Q 1028 -725 1275 -790 
Q 1522 -856 1778 -856 
Q 2344 -856 2625 -561 
Q 2906 -266 2906 331 
L 2906 616 
Q 2728 306 2450 153 
Q 2172 0 1784 0 
Q 1141 0 747 490 
Q 353 981 353 1791 
Q 353 2603 747 3093 
Q 1141 3584 1784 3584 
Q 2172 3584 2450 3431 
Q 2728 3278 2906 2969 
L 2906 3500 
L 3481 3500 
L 3481 434 
z
" transform="scale(0.015625)"/>
     <path id="DejaVuSans-68" d="M 3513 2113 
L 3513 0 
L 2938 0 
L 2938 2094 
Q 2938 2591 2744 2837 
Q 2550 3084 2163 3084 
Q 1697 3084 1428 2787 
Q 1159 2491 1159 1978 
L 1159 0 
L 581 0 
L 581 4863 
L 1159 4863 
L 1159 2956 
Q 1366 3272 1645 3428 
Q 1925 3584 2291 3584 
Q 2894 3584 3203 3211 
Q 3513 2838 3513 2113 
z
" transform="scale(0.015625)"/>
    </defs>
    <use xlink:href="#DejaVuSans-47" transform="translate(0 0.015625)"/>
    <use xlink:href="#DejaVuSans-72" transform="translate(77.490234 0.015625)"/>
    <use xlink:href="#DejaVuSans-6f" transform="translate(118.603516 0.015625)"/>
    <use xlink:href="#DejaVuSans-73" transform="translate(179.785156 0.015625)"/>
    <use xlink:href="#DejaVuSans-73" transform="translate(231.884766 0.015625)"/>
    <use xlink:href="#DejaVuSans-20" transform="translate(283.984375 0.015625)"/>
    <use xlink:href="#DejaVuSans-64" transform="translate(315.771484 0.015625)"/>
    <use xlink:href="#DejaVuSans-69" transform="translate(379.248047 0.015625)"/>
    <use xlink:href="#DejaVuSans-73" transform="translate(407.03125 0.015625)"/>
    <use xlink:href="#DejaVuSans-63" transform="translate(459.130859 0.015625)"/>
    <use xlink:href="#DejaVuSans-6f" transform="translate(514.111328 0.015625)"/>
    <use xlink:href="#DejaVuSans-75" transform="translate(575.292969 0.015625)"/>
    <use xlink:href="#DejaVuSans-6e" transform="translate(638.671875 0.015625)"/>
    <use xlink:href="#DejaVuSans-74" transform="translate(702.050781 0.015625)"/>
    <use xlink:href="#DejaVuSans-20" transform="translate(741.259766 0.015625)"/>
    <use xlink:href="#DejaVuSans-63" transform="translate(773.046875 0.015625)"/>
    <use xlink:href="#DejaVuSans-6f" transform="translate(828.027344 0.015625)"/>
    <use xlink:href="#DejaVuSans-73" transform="translate(889.208984 0.015625)"/>
    <use xlink:href="#DejaVuSans-74" transform="translate(941.308594 0.015625)"/>
    <use xlink:href="#DejaVuSans-3a" transform="translate(980.517578 0.015625)"/>
    <use xlink:href="#DejaVuSans-20" transform="translate(1014.208984 0.015625)"/>
    <use xlink:href="#DejaVuSans-72" transform="translate(1045.996094 0.015625)"/>
    <use xlink:href="#DejaVuSans-65" transform="translate(1087.109375 0.015625)"/>
    <use xlink:href="#DejaVuSans-76" transform="translate(1148.632812 0.015625)"/>
    <use xlink:href="#DejaVuSans-65" transform="translate(1207.8125 0.015625)"/>
    <use xlink:href="#DejaVuSans-6e" transform="translate(1269.335938 0.015625)"/>
    <use xlink:href="#DejaVuSans-75" transform="translate(1332.714844 0.015625)"/>
    <use xlink:href="#DejaVuSans-65" transform="translate(1396.09375 0.015625)"/>
    <use xlink:href="#DejaVuSans-20" transform="translate(1457.617188 0.015625)"/>
    <use xlink:href="#DejaVuSans-73" transform="translate(1489.404297 0.015625)"/>
    <use xlink:href="#DejaVuSans-74" transform="translate(1541.503906 0.015625)"/>
    <use xlink:href="#DejaVuSans-6f" transform="translate(1580.712891 0.015625)"/>
    <use xlink:href="#DejaVuSans-72" transform="translate(1641.894531 0.015625)"/>
    <use xlink:href="#DejaVuSans-65" transform="translate(1683.007812 0.015625)"/>
    <use xlink:href="#DejaVuSans-20" transform="translate(1744.53125 0.015625)"/>
    <use xlink:href="#Cmmi10-6a" transform="translate(1776.318359 0.015625)"/>
    <use xlink:href="#DejaVuSans-20" transform="translate(1817.431641 0.015625)"/>
    <use xlink:href="#DejaVuSans-67" transform="translate(1849.21875 0.015625)"/>
    <use xlink:href="#DejaVuSans-69" transform="translate(1912.695312 0.015625)"/>
    <use xlink:href="#DejaVuSans-76" transform="translate(1940.478516 0.015625)"/>
    <use xlink:href="#DejaVuSans-65" transform="translate(1999.658203 0.015625)"/>
    <use xlink:href="#DejaVuSans-73" transform="translate(2061.181641 0.015625)"/>
    <use xlink:href="#DejaVuSans-20" transform="translate(2113.28125 0.015625)"/>
    <use xlink:href="#DejaVuSans-75" transform="translate(2145.068359 0.015625)"/>
    <use xlink:href="#DejaVuSans-70" transform="translate(2208.447266 0.015625)"/>
    <use xlink:href="#DejaVuSans-20" transform="translate(2271.923828 0.015625)"/>
    <use xlink:href="#DejaVuSans-6f" transform="translate(2303.710938 0.015625)"/>
    <use xlink:href="#DejaVuSans-6e" transform="translate(2364.892578 0.015625)"/>
    <use xlink:href="#DejaVuSans-20" transform="translate(2428.271484 0.015625)"/>
    <use xlink:href="#DejaVuSans-74" transform="translate(2460.058594 0.015625)"/>
    <use xlink:href="#DejaVuSans-68" transform="translate(2499.267578 0.015625)"/>
    <use xlink:href="#DejaVuSans-65" transform="translate(2562.646484 0.015625)"/>
    <use xlink:href="#DejaVuSans-20" transform="translate(2624.169922 0.015625)"/>
    <use xlink:href="#DejaVuSans-63" transform="translate(2655.957031 0.015625)"/>
    <use xlink:href="#DejaVuSans-6f" transform="translate(2710.9375 0.015625)"/>
    <use xlink:href="#DejaVuSans-72" transform="translate(2772.119141 0.015625)"/>
    <use xlink:href="#DejaVuSans-65" transform="translate(2813.232422 0.015625)"/>
    <use xlink:href="#DejaVuSans-20" transform="translate(2874.755859 0.015625)"/>
    <use xlink:href="#DejaVuSans-69" transform="translate(2906.542969 0.015625)"/>
    <use xlink:href="#DejaVuSans-74" transform="translate(2934.326172 0.015625)"/>
    <use xlink:href="#DejaVuSans-65" transform="translate(2973.535156 0.015625)"/>
    <use xlink:href="#DejaVuSans-6d" transform="translate(3035.058594 0.015625)"/>
    <use xlink:href="#DejaVuSans-73" transform="translate(3132.470703 0.015625)"/>
    <use xlink:href="#DejaVuSans-20" transform="translate(3184.570312 0.015625)"/>
    <use xlink:href="#DejaVuSans-69" transform="translate(3216.357422 0.015625)"/>
    <use xlink:href="#DejaVuSans-74" transform="translate(3244.140625 0.015625)"/>
    <use xlink:href="#DejaVuSans-73" transform="translate(3283.349609 0.015625)"/>
   </g>
   <!-- shoppers buy ($/yr) -->
   <g style="fill: #222222" transform="translate(188.936481 285.755727) scale(0.17 -0.17)">
    <use xlink:href="#DejaVuSans-73"/>
    <use xlink:href="#DejaVuSans-68" transform="translate(52.099609 0)"/>
    <use xlink:href="#DejaVuSans-6f" transform="translate(115.478516 0)"/>
    <use xlink:href="#DejaVuSans-70" transform="translate(176.660156 0)"/>
    <use xlink:href="#DejaVuSans-70" transform="translate(240.136719 0)"/>
    <use xlink:href="#DejaVuSans-65" transform="translate(303.613281 0)"/>
    <use xlink:href="#DejaVuSans-72" transform="translate(365.136719 0)"/>
    <use xlink:href="#DejaVuSans-73" transform="translate(406.25 0)"/>
    <use xlink:href="#DejaVuSans-20" transform="translate(458.349609 0)"/>
    <use xlink:href="#DejaVuSans-62" transform="translate(490.136719 0)"/>
    <use xlink:href="#DejaVuSans-75" transform="translate(553.613281 0)"/>
    <use xlink:href="#DejaVuSans-79" transform="translate(616.992188 0)"/>
    <use xlink:href="#DejaVuSans-20" transform="translate(676.171875 0)"/>
    <use xlink:href="#DejaVuSans-28" transform="translate(707.958984 0)"/>
    <use xlink:href="#DejaVuSans-24" transform="translate(746.972656 0)"/>
    <use xlink:href="#DejaVuSans-2f" transform="translate(810.595703 0)"/>
    <use xlink:href="#DejaVuSans-79" transform="translate(844.287109 0)"/>
    <use xlink:href="#DejaVuSans-72" transform="translate(903.466797 0)"/>
    <use xlink:href="#DejaVuSans-29" transform="translate(944.580078 0)"/>
   </g>
  </g>
  <g id="text_9">
   <!-- $\mathrm{Rent}_j$ -->
   <g style="fill: #222222" transform="translate(32.4 322.225313) scale(0.21 -0.21)">
    <use xlink:href="#Cmr10-52" transform="translate(0 0.6875)"/>
    <use xlink:href="#Cmr10-65" transform="translate(73.583984 0.6875)"/>
    <use xlink:href="#Cmr10-6e" transform="translate(117.96875 0.6875)"/>
    <use xlink:href="#Cmr10-74" transform="translate(173.486328 0.6875)"/>
    <use xlink:href="#Cmmi10-6a" transform="translate(216.768828 -16.31875) scale(0.7)"/>
   </g>
  </g>
  <g id="text_10">
   <!-- Annual rent of store $j$, paid by NYCEDC (FY2025) -->
   <g style="fill: #222222" transform="translate(188.936481 322.815313) scale(0.17 -0.17)">
    <defs>
     <path id="DejaVuSans-46" d="M 628 4666 
L 3309 4666 
L 3309 4134 
L 1259 4134 
L 1259 2759 
L 3109 2759 
L 3109 2228 
L 1259 2228 
L 1259 0 
L 628 0 
L 628 4666 
z
" transform="scale(0.015625)"/>
     <path id="DejaVuSans-30" d="M 2034 4250 
Q 1547 4250 1301 3770 
Q 1056 3291 1056 2328 
Q 1056 1369 1301 889 
Q 1547 409 2034 409 
Q 2525 409 2770 889 
Q 3016 1369 3016 2328 
Q 3016 3291 2770 3770 
Q 2525 4250 2034 4250 
z
M 2034 4750 
Q 2819 4750 3233 4129 
Q 3647 3509 3647 2328 
Q 3647 1150 3233 529 
Q 2819 -91 2034 -91 
Q 1250 -91 836 529 
Q 422 1150 422 2328 
Q 422 3509 836 4129 
Q 1250 4750 2034 4750 
z
" transform="scale(0.015625)"/>
     <path id="DejaVuSans-35" d="M 691 4666 
L 3169 4666 
L 3169 4134 
L 1269 4134 
L 1269 2991 
Q 1406 3038 1543 3061 
Q 1681 3084 1819 3084 
Q 2600 3084 3056 2656 
Q 3513 2228 3513 1497 
Q 3513 744 3044 326 
Q 2575 -91 1722 -91 
Q 1428 -91 1123 -41 
Q 819 9 494 109 
L 494 744 
Q 775 591 1075 516 
Q 1375 441 1709 441 
Q 2250 441 2565 725 
Q 2881 1009 2881 1497 
Q 2881 1984 2565 2268 
Q 2250 2553 1709 2553 
Q 1456 2553 1204 2497 
Q 953 2441 691 2322 
L 691 4666 
z
" transform="scale(0.015625)"/>
    </defs>
    <use xlink:href="#DejaVuSans-41" transform="translate(0 0.015625)"/>
    <use xlink:href="#DejaVuSans-6e" transform="translate(68.408203 0.015625)"/>
    <use xlink:href="#DejaVuSans-6e" transform="translate(131.787109 0.015625)"/>
    <use xlink:href="#DejaVuSans-75" transform="translate(195.166016 0.015625)"/>
    <use xlink:href="#DejaVuSans-61" transform="translate(258.544922 0.015625)"/>
    <use xlink:href="#DejaVuSans-6c" transform="translate(319.824219 0.015625)"/>
    <use xlink:href="#DejaVuSans-20" transform="translate(347.607422 0.015625)"/>
    <use xlink:href="#DejaVuSans-72" transform="translate(379.394531 0.015625)"/>
    <use xlink:href="#DejaVuSans-65" transform="translate(420.507812 0.015625)"/>
    <use xlink:href="#DejaVuSans-6e" transform="translate(482.03125 0.015625)"/>
    <use xlink:href="#DejaVuSans-74" transform="translate(545.410156 0.015625)"/>
    <use xlink:href="#DejaVuSans-20" transform="translate(584.619141 0.015625)"/>
    <use xlink:href="#DejaVuSans-6f" transform="translate(616.40625 0.015625)"/>
    <use xlink:href="#DejaVuSans-66" transform="translate(677.587891 0.015625)"/>
    <use xlink:href="#DejaVuSans-20" transform="translate(712.792969 0.015625)"/>
    <use xlink:href="#DejaVuSans-73" transform="translate(744.580078 0.015625)"/>
    <use xlink:href="#DejaVuSans-74" transform="translate(796.679688 0.015625)"/>
    <use xlink:href="#DejaVuSans-6f" transform="translate(835.888672 0.015625)"/>
    <use xlink:href="#DejaVuSans-72" transform="translate(897.070312 0.015625)"/>
    <use xlink:href="#DejaVuSans-65" transform="translate(938.183594 0.015625)"/>
    <use xlink:href="#DejaVuSans-20" transform="translate(999.707031 0.015625)"/>
    <use xlink:href="#Cmmi10-6a" transform="translate(1031.494141 0.015625)"/>
    <use xlink:href="#DejaVuSans-2c" transform="translate(1072.607422 0.015625)"/>
    <use xlink:href="#DejaVuSans-20" transform="translate(1104.394531 0.015625)"/>
    <use xlink:href="#DejaVuSans-70" transform="translate(1136.181641 0.015625)"/>
    <use xlink:href="#DejaVuSans-61" transform="translate(1199.658203 0.015625)"/>
    <use xlink:href="#DejaVuSans-69" transform="translate(1260.9375 0.015625)"/>
    <use xlink:href="#DejaVuSans-64" transform="translate(1288.720703 0.015625)"/>
    <use xlink:href="#DejaVuSans-20" transform="translate(1352.197266 0.015625)"/>
    <use xlink:href="#DejaVuSans-62" transform="translate(1383.984375 0.015625)"/>
    <use xlink:href="#DejaVuSans-79" transform="translate(1447.460938 0.015625)"/>
    <use xlink:href="#DejaVuSans-20" transform="translate(1506.640625 0.015625)"/>
    <use xlink:href="#DejaVuSans-4e" transform="translate(1538.427734 0.015625)"/>
    <use xlink:href="#DejaVuSans-59" transform="translate(1613.232422 0.015625)"/>
    <use xlink:href="#DejaVuSans-43" transform="translate(1674.316406 0.015625)"/>
    <use xlink:href="#DejaVuSans-45" transform="translate(1744.140625 0.015625)"/>
    <use xlink:href="#DejaVuSans-44" transform="translate(1807.324219 0.015625)"/>
    <use xlink:href="#DejaVuSans-43" transform="translate(1884.326172 0.015625)"/>
    <use xlink:href="#DejaVuSans-20" transform="translate(1954.150391 0.015625)"/>
    <use xlink:href="#DejaVuSans-28" transform="translate(1985.9375 0.015625)"/>
    <use xlink:href="#DejaVuSans-46" transform="translate(2024.951172 0.015625)"/>
    <use xlink:href="#DejaVuSans-59" transform="translate(2082.470703 0.015625)"/>
    <use xlink:href="#DejaVuSans-32" transform="translate(2143.554688 0.015625)"/>
    <use xlink:href="#DejaVuSans-30" transform="translate(2207.177734 0.015625)"/>
    <use xlink:href="#DejaVuSans-32" transform="translate(2270.800781 0.015625)"/>
    <use xlink:href="#DejaVuSans-35" transform="translate(2334.423828 0.015625)"/>
    <use xlink:href="#DejaVuSans-29" transform="translate(2398.046875 0.015625)"/>
   </g>
  </g>
  <g id="text_11">
   <!-- $\mathrm{Tax}_j$ -->
   <g style="fill: #222222" transform="translate(32.4 361.652625) scale(0.21 -0.21)">
    <use xlink:href="#Cmr10-54" transform="translate(0 0.6875)"/>
    <use xlink:href="#Cmr10-61" transform="translate(72.216797 0.6875)"/>
    <use xlink:href="#Cmr10-78" transform="translate(122.216797 0.6875)"/>
    <use xlink:href="#Cmmi10-6a" transform="translate(179.366484 -16.31875) scale(0.7)"/>
   </g>
  </g>
  <g id="text_12">
   <!-- Annual property tax on store $j$'s share of the lot, paid by NYCEDC -->
   <g style="fill: #222222" transform="translate(188.936481 362.242625) scale(0.17 -0.17)">
    <use xlink:href="#DejaVuSans-41" transform="translate(0 0.015625)"/>
    <use xlink:href="#DejaVuSans-6e" transform="translate(68.408203 0.015625)"/>
    <use xlink:href="#DejaVuSans-6e" transform="translate(131.787109 0.015625)"/>
    <use xlink:href="#DejaVuSans-75" transform="translate(195.166016 0.015625)"/>
    <use xlink:href="#DejaVuSans-61" transform="translate(258.544922 0.015625)"/>
    <use xlink:href="#DejaVuSans-6c" transform="translate(319.824219 0.015625)"/>
    <use xlink:href="#DejaVuSans-20" transform="translate(347.607422 0.015625)"/>
    <use xlink:href="#DejaVuSans-70" transform="translate(379.394531 0.015625)"/>
    <use xlink:href="#DejaVuSans-72" transform="translate(442.871094 0.015625)"/>
    <use xlink:href="#DejaVuSans-6f" transform="translate(483.984375 0.015625)"/>
    <use xlink:href="#DejaVuSans-70" transform="translate(545.166016 0.015625)"/>
    <use xlink:href="#DejaVuSans-65" transform="translate(608.642578 0.015625)"/>
    <use xlink:href="#DejaVuSans-72" transform="translate(670.166016 0.015625)"/>
    <use xlink:href="#DejaVuSans-74" transform="translate(711.279297 0.015625)"/>
    <use xlink:href="#DejaVuSans-79" transform="translate(750.488281 0.015625)"/>
    <use xlink:href="#DejaVuSans-20" transform="translate(809.667969 0.015625)"/>
    <use xlink:href="#DejaVuSans-74" transform="translate(841.455078 0.015625)"/>
    <use xlink:href="#DejaVuSans-61" transform="translate(880.664062 0.015625)"/>
    <use xlink:href="#DejaVuSans-78" transform="translate(941.943359 0.015625)"/>
    <use xlink:href="#DejaVuSans-20" transform="translate(1001.123047 0.015625)"/>
    <use xlink:href="#DejaVuSans-6f" transform="translate(1032.910156 0.015625)"/>
    <use xlink:href="#DejaVuSans-6e" transform="translate(1094.091797 0.015625)"/>
    <use xlink:href="#DejaVuSans-20" transform="translate(1157.470703 0.015625)"/>
    <use xlink:href="#DejaVuSans-73" transform="translate(1189.257812 0.015625)"/>
    <use xlink:href="#DejaVuSans-74" transform="translate(1241.357422 0.015625)"/>
    <use xlink:href="#DejaVuSans-6f" transform="translate(1280.566406 0.015625)"/>
    <use xlink:href="#DejaVuSans-72" transform="translate(1341.748047 0.015625)"/>
    <use xlink:href="#DejaVuSans-65" transform="translate(1382.861328 0.015625)"/>
    <use xlink:href="#DejaVuSans-20" transform="translate(1444.384766 0.015625)"/>
    <use xlink:href="#Cmmi10-6a" transform="translate(1476.171875 0.015625)"/>
    <use xlink:href="#DejaVuSans-27" transform="translate(1517.285156 0.015625)"/>
    <use xlink:href="#DejaVuSans-73" transform="translate(1544.775391 0.015625)"/>
    <use xlink:href="#DejaVuSans-20" transform="translate(1596.875 0.015625)"/>
    <use xlink:href="#DejaVuSans-73" transform="translate(1628.662109 0.015625)"/>
    <use xlink:href="#DejaVuSans-68" transform="translate(1680.761719 0.015625)"/>
    <use xlink:href="#DejaVuSans-61" transform="translate(1744.140625 0.015625)"/>
    <use xlink:href="#DejaVuSans-72" transform="translate(1805.419922 0.015625)"/>
    <use xlink:href="#DejaVuSans-65" transform="translate(1846.533203 0.015625)"/>
    <use xlink:href="#DejaVuSans-20" transform="translate(1908.056641 0.015625)"/>
    <use xlink:href="#DejaVuSans-6f" transform="translate(1939.84375 0.015625)"/>
    <use xlink:href="#DejaVuSans-66" transform="translate(2001.025391 0.015625)"/>
    <use xlink:href="#DejaVuSans-20" transform="translate(2036.230469 0.015625)"/>
    <use xlink:href="#DejaVuSans-74" transform="translate(2068.017578 0.015625)"/>
    <use xlink:href="#DejaVuSans-68" transform="translate(2107.226562 0.015625)"/>
    <use xlink:href="#DejaVuSans-65" transform="translate(2170.605469 0.015625)"/>
    <use xlink:href="#DejaVuSans-20" transform="translate(2232.128906 0.015625)"/>
    <use xlink:href="#DejaVuSans-6c" transform="translate(2263.916016 0.015625)"/>
    <use xlink:href="#DejaVuSans-6f" transform="translate(2291.699219 0.015625)"/>
    <use xlink:href="#DejaVuSans-74" transform="translate(2352.880859 0.015625)"/>
    <use xlink:href="#DejaVuSans-2c" transform="translate(2392.089844 0.015625)"/>
    <use xlink:href="#DejaVuSans-20" transform="translate(2423.876953 0.015625)"/>
    <use xlink:href="#DejaVuSans-70" transform="translate(2455.664062 0.015625)"/>
    <use xlink:href="#DejaVuSans-61" transform="translate(2519.140625 0.015625)"/>
    <use xlink:href="#DejaVuSans-69" transform="translate(2580.419922 0.015625)"/>
    <use xlink:href="#DejaVuSans-64" transform="translate(2608.203125 0.015625)"/>
    <use xlink:href="#DejaVuSans-20" transform="translate(2671.679688 0.015625)"/>
    <use xlink:href="#DejaVuSans-62" transform="translate(2703.466797 0.015625)"/>
    <use xlink:href="#DejaVuSans-79" transform="translate(2766.943359 0.015625)"/>
    <use xlink:href="#DejaVuSans-20" transform="translate(2826.123047 0.015625)"/>
    <use xlink:href="#DejaVuSans-4e" transform="translate(2857.910156 0.015625)"/>
    <use xlink:href="#DejaVuSans-59" transform="translate(2932.714844 0.015625)"/>
    <use xlink:href="#DejaVuSans-43" transform="translate(2993.798828 0.015625)"/>
    <use xlink:href="#DejaVuSans-45" transform="translate(3063.623047 0.015625)"/>
    <use xlink:href="#DejaVuSans-44" transform="translate(3126.806641 0.015625)"/>
    <use xlink:href="#DejaVuSans-43" transform="translate(3203.808594 0.015625)"/>
   </g>
   <!-- (FY2025) -->
   <g style="fill: #222222" transform="translate(188.936481 383.251039) scale(0.17 -0.17)">
    <use xlink:href="#DejaVuSans-28"/>
    <use xlink:href="#DejaVuSans-46" transform="translate(39.013672 0)"/>
    <use xlink:href="#DejaVuSans-59" transform="translate(96.533203 0)"/>
    <use xlink:href="#DejaVuSans-32" transform="translate(157.617188 0)"/>
    <use xlink:href="#DejaVuSans-30" transform="translate(221.240234 0)"/>
    <use xlink:href="#DejaVuSans-32" transform="translate(284.863281 0)"/>
    <use xlink:href="#DejaVuSans-35" transform="translate(348.486328 0)"/>
    <use xlink:href="#DejaVuSans-29" transform="translate(412.109375 0)"/>
   </g>
  </g>
  <g id="text_13">
   <!-- $\max(0,\ \cdot)$ -->
   <g style="fill: #222222" transform="translate(32.4 420.980625) scale(0.21 -0.21)">
    <defs>
     <path id="Cmr10-28" d="M 1984 -1588 
Q 1628 -1306 1370 -942 
Q 1113 -578 948 -165 
Q 784 247 703 697 
Q 622 1147 622 1600 
Q 622 2059 703 2509 
Q 784 2959 951 3375 
Q 1119 3791 1378 4153 
Q 1638 4516 1984 4788 
Q 1984 4800 2016 4800 
L 2075 4800 
Q 2094 4800 2109 4783 
Q 2125 4766 2125 4744 
Q 2125 4716 2113 4703 
Q 1800 4397 1592 4047 
Q 1384 3697 1257 3301 
Q 1131 2906 1075 2482 
Q 1019 2059 1019 1600 
Q 1019 -434 2106 -1491 
Q 2125 -1509 2125 -1544 
Q 2125 -1559 2108 -1579 
Q 2091 -1600 2075 -1600 
L 2016 -1600 
Q 1984 -1600 1984 -1588 
z
" transform="scale(0.015625)"/>
     <path id="Cmr10-29" d="M 416 -1600 
Q 359 -1600 359 -1544 
Q 359 -1516 372 -1503 
Q 1466 -434 1466 1600 
Q 1466 3634 384 4691 
Q 359 4706 359 4744 
Q 359 4766 376 4783 
Q 394 4800 416 4800 
L 475 4800 
Q 494 4800 506 4788 
Q 966 4425 1272 3906 
Q 1578 3388 1720 2800 
Q 1863 2213 1863 1600 
Q 1863 1147 1786 708 
Q 1709 269 1542 -157 
Q 1375 -584 1119 -945 
Q 863 -1306 506 -1588 
Q 494 -1600 475 -1600 
L 416 -1600 
z
" transform="scale(0.015625)"/>
    </defs>
    <use xlink:href="#Cmr10-6d"/>
    <use xlink:href="#Cmr10-61" transform="translate(83.300781 0)"/>
    <use xlink:href="#Cmr10-78" transform="translate(133.300781 0)"/>
    <use xlink:href="#Cmr10-28" transform="translate(185.986328 0)"/>
    <use xlink:href="#Cmr10-30" transform="translate(224.804688 0)"/>
    <use xlink:href="#Cmmi10-3b" transform="translate(274.804688 0)"/>
    <use xlink:href="#Cmsy10-a2" transform="translate(366.871452 0)"/>
    <use xlink:href="#Cmr10-29" transform="translate(412.115593 0)"/>
   </g>
  </g>
  <g id="text_14">
   <!-- The payment is zero when rent and tax relief already cover the discount -->
   <g style="fill: #222222" transform="translate(188.936481 420.307969) scale(0.17 -0.17)">
    <defs>
     <path id="DejaVuSans-54" d="M -19 4666 
L 3928 4666 
L 3928 4134 
L 2272 4134 
L 2272 0 
L 1638 0 
L 1638 4134 
L -19 4134 
L -19 4666 
z
" transform="scale(0.015625)"/>
     <path id="DejaVuSans-7a" d="M 353 3500 
L 3084 3500 
L 3084 2975 
L 922 459 
L 3084 459 
L 3084 0 
L 275 0 
L 275 525 
L 2438 3041 
L 353 3041 
L 353 3500 
z
" transform="scale(0.015625)"/>
     <path id="DejaVuSans-77" d="M 269 3500 
L 844 3500 
L 1563 769 
L 2278 3500 
L 2956 3500 
L 3675 769 
L 4391 3500 
L 4966 3500 
L 4050 0 
L 3372 0 
L 2619 2869 
L 1863 0 
L 1184 0 
L 269 3500 
z
" transform="scale(0.015625)"/>
    </defs>
    <use xlink:href="#DejaVuSans-54"/>
    <use xlink:href="#DejaVuSans-68" transform="translate(61.083984 0)"/>
    <use xlink:href="#DejaVuSans-65" transform="translate(124.462891 0)"/>
    <use xlink:href="#DejaVuSans-20" transform="translate(185.986328 0)"/>
    <use xlink:href="#DejaVuSans-70" transform="translate(217.773438 0)"/>
    <use xlink:href="#DejaVuSans-61" transform="translate(281.25 0)"/>
    <use xlink:href="#DejaVuSans-79" transform="translate(342.529297 0)"/>
    <use xlink:href="#DejaVuSans-6d" transform="translate(401.708984 0)"/>
    <use xlink:href="#DejaVuSans-65" transform="translate(499.121094 0)"/>
    <use xlink:href="#DejaVuSans-6e" transform="translate(560.644531 0)"/>
    <use xlink:href="#DejaVuSans-74" transform="translate(624.023438 0)"/>
    <use xlink:href="#DejaVuSans-20" transform="translate(663.232422 0)"/>
    <use xlink:href="#DejaVuSans-69" transform="translate(695.019531 0)"/>
    <use xlink:href="#DejaVuSans-73" transform="translate(722.802734 0)"/>
    <use xlink:href="#DejaVuSans-20" transform="translate(774.902344 0)"/>
    <use xlink:href="#DejaVuSans-7a" transform="translate(806.689453 0)"/>
    <use xlink:href="#DejaVuSans-65" transform="translate(859.179688 0)"/>
    <use xlink:href="#DejaVuSans-72" transform="translate(920.703125 0)"/>
    <use xlink:href="#DejaVuSans-6f" transform="translate(959.566406 0)"/>
    <use xlink:href="#DejaVuSans-20" transform="translate(1020.748047 0)"/>
    <use xlink:href="#DejaVuSans-77" transform="translate(1052.535156 0)"/>
    <use xlink:href="#DejaVuSans-68" transform="translate(1134.322266 0)"/>
    <use xlink:href="#DejaVuSans-65" transform="translate(1197.701172 0)"/>
    <use xlink:href="#DejaVuSans-6e" transform="translate(1259.224609 0)"/>
    <use xlink:href="#DejaVuSans-20" transform="translate(1322.603516 0)"/>
    <use xlink:href="#DejaVuSans-72" transform="translate(1354.390625 0)"/>
    <use xlink:href="#DejaVuSans-65" transform="translate(1393.253906 0)"/>
    <use xlink:href="#DejaVuSans-6e" transform="translate(1454.777344 0)"/>
    <use xlink:href="#DejaVuSans-74" transform="translate(1518.15625 0)"/>
    <use xlink:href="#DejaVuSans-20" transform="translate(1557.365234 0)"/>
    <use xlink:href="#DejaVuSans-61" transform="translate(1589.152344 0)"/>
    <use xlink:href="#DejaVuSans-6e" transform="translate(1650.431641 0)"/>
    <use xlink:href="#DejaVuSans-64" transform="translate(1713.810547 0)"/>
    <use xlink:href="#DejaVuSans-20" transform="translate(1777.287109 0)"/>
    <use xlink:href="#DejaVuSans-74" transform="translate(1809.074219 0)"/>
    <use xlink:href="#DejaVuSans-61" transform="translate(1848.283203 0)"/>
    <use xlink:href="#DejaVuSans-78" transform="translate(1909.5625 0)"/>
    <use xlink:href="#DejaVuSans-20" transform="translate(1968.742188 0)"/>
    <use xlink:href="#DejaVuSans-72" transform="translate(2000.529297 0)"/>
    <use xlink:href="#DejaVuSans-65" transform="translate(2039.392578 0)"/>
    <use xlink:href="#DejaVuSans-6c" transform="translate(2100.916016 0)"/>
    <use xlink:href="#DejaVuSans-69" transform="translate(2128.699219 0)"/>
    <use xlink:href="#DejaVuSans-65" transform="translate(2156.482422 0)"/>
    <use xlink:href="#DejaVuSans-66" transform="translate(2218.005859 0)"/>
    <use xlink:href="#DejaVuSans-20" transform="translate(2253.210938 0)"/>
    <use xlink:href="#DejaVuSans-61" transform="translate(2284.998047 0)"/>
    <use xlink:href="#DejaVuSans-6c" transform="translate(2346.277344 0)"/>
    <use xlink:href="#DejaVuSans-72" transform="translate(2374.060547 0)"/>
    <use xlink:href="#DejaVuSans-65" transform="translate(2412.923828 0)"/>
    <use xlink:href="#DejaVuSans-61" transform="translate(2474.447266 0)"/>
    <use xlink:href="#DejaVuSans-64" transform="translate(2535.726562 0)"/>
    <use xlink:href="#DejaVuSans-79" transform="translate(2599.203125 0)"/>
    <use xlink:href="#DejaVuSans-20" transform="translate(2658.382812 0)"/>
    <use xlink:href="#DejaVuSans-63" transform="translate(2690.169922 0)"/>
    <use xlink:href="#DejaVuSans-6f" transform="translate(2745.150391 0)"/>
    <use xlink:href="#DejaVuSans-76" transform="translate(2806.332031 0)"/>
    <use xlink:href="#DejaVuSans-65" transform="translate(2865.511719 0)"/>
    <use xlink:href="#DejaVuSans-72" transform="translate(2927.035156 0)"/>
    <use xlink:href="#DejaVuSans-20" transform="translate(2968.148438 0)"/>
    <use xlink:href="#DejaVuSans-74" transform="translate(2999.935547 0)"/>
    <use xlink:href="#DejaVuSans-68" transform="translate(3039.144531 0)"/>
    <use xlink:href="#DejaVuSans-65" transform="translate(3102.523438 0)"/>
    <use xlink:href="#DejaVuSans-20" transform="translate(3164.046875 0)"/>
    <use xlink:href="#DejaVuSans-64" transform="translate(3195.833984 0)"/>
    <use xlink:href="#DejaVuSans-69" transform="translate(3259.310547 0)"/>
    <use xlink:href="#DejaVuSans-73" transform="translate(3287.09375 0)"/>
    <use xlink:href="#DejaVuSans-63" transform="translate(3339.193359 0)"/>
    <use xlink:href="#DejaVuSans-6f" transform="translate(3394.173828 0)"/>
    <use xlink:href="#DejaVuSans-75" transform="translate(3455.355469 0)"/>
    <use xlink:href="#DejaVuSans-6e" transform="translate(3518.734375 0)"/>
    <use xlink:href="#DejaVuSans-74" transform="translate(3582.113281 0)"/>
   </g>
  </g>
 </g>
</svg>
